STARTFONT 2.1
COMMENT
COMMENT Converted from OpenType font "SourceSansPro-Regular.otf" by "otf2bdf 3.0".
COMMENT
FONT -FreeType-Source Sans Pro-Medium-R-Normal--55-400-100-100-P-251-ISO10646-1
SIZE 40 100 100
FONTBOUNDINGBOX 145 69 -25 -15
STARTPROPERTIES 19
FOUNDRY "FreeType"
FAMILY_NAME "Source Sans Pro"
WEIGHT_NAME "Medium"
SLANT "R"
SETWIDTH_NAME "Normal"
ADD_STYLE_NAME ""
PIXEL_SIZE 55
POINT_SIZE 400
RESOLUTION_X 100
RESOLUTION_Y 100
SPACING "P"
AVERAGE_WIDTH 251
CHARSET_REGISTRY "ISO10646"
CHARSET_ENCODING "1"
FONT_ASCENT 55
FONT_DESCENT 15
COPYRIGHT "Copyright 2010, 2012, 2014 Adobe Systems Incorporated (http://www.adobe.com/), with Reserved Font Name Source."
_OTF_FONTFILE "SourceSansPro-Regular.otf"
_OTF_PSNAME "SourceSansPro-Regular"
ENDPROPERTIES
CHARS 1296
STARTCHAR 0020
ENCODING 32
SWIDTH 198 0
DWIDTH 11 0
BBX 0 0 0 0
BITMAP
ENDCHAR
STARTCHAR 0021
ENCODING 33
SWIDTH 288 0
DWIDTH 16 0
BBX 6 38 5 0
BITMAP
78
78
78
78
78
78
78
78
78
78
78
78
78
78
78
78
78
78
78
78
78
78
78
78
78
78
00
00
00
00
00
78
FC
FC
FC
FC
FC
78
ENDCHAR
STARTCHAR 0022
ENCODING 34
SWIDTH 432 0
DWIDTH 24 0
BBX 15 14 4 24
BITMAP
F83E
F83E
783E
783E
783E
781E
781E
781E
781E
781E
781C
781C
701C
701C
ENDCHAR
STARTCHAR 0023
ENCODING 35
SWIDTH 504 0
DWIDTH 28 0
BBX 24 36 2 0
BITMAP
01C038
01C038
01C070
01C070
01C070
01C070
01C070
038070
038070
038070
7FFFFF
7FFFFF
7FFFFF
0380E0
0380E0
0380E0
0700E0
0700E0
0701E0
0701C0
0701C0
0701C0
FFFFFE
FFFFFE
FFFFFE
0E01C0
0E01C0
0E0380
0E0380
0E0380
0E0380
0E0380
1C0380
1C0380
1C0380
1C0700
ENDCHAR
STARTCHAR 0024
ENCODING 36
SWIDTH 504 0
DWIDTH 28 0
BBX 21 46 3 -5
BITMAP
007800
007800
007800
007800
007800
01FE00
07FF80
0FFFE0
1FFFF0
3F01F0
3E00E0
3C0000
7C0000
7C0000
7C0000
7C0000
3C0000
3E0000
3F0000
1FC000
0FF000
07FC00
01FF00
007F80
001FE0
0007E0
0003F0
0001F8
0000F8
0000F8
000078
000078
000078
000078
6000F8
7800F0
FE03F0
7FFFE0
3FFFC0
0FFF80
01FC00
007800
007800
007800
007800
007800
ENDCHAR
STARTCHAR 0025
ENCODING 37
SWIDTH 828 0
DWIDTH 46 0
BBX 42 37 2 0
BITMAP
07E000070000
0FF800070000
1FFC000E0000
3C3E001E0000
781E001C0000
700F003C0000
700F00380000
F00700700000
F00700700000
E00700E00000
E00780E00000
E00781C00000
E00701C00000
F00703800000
F0070381F000
F0070707FC00
700F0F0FFE00
780E0E1F1F00
781E1C1E0F00
3E3C1C3C0780
1FFC383C0380
0FF038380380
03C0703803C0
0000707803C0
0000E07803C0
0000E07803C0
0001C07803C0
0003C07803C0
0003807803C0
0007003803C0
000700380380
000E003C0780
000E001C0780
001C001F0F00
001C000FFE00
00380007FC00
00380001F000
ENDCHAR
STARTCHAR 0026
ENCODING 38
SWIDTH 612 0
DWIDTH 34 0
BBX 31 37 2 0
BITMAP
003F0000
00FFC000
01FFE000
03F3E000
03C0F000
0780F000
0780F000
0780F000
0780F000
0780F000
0781E000
0783E000
0787C000
07CF8000
03FF0000
03FE0000
01FC0000
03F0003C
07F8003C
0FF8003C
1F7C0078
3E3E0078
7C1F00F8
781F80F0
F80FC1F0
F007E1E0
F003F3C0
F001FFC0
F000FF80
F8007F00
F8003F80
7C007FE0
7F01FFF8
3FFFFBFE
1FFFE0FE
07FF803C
01FE000C
ENDCHAR
STARTCHAR 0027
ENCODING 39
SWIDTH 252 0
DWIDTH 14 0
BBX 5 14 4 24
BITMAP
F8
F8
78
78
78
78
78
78
78
78
78
78
70
70
ENDCHAR
STARTCHAR 0028
ENCODING 40
SWIDTH 306 0
DWIDTH 17 0
BBX 10 50 5 -10
BITMAP
0380
0380
0780
0700
0F00
0E00
1E00
1E00
3C00
3C00
3800
7800
7800
7800
7000
F000
F000
F000
F000
F000
F000
E000
E000
E000
E000
E000
E000
E000
F000
F000
F000
F000
F000
F000
7000
7800
7800
7800
3800
3C00
3C00
1C00
1E00
1E00
0F00
0F00
0780
0780
03C0
0100
ENDCHAR
STARTCHAR 0029
ENCODING 41
SWIDTH 306 0
DWIDTH 17 0
BBX 10 50 2 -10
BITMAP
7000
F000
7800
3800
3C00
1C00
1E00
1E00
0E00
0F00
0F00
0700
0780
0780
0780
0380
03C0
03C0
03C0
03C0
03C0
03C0
03C0
03C0
03C0
03C0
03C0
03C0
03C0
03C0
03C0
03C0
03C0
03C0
0380
0780
0780
0780
0700
0F00
0F00
0E00
1E00
1C00
3C00
3800
7800
7000
F000
2000
ENDCHAR
STARTCHAR 002A
ENCODING 42
SWIDTH 414 0
DWIDTH 23 0
BBX 17 16 3 24
BITMAP
01C000
01C000
01C000
01C000
01C000
79CF00
FFFF80
7FFF00
1FFC00
03F000
07F000
0FF800
0F7800
1E3C00
1C1E00
080C00
ENDCHAR
STARTCHAR 002B
ENCODING 43
SWIDTH 504 0
DWIDTH 28 0
BBX 24 25 2 6
BITMAP
003C00
003C00
003C00
003C00
003C00
003C00
003C00
003C00
003C00
003C00
003C00
FFFFFF
FFFFFF
FFFFFF
003C00
003C00
003C00
003C00
003C00
003C00
003C00
003C00
003C00
003C00
003C00
ENDCHAR
STARTCHAR 002C
ENCODING 44
SWIDTH 252 0
DWIDTH 14 0
BBX 8 15 3 -9
BITMAP
3E
7E
7F
7F
7F
3F
07
0F
0E
0E
1E
3C
F8
F0
C0
ENDCHAR
STARTCHAR 002D
ENCODING 45
SWIDTH 306 0
DWIDTH 17 0
BBX 13 4 2 12
BITMAP
FFF8
FFF8
FFF8
FFF8
ENDCHAR
STARTCHAR 002E
ENCODING 46
SWIDTH 252 0
DWIDTH 14 0
BBX 6 7 4 0
BITMAP
78
FC
FC
FC
FC
FC
78
ENDCHAR
STARTCHAR 002F
ENCODING 47
SWIDTH 342 0
DWIDTH 19 0
BBX 17 48 1 -9
BITMAP
000380
000380
000380
000780
000700
000700
000F00
000E00
000E00
001E00
001C00
001C00
003C00
003800
003800
003800
007800
007000
007000
00F000
00E000
00E000
01E000
01C000
01C000
03C000
038000
038000
038000
078000
070000
070000
0F0000
0E0000
0E0000
1E0000
1C0000
1C0000
3C0000
380000
380000
380000
780000
700000
700000
F00000
E00000
E00000
ENDCHAR
STARTCHAR 0030
ENCODING 48
SWIDTH 504 0
DWIDTH 28 0
BBX 23 36 2 0
BITMAP
007E00
01FF80
07FFC0
0FFFE0
0F81F0
1F00F8
3E0078
3E007C
3C007C
7C003C
7C003C
78003E
78003E
78001E
78001E
78001E
78001E
F8001E
F8001E
78001E
78001E
78001E
78001E
78003E
78003E
7C003C
7C003C
3C007C
3E007C
1E0078
1F00F8
0F81F0
0FFFE0
07FFC0
01FF80
007E00
ENDCHAR
STARTCHAR 0031
ENCODING 49
SWIDTH 504 0
DWIDTH 28 0
BBX 20 36 4 0
BITMAP
007800
03F800
1FF800
3FF800
3FF800
3FF800
00F800
00F800
00F800
00F800
00F800
00F800
00F800
00F800
00F800
00F800
00F800
00F800
00F800
00F800
00F800
00F800
00F800
00F800
00F800
00F800
00F800
00F800
00F800
00F800
00F800
00F800
FFFFF0
FFFFF0
FFFFF0
FFFFF0
ENDCHAR
STARTCHAR 0032
ENCODING 50
SWIDTH 504 0
DWIDTH 28 0
BBX 23 36 2 0
BITMAP
01FC00
07FF80
1FFFC0
3FFFE0
7E03F0
F801F0
7000F8
2000F8
000078
000078
000078
000078
000078
0000F8
0000F8
0000F0
0001F0
0003E0
0003E0
0007C0
000F80
001F80
001F00
003E00
007C00
00F800
01F000
03F000
07E000
0FC000
1F8000
3F0000
7FFFFE
FFFFFE
FFFFFE
FFFFFE
ENDCHAR
STARTCHAR 0033
ENCODING 51
SWIDTH 504 0
DWIDTH 28 0
BBX 23 36 2 0
BITMAP
00FE00
07FF80
1FFFE0
3FFFF0
7E03F0
3800F8
1000F8
000078
00007C
00007C
000078
0000F8
0000F8
0001F0
0007E0
01FFC0
01FF00
01FF00
01FFC0
000FF0
0001F8
0000FC
00007C
00003C
00003E
00003E
00003E
00003E
40003C
60007C
F800FC
FE01F8
7FFFF0
3FFFE0
0FFFC0
01FE00
ENDCHAR
STARTCHAR 0034
ENCODING 52
SWIDTH 504 0
DWIDTH 28 0
BBX 25 36 1 0
BITMAP
0001F000
0003F000
0007F000
0007F000
000FF000
001FF000
001EF000
003CF000
003CF000
0078F000
00F8F000
00F0F000
01E0F000
03E0F000
03C0F000
0780F000
0F80F000
0F00F000
1E00F000
3E00F000
3C00F000
7800F000
FFFFFF80
FFFFFF80
FFFFFF80
FFFFFF80
0000F000
0000F000
0000F000
0000F000
0000F000
0000F000
0000F000
0000F000
0000F000
0000F000
ENDCHAR
STARTCHAR 0035
ENCODING 53
SWIDTH 504 0
DWIDTH 28 0
BBX 23 36 2 0
BITMAP
1FFFF8
1FFFF8
1FFFF8
1FFFF8
1E0000
1E0000
1E0000
1E0000
1E0000
1E0000
1E0000
1E0000
1E0000
1E7F00
3FFFC0
3FFFF0
3FDFF8
1E01F8
0000FC
00007C
00003E
00003E
00003E
00003E
00003E
00003E
00003E
00003E
40007C
60007C
F000F8
FE03F8
7FFFF0
3FFFE0
0FFF80
01FC00
ENDCHAR
STARTCHAR 0036
ENCODING 54
SWIDTH 504 0
DWIDTH 28 0
BBX 22 36 3 0
BITMAP
003F80
01FFE0
03FFF0
07FFF8
0FC0F8
1F0030
3E0000
3E0000
7C0000
7C0000
780000
780000
F80000
F00000
F03F00
F1FFC0
F3FFE0
F7EFF0
FF01F8
FC00F8
F8007C
F8003C
F0003C
F0003C
F0003C
F8003C
78003C
78003C
7C007C
3C0078
3E00F8
1F81F0
0FFFF0
07FFE0
03FF80
00FE00
ENDCHAR
STARTCHAR 0037
ENCODING 55
SWIDTH 504 0
DWIDTH 28 0
BBX 23 36 2 0
BITMAP
FFFFFE
FFFFFE
FFFFFE
FFFFFE
00003C
000078
0000F8
0000F0
0001E0
0001E0
0003C0
0003C0
000780
000780
000F00
000F00
001F00
001E00
001E00
003E00
003C00
003C00
003C00
007C00
007C00
007800
007800
007800
007800
00F800
00F800
00F800
00F800
00F800
00F800
00F800
ENDCHAR
STARTCHAR 0038
ENCODING 56
SWIDTH 504 0
DWIDTH 28 0
BBX 23 36 2 0
BITMAP
007F00
03FFC0
07FFE0
0FE7F0
1F00F8
1E0078
3E007C
3C003C
3C003C
3C003C
3C003C
3E003C
1F0078
1F8078
0FC0F0
07F1E0
03FFC0
03FF80
07FFC0
0F0FF0
1E03F8
3C00FC
78007C
78003E
78001E
F0001E
F0001E
F8001E
F8001E
7C003E
7C007C
3F00FC
1FE7F8
0FFFF0
07FFC0
00FF00
ENDCHAR
STARTCHAR 0039
ENCODING 57
SWIDTH 504 0
DWIDTH 28 0
BBX 23 36 2 0
BITMAP
00FC00
07FF00
0FFFC0
1FFFE0
3F03F0
3C01F0
7C00F8
780078
78007C
F8003C
F8003C
F8003C
F8003E
F8003E
78003E
78007E
7C00FE
3E01FE
3FCFDE
1FFF9E
0FFE3E
01F83E
00003C
00003C
00003C
00003C
00007C
000078
0000F8
0001F0
3003F0
3C07E0
7FFFC0
3FFF80
0FFE00
03F800
ENDCHAR
STARTCHAR 003A
ENCODING 58
SWIDTH 252 0
DWIDTH 14 0
BBX 6 27 4 0
BITMAP
78
FC
FC
FC
FC
FC
78
00
00
00
00
00
00
00
00
00
00
00
00
00
78
FC
FC
FC
FC
FC
78
ENDCHAR
STARTCHAR 003B
ENCODING 59
SWIDTH 252 0
DWIDTH 14 0
BBX 8 35 3 -9
BITMAP
3C
7E
7E
7E
7E
7E
3C
00
00
00
00
00
00
00
00
00
00
00
00
00
3E
7E
7F
7F
7F
3F
07
0F
0E
0E
1E
3C
F8
F0
C0
ENDCHAR
STARTCHAR 003C
ENCODING 60
SWIDTH 504 0
DWIDTH 28 0
BBX 24 22 2 7
BITMAP
000003
00001F
0000FF
0003FF
001FF8
007FE0
03FF00
0FF800
7FE000
FF0000
F80000
FC0000
FF8000
3FE000
07FC00
01FF80
003FF0
000FFC
0001FF
00007F
00000F
000003
ENDCHAR
STARTCHAR 003D
ENCODING 61
SWIDTH 504 0
DWIDTH 28 0
BBX 24 15 2 11
BITMAP
FFFFFF
FFFFFF
FFFFFF
000000
000000
000000
000000
000000
000000
000000
000000
000000
FFFFFF
FFFFFF
FFFFFF
ENDCHAR
STARTCHAR 003E
ENCODING 62
SWIDTH 504 0
DWIDTH 28 0
BBX 24 22 2 7
BITMAP
C00000
F80000
FE0000
FFC000
3FF000
07FE00
00FF80
003FF0
0007FC
0000FF
00003F
00003F
0001FF
000FFC
003FE0
01FF00
0FFC00
7FE000
FF8000
FC0000
F00000
800000
ENDCHAR
STARTCHAR 003F
ENCODING 63
SWIDTH 432 0
DWIDTH 24 0
BBX 19 39 2 0
BITMAP
00F000
0FFE00
1FFF00
3FFF80
FC0FC0
7807C0
2003E0
0003E0
0003E0
0003E0
0003E0
0003E0
0003C0
0007C0
000F80
000F80
001F00
003E00
007C00
007800
00F800
00F000
01F000
01E000
01E000
01E000
01E000
000000
000000
000000
000000
000000
01E000
03F000
03F000
03F000
03F000
03F000
01E000
ENDCHAR
STARTCHAR 0040
ENCODING 64
SWIDTH 846 0
DWIDTH 47 0
BBX 41 45 3 -9
BITMAP
00003FF00000
0001FFFE0000
0007FFFF8000
001FE01FE000
007F0003F000
00FC0000F800
01F000007C00
03E000003C00
07C000001E00
0F8000000E00
0F0000000F00
1E0000000700
1C001F1C0780
3C007FBC0780
3801FFF80380
7803F1F80380
7003C0F80380
700780780380
700F00780380
F00F00700380
F00E00700380
E01E00F00380
E01E00F00380
E01E00F00780
E01E00E00700
E01E00E00700
E01E00E00E00
E01E01E01E00
F01F03F03C00
F00F8FF87800
700FFE7FF000
7007FC3FE000
7801F01F8000
780000000000
3C0000000000
3C0000000000
1E0000000000
0F0000000000
0F8000000000
07E000080000
03F800380000
00FF00FC0000
007FFFF80000
001FFFE00000
0001FF000000
ENDCHAR
STARTCHAR 0041
ENCODING 65
SWIDTH 540 0
DWIDTH 30 0
BBX 30 37 0 0
BITMAP
000FC000
000FC000
000FE000
001FE000
001FE000
001CF000
003CF000
003CF000
003CF800
00787800
00787800
00787C00
00F03C00
00F03C00
00F03E00
01F03E00
01E01E00
01E01F00
03E01F00
03C00F00
03C00F80
07C00F80
07FFFF80
07FFFFC0
0FFFFFC0
0FFFFFC0
0F0003E0
1F0003E0
1F0003E0
1E0001F0
3E0001F0
3E0001F0
3C0000F8
7C0000F8
7C0000F8
7800007C
F800007C
ENDCHAR
STARTCHAR 0042
ENCODING 66
SWIDTH 594 0
DWIDTH 33 0
BBX 25 37 5 0
BITMAP
FFFF0000
FFFFE000
FFFFF000
FFFFFC00
F801FC00
F8007E00
F8003E00
F8003E00
F8001E00
F8001E00
F8001E00
F8001E00
F8003E00
F8003C00
F8007C00
F803F800
FFFFF000
FFFFC000
FFFFF800
FFFFFC00
F8007F00
F8001F00
F8000F80
F8000F80
F8000780
F8000780
F8000780
F8000780
F8000780
F8000F80
F8001F80
F8003F00
F8007E00
FFFFFE00
FFFFF800
FFFFF000
FFFF0000
ENDCHAR
STARTCHAR 0043
ENCODING 67
SWIDTH 576 0
DWIDTH 32 0
BBX 27 37 3 0
BITMAP
000FF000
007FFC00
01FFFF00
03FFFF80
07F81FC0
0FE00780
1F800100
1F000000
3E000000
3E000000
7C000000
7C000000
78000000
F8000000
F8000000
F8000000
F8000000
F8000000
F8000000
F8000000
F8000000
F8000000
F8000000
F8000000
7C000000
7C000000
7C000000
3E000000
3E000000
1F000080
1F8001C0
0FE007E0
07F81FC0
03FFFF80
01FFFF00
007FFC00
000FF000
ENDCHAR
STARTCHAR 0044
ENCODING 68
SWIDTH 612 0
DWIDTH 34 0
BBX 26 37 5 0
BITMAP
FFFC0000
FFFF8000
FFFFE000
FFFFF800
F803FC00
F800FE00
F8007E00
F8003F00
F8001F00
F8000F80
F8000F80
F80007C0
F80007C0
F80007C0
F80007C0
F80007C0
F80007C0
F80003C0
F80003C0
F80003C0
F80007C0
F80007C0
F80007C0
F80007C0
F80007C0
F8000780
F8000F80
F8000F80
F8001F00
F8003F00
F8007E00
F800FC00
F803FC00
FFFFF000
FFFFE000
FFFF8000
FFFC0000
ENDCHAR
STARTCHAR 0045
ENCODING 69
SWIDTH 522 0
DWIDTH 29 0
BBX 22 37 5 0
BITMAP
FFFFF8
FFFFF8
FFFFF8
FFFFF8
F80000
F80000
F80000
F80000
F80000
F80000
F80000
F80000
F80000
F80000
F80000
F80000
FFFFC0
FFFFC0
FFFFC0
FFFFC0
F80000
F80000
F80000
F80000
F80000
F80000
F80000
F80000
F80000
F80000
F80000
F80000
F80000
FFFFFC
FFFFFC
FFFFFC
FFFFFC
ENDCHAR
STARTCHAR 0046
ENCODING 70
SWIDTH 486 0
DWIDTH 27 0
BBX 21 37 5 0
BITMAP
FFFFF8
FFFFF8
FFFFF8
FFFFF8
F80000
F80000
F80000
F80000
F80000
F80000
F80000
F80000
F80000
F80000
F80000
F80000
FFFFE0
FFFFE0
FFFFE0
FFFFE0
F80000
F80000
F80000
F80000
F80000
F80000
F80000
F80000
F80000
F80000
F80000
F80000
F80000
F80000
F80000
F80000
F80000
ENDCHAR
STARTCHAR 0047
ENCODING 71
SWIDTH 612 0
DWIDTH 34 0
BBX 28 37 3 0
BITMAP
0007F800
003FFE00
00FFFF80
03FFFFC0
07F80FE0
0FE003C0
1F800180
1F000000
3F000000
3E000000
7C000000
7C000000
7C000000
F8000000
F8000000
F8000000
F8000000
F8000000
F800FFF0
F800FFF0
F800FFF0
F800FFF0
F80001F0
F80001F0
780001F0
7C0001F0
7C0001F0
3E0001F0
3E0001F0
1F0001F0
1F8001F0
0FE001F0
07F80FF0
03FFFFE0
01FFFF80
007FFF00
000FF800
ENDCHAR
STARTCHAR 0048
ENCODING 72
SWIDTH 648 0
DWIDTH 36 0
BBX 26 37 5 0
BITMAP
F80003C0
F80003C0
F80003C0
F80003C0
F80003C0
F80003C0
F80003C0
F80003C0
F80003C0
F80003C0
F80003C0
F80003C0
F80003C0
F80003C0
F80003C0
F80003C0
FFFFFFC0
FFFFFFC0
FFFFFFC0
FFFFFFC0
F80003C0
F80003C0
F80003C0
F80003C0
F80003C0
F80003C0
F80003C0
F80003C0
F80003C0
F80003C0
F80003C0
F80003C0
F80003C0
F80003C0
F80003C0
F80003C0
F80003C0
ENDCHAR
STARTCHAR 0049
ENCODING 73
SWIDTH 270 0
DWIDTH 15 0
BBX 5 37 5 0
BITMAP
F8
F8
F8
F8
F8
F8
F8
F8
F8
F8
F8
F8
F8
F8
F8
F8
F8
F8
F8
F8
F8
F8
F8
F8
F8
F8
F8
F8
F8
F8
F8
F8
F8
F8
F8
F8
F8
ENDCHAR
STARTCHAR 004A
ENCODING 74
SWIDTH 486 0
DWIDTH 27 0
BBX 20 37 2 0
BITMAP
0001F0
0001F0
0001F0
0001F0
0001F0
0001F0
0001F0
0001F0
0001F0
0001F0
0001F0
0001F0
0001F0
0001F0
0001F0
0001F0
0001F0
0001F0
0001F0
0001F0
0001F0
0001F0
0001F0
0001F0
0001F0
0001F0
0001F0
0001F0
0001F0
2001E0
7003E0
F807E0
7E0FC0
7FFFC0
3FFF80
0FFE00
03F800
ENDCHAR
STARTCHAR 004B
ENCODING 75
SWIDTH 576 0
DWIDTH 32 0
BBX 27 37 5 0
BITMAP
F8000F80
F8001F00
F8003E00
F8007C00
F800FC00
F801F800
F801F000
F803E000
F807C000
F80F8000
F81F8000
F81F0000
F83E0000
F87C0000
F8FC0000
F9FE0000
FBFE0000
FBFF0000
FFDF0000
FF8F8000
FF8F8000
FF07C000
FE03E000
FC03E000
F801F000
F801F000
F800F800
F800F800
F8007C00
F8007E00
F8003E00
F8001F00
F8001F00
F8000F80
F8000FC0
F80007C0
F80007E0
ENDCHAR
STARTCHAR 004C
ENCODING 76
SWIDTH 486 0
DWIDTH 27 0
BBX 21 37 5 0
BITMAP
F80000
F80000
F80000
F80000
F80000
F80000
F80000
F80000
F80000
F80000
F80000
F80000
F80000
F80000
F80000
F80000
F80000
F80000
F80000
F80000
F80000
F80000
F80000
F80000
F80000
F80000
F80000
F80000
F80000
F80000
F80000
F80000
F80000
FFFFF8
FFFFF8
FFFFF8
FFFFF8
ENDCHAR
STARTCHAR 004D
ENCODING 77
SWIDTH 720 0
DWIDTH 40 0
BBX 30 37 5 0
BITMAP
FC00007C
FC0000FC
FC0000FC
FE0000FC
FE0001FC
FF0001FC
FF0003DC
FF0003DC
F78003BC
F78007BC
F78007BC
F3C0073C
F3C00F3C
F1C00F3C
F1E00E3C
F1E01E3C
F0E01E3C
F0F01C3C
F0F03C3C
F0783C3C
F078383C
F078783C
F03C703C
F03C703C
F01CF03C
F01EE03C
F01EE03C
F00FE03C
F00FC03C
F00FC03C
F007C03C
F007803C
F007803C
F000003C
F000003C
F000003C
F000003C
ENDCHAR
STARTCHAR 004E
ENCODING 78
SWIDTH 648 0
DWIDTH 36 0
BBX 26 37 5 0
BITMAP
F80003C0
FC0003C0
FC0003C0
FE0003C0
FE0003C0
FF0003C0
FF0003C0
F78003C0
F7C003C0
F3C003C0
F3E003C0
F1E003C0
F1F003C0
F0F003C0
F0F803C0
F07C03C0
F03C03C0
F03E03C0
F01E03C0
F01F03C0
F00F03C0
F00F83C0
F00783C0
F007C3C0
F003E3C0
F001E3C0
F001F3C0
F000F3C0
F000FBC0
F0007BC0
F0007FC0
F0003FC0
F0001FC0
F0001FC0
F0000FC0
F0000FC0
F00007C0
ENDCHAR
STARTCHAR 004F
ENCODING 79
SWIDTH 666 0
DWIDTH 37 0
BBX 31 37 3 0
BITMAP
000FF000
007FFC00
01FFFF00
03FFFF80
07F03FC0
0FC007E0
1F8003F0
3F0001F8
3E0000F8
3E0000FC
7C00007C
7C00007C
7800007C
F800003E
F800003E
F800003E
F800003E
F800003E
F800003E
F800003E
F800003E
F800003E
F800003E
F800003E
7C00007C
7C00007C
7C00007C
3E0000F8
3E0000F8
1F0001F0
1F8003F0
0FC007E0
07F81FC0
03FFFF80
01FFFF00
007FFC00
001FE000
ENDCHAR
STARTCHAR 0050
ENCODING 80
SWIDTH 558 0
DWIDTH 31 0
BBX 24 37 5 0
BITMAP
FFFF00
FFFFE0
FFFFF8
FFFFFC
F801FC
F8007E
F8003E
F8001F
F8001F
F8001F
F8001F
F8001F
F8001F
F8001F
F8001F
F8003E
F8007E
F801FC
FFFFF8
FFFFF0
FFFFC0
FFFE00
F80000
F80000
F80000
F80000
F80000
F80000
F80000
F80000
F80000
F80000
F80000
F80000
F80000
F80000
F80000
ENDCHAR
STARTCHAR 0051
ENCODING 81
SWIDTH 666 0
DWIDTH 37 0
BBX 32 46 3 -9
BITMAP
000FF000
007FFC00
01FFFF00
03FFFF80
07F03FC0
0FC007E0
1F8003F0
3F0001F8
3E0000F8
3E0000FC
7C00007C
7C00007C
7800007C
F800003E
F800003E
F800003E
F800003E
F800003E
F800003E
F800003E
F800003E
F800003E
F800003E
F800003E
7800003C
7C00007C
7C00007C
7E0000F8
3E0000F8
3F0001F0
1F8003F0
0FC007E0
07E00FC0
07FFFF80
01FFFF00
00FFFE00
001FF000
0007C000
0003E000
0003F000
0001F800
0000FF00
00007FFE
00003FFE
00000FFF
000001FC
ENDCHAR
STARTCHAR 0052
ENCODING 82
SWIDTH 576 0
DWIDTH 32 0
BBX 25 37 5 0
BITMAP
FFFF0000
FFFFE000
FFFFF800
FFFFFC00
F800FE00
F8003E00
F8001F00
F8001F00
F8001F00
F8000F00
F8000F00
F8001F00
F8001F00
F8001F00
F8003E00
F8007E00
F801FC00
FFFFF800
FFFFF000
FFFFE000
FFFF0000
F81F8000
F80F8000
F807C000
F807C000
F803E000
F803E000
F801F000
F801F000
F800F800
F800FC00
F8007C00
F8003E00
F8003E00
F8001F00
F8001F00
F8000F80
ENDCHAR
STARTCHAR 0053
ENCODING 83
SWIDTH 540 0
DWIDTH 30 0
BBX 26 37 2 0
BITMAP
003F8000
01FFF000
03FFFC00
07FFFE00
0FE07F00
1F801E00
1F000600
3E000000
3E000000
3E000000
3E000000
3E000000
1F000000
1F800000
0FE00000
0FFC0000
03FF0000
01FFC000
007FF800
001FFC00
0003FE00
0000FF00
00003F80
00001F80
00000F80
00000780
000007C0
000007C0
00000780
30000F80
7C000F80
FE001F00
7FC07F00
3FFFFE00
0FFFFC00
03FFF000
007F8000
ENDCHAR
STARTCHAR 0054
ENCODING 84
SWIDTH 540 0
DWIDTH 30 0
BBX 26 37 2 0
BITMAP
FFFFFFC0
FFFFFFC0
FFFFFFC0
FFFFFFC0
001E0000
001E0000
001E0000
001E0000
001E0000
001E0000
001E0000
001E0000
001E0000
001E0000
001E0000
001E0000
001E0000
001E0000
001E0000
001E0000
001E0000
001E0000
001E0000
001E0000
001E0000
001E0000
001E0000
001E0000
001E0000
001E0000
001E0000
001E0000
001E0000
001E0000
001E0000
001E0000
001E0000
ENDCHAR
STARTCHAR 0055
ENCODING 85
SWIDTH 648 0
DWIDTH 36 0
BBX 26 37 5 0
BITMAP
F00003C0
F00003C0
F00003C0
F00003C0
F00003C0
F00003C0
F00003C0
F00003C0
F00003C0
F00003C0
F00003C0
F00003C0
F00003C0
F00003C0
F00003C0
F00003C0
F00003C0
F00003C0
F00003C0
F00003C0
F00003C0
F00003C0
F00003C0
F80003C0
F80007C0
F80007C0
F80007C0
78000780
7C000F80
7C000F80
3E001F00
3F003F00
1FC0FE00
0FFFFC00
07FFF800
03FFF000
007F8000
ENDCHAR
STARTCHAR 0056
ENCODING 86
SWIDTH 522 0
DWIDTH 29 0
BBX 28 37 0 0
BITMAP
F80000F0
F80001F0
7C0001F0
7C0001F0
7C0001E0
3E0003E0
3E0003E0
3E0003C0
1E0007C0
1F0007C0
1F000780
0F000780
0F800F80
0F800F00
07800F00
07801F00
07C01E00
07C01E00
03C03E00
03E03E00
03E03C00
01E03C00
01F07C00
01F07800
00F07800
00F07800
00F8F000
0078F000
0078F000
007DE000
003DE000
003DE000
003FC000
001FC000
001FC000
001FC000
001F8000
ENDCHAR
STARTCHAR 0057
ENCODING 87
SWIDTH 792 0
DWIDTH 44 0
BBX 41 37 1 0
BITMAP
F8001E000780
78003E000780
7C003F000F80
7C003F000F80
7C003F000F00
7C007F000F00
3C007F800F00
3C0077801F00
3E0077801F00
3E00F3801E00
3E00F3C01E00
1E00F3C01E00
1E00E3C01E00
1F01E3C03E00
1F01E1E03C00
1F01E1E03C00
0F01C1E03C00
0F03C1E03C00
0F83C0F07C00
0F83C0F07800
078380F07800
078380F07800
078780787800
07C78078F800
07C78078F000
03C70078F000
03CF003CF000
03CF003CF000
03CF003CF000
03EE003DE000
01EE001DE000
01FE001FE000
01FE001FE000
01FC001FC000
01FC000FC000
00FC000FC000
00FC000FC000
ENDCHAR
STARTCHAR 0058
ENCODING 88
SWIDTH 522 0
DWIDTH 29 0
BBX 26 37 1 0
BITMAP
7C0007C0
7C000F80
3E000F80
3E001F00
1F001F00
0F803E00
0F803C00
07C07C00
07C07800
03E0F800
03E0F000
01F1F000
01F1E000
00FBE000
007BC000
007F8000
003F8000
003F0000
003F0000
003F8000
007F8000
00FFC000
00F3E000
01F3E000
01E1F000
03E1F000
03C0F800
07C0F800
07807C00
0F803C00
1F003E00
1F001F00
3E001F00
3E000F80
7C000F80
7C0007C0
F80007C0
ENDCHAR
STARTCHAR 0059
ENCODING 89
SWIDTH 468 0
DWIDTH 26 0
BBX 26 37 0 0
BITMAP
F80007C0
7C0007C0
7C000780
3C000F80
3E000F00
1E001F00
1F001E00
0F003E00
0F803C00
0F807C00
07C07800
07C07800
03E0F000
03E0F000
01E1F000
01F1E000
00F3E000
00FBC000
007FC000
007F8000
003F8000
003F0000
001F0000
001F0000
001F0000
001F0000
001F0000
001F0000
001F0000
001F0000
001F0000
001F0000
001F0000
001F0000
001F0000
001F0000
001F0000
ENDCHAR
STARTCHAR 005A
ENCODING 90
SWIDTH 540 0
DWIDTH 30 0
BBX 25 37 3 0
BITMAP
7FFFFF00
7FFFFF00
7FFFFF00
7FFFFF00
00003E00
00003E00
00007C00
0000F800
0000F800
0001F000
0003F000
0003E000
0007C000
0007C000
000F8000
001F0000
001F0000
003E0000
007C0000
007C0000
00F80000
00F80000
01F00000
03E00000
03E00000
07C00000
0F800000
0F800000
1F000000
3E000000
3E000000
7C000000
7C000000
FFFFFF80
FFFFFF80
FFFFFF80
FFFFFF80
ENDCHAR
STARTCHAR 005B
ENCODING 91
SWIDTH 306 0
DWIDTH 17 0
BBX 10 49 5 -9
BITMAP
FFC0
FFC0
FFC0
F000
F000
F000
F000
F000
F000
F000
F000
F000
F000
F000
F000
F000
F000
F000
F000
F000
F000
F000
F000
F000
F000
F000
F000
F000
F000
F000
F000
F000
F000
F000
F000
F000
F000
F000
F000
F000
F000
F000
F000
F000
F000
F000
FFC0
FFC0
FFC0
ENDCHAR
STARTCHAR 005C
ENCODING 92
SWIDTH 342 0
DWIDTH 19 0
BBX 18 48 1 -9
BITMAP
E00000
F00000
700000
700000
780000
380000
380000
380000
3C0000
1C0000
1C0000
1E0000
0E0000
0E0000
0F0000
070000
070000
078000
038000
038000
038000
03C000
01C000
01C000
01E000
00E000
00E000
00F000
007000
007000
007800
003800
003800
003800
003C00
001C00
001C00
001E00
000E00
000E00
000F00
000700
000700
000780
000380
000380
000380
0003C0
ENDCHAR
STARTCHAR 005D
ENCODING 93
SWIDTH 306 0
DWIDTH 17 0
BBX 10 49 2 -9
BITMAP
FFC0
FFC0
FFC0
03C0
03C0
03C0
03C0
03C0
03C0
03C0
03C0
03C0
03C0
03C0
03C0
03C0
03C0
03C0
03C0
03C0
03C0
03C0
03C0
03C0
03C0
03C0
03C0
03C0
03C0
03C0
03C0
03C0
03C0
03C0
03C0
03C0
03C0
03C0
03C0
03C0
03C0
03C0
03C0
03C0
03C0
03C0
FFC0
FFC0
FFC0
ENDCHAR
STARTCHAR 005E
ENCODING 94
SWIDTH 504 0
DWIDTH 28 0
BBX 20 21 4 16
BITMAP
01F000
01F800
01F800
03F800
03FC00
03BC00
079E00
071E00
0F0E00
0F0F00
0E0F00
1E0700
1E0780
3C0780
3C03C0
3803C0
7801C0
7801E0
F001E0
F000F0
F000F0
ENDCHAR
STARTCHAR 005F
ENCODING 95
SWIDTH 504 0
DWIDTH 28 0
BBX 26 3 1 -7
BITMAP
FFFFFFC0
FFFFFFC0
FFFFFFC0
ENDCHAR
STARTCHAR 0060
ENCODING 96
SWIDTH 540 0
DWIDTH 30 0
BBX 11 11 7 33
BITMAP
3000
7800
FC00
7E00
3F00
1F00
0F80
07C0
03E0
01C0
0080
ENDCHAR
STARTCHAR 0061
ENCODING 97
SWIDTH 504 0
DWIDTH 28 0
BBX 21 27 3 0
BITMAP
00FE00
07FF80
1FFFC0
7FFFE0
3E03F0
3801F0
0000F8
0000F8
0000F8
0000F8
0001F8
003FF8
03FFF8
0FF8F8
1F80F8
3E00F8
7800F8
F800F8
F000F8
F000F8
F800F8
F803F8
FC07F8
7FFF78
3FFE78
1FF878
07E078
ENDCHAR
STARTCHAR 0062
ENCODING 98
SWIDTH 558 0
DWIDTH 31 0
BBX 23 40 5 0
BITMAP
F00000
F00000
F00000
F00000
F00000
F00000
F00000
F00000
F00000
F00000
F00000
F00000
F00000
F03F00
F1FFC0
F3FFE0
FFFFF0
FF01F8
FC00FC
F8007C
F0007C
F0003E
F0003E
F0003E
F0003E
F0003E
F0003E
F0003E
F0003E
F0003E
F0003E
F0007C
F0007C
F000FC
FC01F8
FF03F0
FFFFE0
F7FFC0
E3FF80
E07E00
ENDCHAR
STARTCHAR 0063
ENCODING 99
SWIDTH 450 0
DWIDTH 25 0
BBX 21 27 3 0
BITMAP
007F00
03FFC0
07FFF0
0FFFF0
1F80E0
3F0060
7E0000
7C0000
F80000
F80000
F80000
F00000
F00000
F00000
F00000
F00000
F80000
F80000
F80000
7C0000
7E0000
3F0030
3F80F0
1FFFF8
0FFFF0
03FFC0
00FF00
ENDCHAR
STARTCHAR 0064
ENCODING 100
SWIDTH 558 0
DWIDTH 31 0
BBX 23 40 3 0
BITMAP
00001E
00001E
00001E
00001E
00001E
00001E
00001E
00001E
00001E
00001E
00001E
00001E
00001E
00FE1E
03FF9E
07FFDE
1FFFFE
1F81FE
3F007E
7E001E
7C001E
78001E
F8001E
F8001E
F0001E
F0001E
F0001E
F0001E
F0001E
F8001E
F8001E
F8001E
FC001E
7C003E
7E007E
3F81FE
1FFFFE
0FFF9E
07FF1E
01FC1E
ENDCHAR
STARTCHAR 0065
ENCODING 101
SWIDTH 504 0
DWIDTH 28 0
BBX 22 27 3 0
BITMAP
007E00
03FFC0
07FFE0
0FFFF0
1F01F8
3E00F8
7C007C
78003C
78003C
F0003C
F0003C
F0003C
FFFFFC
FFFFFC
FFFFFC
F00000
F00000
F80000
F80000
7C0000
7C0000
3E0000
3F8030
1FFFF8
07FFF8
03FFE0
007F00
ENDCHAR
STARTCHAR 0066
ENCODING 102
SWIDTH 288 0
DWIDTH 16 0
BBX 16 40 2 0
BITMAP
00FE
03FF
07FE
07FE
0F80
0F80
0F00
1F00
1F00
1F00
1F00
1F00
1F00
FFFC
FFFC
FFFC
FFFC
1F00
1F00
1F00
1F00
1F00
1F00
1F00
1F00
1F00
1F00
1F00
1F00
1F00
1F00
1F00
1F00
1F00
1F00
1F00
1F00
1F00
1F00
1F00
ENDCHAR
STARTCHAR 0067
ENCODING 103
SWIDTH 504 0
DWIDTH 28 0
BBX 24 39 3 -12
BITMAP
01FFFF
07FFFF
0FFFFF
1FCFFF
3E03E0
7C01F0
7800F0
7800F0
7800F8
7800F8
7800F0
7800F0
7C01F0
3E01E0
1F07E0
0FFFC0
1FFF00
3DFC00
380000
780000
780000
780000
7C0000
3FFFC0
3FFFFC
1FFFFE
3FFFFF
7C003F
78001F
F0000F
F0000F
F0000F
F0001F
F0003E
F8007E
7F03FC
3FFFF0
1FFFC0
03FE00
ENDCHAR
STARTCHAR 0068
ENCODING 104
SWIDTH 540 0
DWIDTH 30 0
BBX 21 40 5 0
BITMAP
F00000
F00000
F00000
F00000
F00000
F00000
F00000
F00000
F00000
F00000
F00000
F00000
F00000
F03F00
F0FFC0
F3FFE0
F7FFF0
FF83F0
FE01F8
FC00F8
F800F8
F000F8
F00078
F00078
F00078
F00078
F00078
F00078
F00078
F00078
F00078
F00078
F00078
F00078
F00078
F00078
F00078
F00078
F00078
F00078
ENDCHAR
STARTCHAR 0069
ENCODING 105
SWIDTH 252 0
DWIDTH 14 0
BBX 6 39 4 0
BITMAP
78
FC
FC
FC
FC
78
00
00
00
00
00
00
78
78
78
78
78
78
78
78
78
78
78
78
78
78
78
78
78
78
78
78
78
78
78
78
78
78
78
ENDCHAR
STARTCHAR 006A
ENCODING 106
SWIDTH 252 0
DWIDTH 14 0
BBX 12 50 -2 -11
BITMAP
01E0
03F0
03F0
03F0
03F0
01E0
0000
0000
0000
0000
0000
0000
01E0
01E0
01E0
01E0
01E0
01E0
01E0
01E0
01E0
01E0
01E0
01E0
01E0
01E0
01E0
01E0
01E0
01E0
01E0
01E0
01E0
01E0
01E0
01E0
01E0
01E0
01E0
01E0
01E0
01E0
01E0
03E0
03E0
03E0
7FC0
FFC0
FF80
FE00
ENDCHAR
STARTCHAR 006B
ENCODING 107
SWIDTH 504 0
DWIDTH 28 0
BBX 22 40 5 0
BITMAP
F00000
F00000
F00000
F00000
F00000
F00000
F00000
F00000
F00000
F00000
F00000
F00000
F00000
F001F0
F001F0
F003E0
F007C0
F00F80
F01F00
F03E00
F03E00
F07C00
F0F800
F1F000
F3F000
F3F800
F7F800
FFFC00
FF3E00
FE1E00
FC1F00
F80F80
F00F80
F007C0
F003E0
F003E0
F001F0
F001F0
F000F8
F0007C
ENDCHAR
STARTCHAR 006C
ENCODING 108
SWIDTH 252 0
DWIDTH 14 0
BBX 7 40 5 0
BITMAP
F0
F0
F0
F0
F0
F0
F0
F0
F0
F0
F0
F0
F0
F0
F0
F0
F0
F0
F0
F0
F0
F0
F0
F0
F0
F0
F0
F0
F0
F0
F0
F0
F0
F0
F0
F0
FC
FE
7E
3E
ENDCHAR
STARTCHAR 006D
ENCODING 109
SWIDTH 828 0
DWIDTH 46 0
BBX 37 27 5 0
BITMAP
E03E003F00
E0FF80FFC0
F3FFC1FFE0
F7FFE7FFE0
FF87FF83F0
FE01FE01F0
FC01FC00F8
F800F800F8
F000F800F8
F000F800F8
F000F800F8
F000F800F8
F000F800F8
F000F800F8
F000F800F8
F000F800F8
F000F800F8
F000F800F8
F000F800F8
F000F800F8
F000F800F8
F000F800F8
F000F800F8
F000F800F8
F000F800F8
F000F800F8
F000F800F8
ENDCHAR
STARTCHAR 006E
ENCODING 110
SWIDTH 540 0
DWIDTH 30 0
BBX 21 27 5 0
BITMAP
E03F00
E0FFC0
F3FFE0
F7FFF0
FF83F0
FE01F8
FC00F8
F800F8
F000F8
F00078
F00078
F00078
F00078
F00078
F00078
F00078
F00078
F00078
F00078
F00078
F00078
F00078
F00078
F00078
F00078
F00078
F00078
ENDCHAR
STARTCHAR 006F
ENCODING 111
SWIDTH 540 0
DWIDTH 30 0
BBX 25 27 3 0
BITMAP
007F0000
03FFC000
07FFF000
1FFFF800
1F81FC00
3E007C00
7C003E00
7C003E00
F8001F00
F8001F00
F8000F00
F0000F00
F0000F80
F0000F80
F0000F80
F0000F00
F8000F00
F8001F00
F8001F00
7C003E00
7C003E00
3E007C00
3F81FC00
1FFFF800
07FFF000
03FFC000
00FE0000
ENDCHAR
STARTCHAR 0070
ENCODING 112
SWIDTH 558 0
DWIDTH 31 0
BBX 23 38 5 -11
BITMAP
E03F00
E1FFC0
F3FFE0
FFFFF0
FF01F8
FC00FC
F8007C
F0007C
F0003E
F0003E
F0003E
F0003E
F0003E
F0003E
F0003E
F0003E
F0003E
F0003E
F0007C
F0007C
F000FC
FC01F8
FF03F0
FFFFE0
F7FFC0
F3FF80
F07E00
F00000
F00000
F00000
F00000
F00000
F00000
F00000
F00000
F00000
F00000
F00000
ENDCHAR
STARTCHAR 0071
ENCODING 113
SWIDTH 558 0
DWIDTH 31 0
BBX 23 38 3 -11
BITMAP
00FE0E
03FF9E
07FFDE
1FFFFE
1F81FE
3F007E
7E001E
7C001E
F8001E
F8001E
F8001E
F0001E
F0001E
F0001E
F0001E
F0001E
F8001E
F8001E
F8001E
7C001E
7C003E
7E007E
3F81FE
1FFFFE
0FFF9E
07FF1E
01FC1E
00001E
00001E
00001E
00001E
00001E
00001E
00001E
00001E
00001E
00001E
00001E
ENDCHAR
STARTCHAR 0072
ENCODING 114
SWIDTH 342 0
DWIDTH 19 0
BBX 14 27 5 0
BITMAP
E07C
E1FC
F3FC
F7FC
F784
FE00
FC00
FC00
F800
F000
F000
F000
F000
F000
F000
F000
F000
F000
F000
F000
F000
F000
F000
F000
F000
F000
F000
ENDCHAR
STARTCHAR 0073
ENCODING 115
SWIDTH 414 0
DWIDTH 23 0
BBX 20 27 2 0
BITMAP
01FC00
0FFF00
1FFFC0
3FFFC0
3E0380
7C0080
780000
780000
7C0000
7E0000
3F0000
1FE000
0FFC00
03FF00
00FF80
001FC0
0007E0
0003E0
0001E0
0001F0
0001E0
6001E0
F807E0
FFFFC0
7FFF80
1FFF00
03F800
ENDCHAR
STARTCHAR 0074
ENCODING 116
SWIDTH 342 0
DWIDTH 19 0
BBX 17 35 1 0
BITMAP
078000
078000
078000
078000
078000
078000
078000
078000
FFFF00
FFFF00
FFFF00
FFFF00
0F8000
0F8000
0F8000
0F8000
0F8000
0F8000
0F8000
0F8000
0F8000
0F8000
0F8000
0F8000
0F8000
0F8000
0F8000
0F8000
0F8000
07C000
07C000
07FF00
03FF80
01FF80
007E00
ENDCHAR
STARTCHAR 0075
ENCODING 117
SWIDTH 540 0
DWIDTH 30 0
BBX 22 27 4 0
BITMAP
F8007C
F8007C
F8007C
F8007C
F8007C
F8007C
F8007C
F8007C
F8007C
F8007C
F8007C
F8007C
F8007C
F8007C
F8007C
F8007C
F8007C
F8007C
F8007C
F800FC
7C01FC
7C03FC
7E07BC
3FFF3C
3FFE3C
1FFC3C
07E03C
ENDCHAR
STARTCHAR 0076
ENCODING 118
SWIDTH 468 0
DWIDTH 26 0
BBX 24 27 1 0
BITMAP
F8000F
F8001F
78001E
7C001E
7C003E
3C003C
3E003C
3E007C
1E0078
1F0078
1F00F8
0F00F0
0F80F0
0781E0
0781E0
07C1E0
03C3C0
03C3C0
03E3C0
01E780
01E780
01E780
00FF00
00FF00
00FF00
007E00
007E00
ENDCHAR
STARTCHAR 0077
ENCODING 119
SWIDTH 720 0
DWIDTH 40 0
BBX 37 27 1 0
BITMAP
F800780078
7800FC0078
7C00FC0078
7C00FC00F8
3C00FE00F0
3C01FE00F0
3E01DE00F0
3E01CE01F0
1E01CF01E0
1E03CF01E0
1F03CF01E0
0F038703C0
0F078783C0
0F078783C0
0F870783C0
0787038780
078F03C780
078F03C780
07CE03C780
03CE01EF00
03DE01EF00
03DE01EF00
01DC00EF00
01FC00FE00
01FC00FE00
01FC00FE00
00F8007C00
ENDCHAR
STARTCHAR 0078
ENCODING 120
SWIDTH 450 0
DWIDTH 25 0
BBX 23 27 1 0
BITMAP
7C007C
7C0078
3E00F8
1F00F0
1F01F0
0F81E0
0783C0
07C7C0
03E780
03EF80
01FF00
00FE00
00FE00
00FC00
00FE00
01FF00
03EF00
03CF80
0787C0
0F87C0
0F03E0
1F01E0
1E01F0
3E00F8
7C00F8
78007C
F8003E
ENDCHAR
STARTCHAR 0079
ENCODING 121
SWIDTH 468 0
DWIDTH 26 0
BBX 24 38 1 -11
BITMAP
F8000F
F8001F
78001E
7C001E
7C003E
3C003C
3E003C
1E007C
1F0078
0F0078
0F00F8
0F80F0
0780F0
0781E0
03C1E0
03C1E0
03E3C0
01E3C0
01E3C0
00F380
00F780
00F780
007F00
007F00
003F00
003E00
003E00
003E00
003C00
003C00
007800
007800
00F000
01F000
3FE000
7FC000
7F8000
7E0000
ENDCHAR
STARTCHAR 007A
ENCODING 122
SWIDTH 432 0
DWIDTH 24 0
BBX 20 27 2 0
BITMAP
7FFFF0
7FFFF0
7FFFF0
7FFFE0
0007C0
0007C0
000F80
001F00
001F00
003E00
007C00
007C00
00F800
01F000
01E000
03E000
07C000
078000
0F8000
1F0000
3E0000
3E0000
7C0000
FFFFF0
FFFFF0
FFFFF0
FFFFF0
ENDCHAR
STARTCHAR 007B
ENCODING 123
SWIDTH 306 0
DWIDTH 17 0
BBX 13 49 2 -9
BITMAP
0038
03F8
07F8
0780
0700
0F00
0F00
0F00
0F00
0F00
0F00
0F00
0F00
0F00
0F00
0700
0700
0700
0700
0700
0F00
0F00
1E00
FE00
F800
FE00
3E00
0F00
0F00
0700
0700
0700
0700
0700
0F00
0F00
0F00
0F00
0F00
0F00
0F00
0F00
0F00
0F00
0F80
0780
07F8
03F8
0038
ENDCHAR
STARTCHAR 007C
ENCODING 124
SWIDTH 234 0
DWIDTH 13 0
BBX 3 56 5 -14
BITMAP
E0
E0
E0
E0
E0
E0
E0
E0
E0
E0
E0
E0
E0
E0
E0
E0
E0
E0
E0
E0
E0
E0
E0
E0
E0
E0
E0
E0
E0
E0
E0
E0
E0
E0
E0
E0
E0
E0
E0
E0
E0
E0
E0
E0
E0
E0
E0
E0
E0
E0
E0
E0
E0
E0
E0
E0
ENDCHAR
STARTCHAR 007D
ENCODING 125
SWIDTH 306 0
DWIDTH 17 0
BBX 13 49 2 -9
BITMAP
E000
FE00
FF00
1F00
0F00
0780
0780
0780
0780
0780
0780
0780
0700
0700
0700
0700
0700
0700
0700
0700
0700
0780
07C0
03F8
00F8
03F8
03C0
0780
0780
0700
0700
0700
0700
0700
0700
0700
0700
0780
0780
0780
0780
0780
0780
0780
0F00
1F00
FF00
FE00
E000
ENDCHAR
STARTCHAR 007E
ENCODING 126
SWIDTH 504 0
DWIDTH 28 0
BBX 23 7 2 15
BITMAP
0FC000
3FF004
7FF80E
787E1E
F03FFC
600FF8
0007F0
ENDCHAR
STARTCHAR 00A0
ENCODING 160
SWIDTH 198 0
DWIDTH 11 0
BBX 0 0 0 0
BITMAP
ENDCHAR
STARTCHAR 00A1
ENCODING 161
SWIDTH 288 0
DWIDTH 16 0
BBX 6 38 5 -11
BITMAP
78
FC
FC
FC
FC
FC
78
00
00
00
00
00
78
78
78
78
78
78
78
78
78
78
78
78
78
78
78
78
78
78
78
78
78
78
78
78
78
78
ENDCHAR
STARTCHAR 00A2
ENCODING 162
SWIDTH 504 0
DWIDTH 28 0
BBX 22 39 3 -2
BITMAP
000C00
000C00
000C00
000C00
000C00
000C00
001F00
00FFE0
03FFF8
07FFFC
0FECF8
1F8C30
3F0C00
3E0C00
7C0C00
7C0C00
780C00
780C00
F80C00
F80C00
F80C00
F80C00
780C00
7C0C00
7C0C00
7E0C00
3E0C00
3F0C18
1FCC7C
0FFFFC
07FFF8
01FFE0
007F80
000C00
000C00
000C00
000C00
000C00
000C00
ENDCHAR
STARTCHAR 00A3
ENCODING 163
SWIDTH 504 0
DWIDTH 28 0
BBX 22 36 3 0
BITMAP
003F80
00FFE0
03FFF8
07FFFC
07E07C
0F8038
0F8010
1F0000
1F0000
1F0000
1F0000
1F0000
1F0000
0F0000
0F0000
0F8000
078000
FFFFC0
FFFFC0
FFFFC0
03C000
03C000
03C000
03C000
03C000
03C000
07C000
078000
078000
0F0000
1F0000
3E0000
7FFFFC
FFFFFC
FFFFFC
FFFFFC
ENDCHAR
STARTCHAR 00A4
ENCODING 164
SWIDTH 504 0
DWIDTH 28 0
BBX 24 25 2 6
BITMAP
000004
60000E
F07E1F
F9FFBE
7FFFFC
3FE7F8
1F01F8
3E00F8
3C007C
7C003C
7C003C
78003E
78003E
78003E
78003C
7C003C
3C003C
3E007C
1F00F8
1F83F8
3FFFFC
7BFFFE
F0FF1F
E0000E
400004
ENDCHAR
STARTCHAR 00A5
ENCODING 165
SWIDTH 504 0
DWIDTH 28 0
BBX 24 36 2 0
BITMAP
F0001F
F8001F
F8001E
7C003E
7C003C
3C007C
3E0078
1E00F8
1F00F0
0F01F0
0F81E0
0781E0
07C3C0
03C3C0
03C780
01E780
01EF00
00FF00
FFFFFE
FFFFFE
FFFFFE
007C00
007C00
007C00
FFFFFE
FFFFFE
FFFFFE
007C00
007C00
007C00
007C00
007C00
007C00
007C00
007C00
007C00
ENDCHAR
STARTCHAR 00A6
ENCODING 166
SWIDTH 234 0
DWIDTH 13 0
BBX 3 56 5 -14
BITMAP
E0
E0
E0
E0
E0
E0
E0
E0
E0
E0
E0
E0
E0
E0
E0
E0
E0
E0
E0
E0
E0
E0
E0
E0
E0
E0
00
00
00
00
E0
E0
E0
E0
E0
E0
E0
E0
E0
E0
E0
E0
E0
E0
E0
E0
E0
E0
E0
E0
E0
E0
E0
E0
E0
E0
ENDCHAR
STARTCHAR 00A7
ENCODING 167
SWIDTH 504 0
DWIDTH 28 0
BBX 22 42 3 -4
BITMAP
00FE00
03FF80
0FFFE0
0FFFE0
1F01C0
1E00C0
1E0000
1E0000
1E0000
1F0000
1F8000
0FE000
1FF800
3FFE00
7CFF80
F83FE0
F007F0
F003F8
F000F8
F0007C
F0003C
F8003C
FC003C
7E003C
3F803C
1FE078
0FF8F8
03FFF0
00FFE0
003F80
000FC0
0003E0
0003E0
0001E0
0001E0
1001E0
3803E0
7E07C0
7FFF80
1FFF00
07FE00
006000
ENDCHAR
STARTCHAR 00A8
ENCODING 168
SWIDTH 540 0
DWIDTH 30 0
BBX 16 6 7 32
BITMAP
700E
F81F
F81F
F81F
F81F
2004
ENDCHAR
STARTCHAR 00A9
ENCODING 169
SWIDTH 738 0
DWIDTH 41 0
BBX 36 37 3 0
BITMAP
0003FC0000
003FFF8000
00FE0FE000
01F000F800
03C0003C00
0700001E00
0E00000F00
1C00000700
3801F80380
3807FE01C0
701FFF81C0
703F0780E0
603C0300E0
E0780000E0
E078000060
E0F0000060
C0F0000070
C0F0000070
C0F0000070
C0F0000070
E0F0000070
E0F0000060
E078000060
E0780000E0
603C0180E0
703F0780C0
701FFF81C0
3807FE0180
3C01F80380
1C00000700
0E00000E00
0780001E00
03C0003C00
01F000F000
00FF1FE000
003FFF8000
0007FC0000
ENDCHAR
STARTCHAR 00AA
ENCODING 170
SWIDTH 342 0
DWIDTH 19 0
BBX 15 19 2 21
BITMAP
07E0
3FF8
7FF8
703C
001C
001C
001E
01FE
0FFE
3F1E
781E
F01E
F01E
E01E
F03E
F87E
7FFE
3F8E
0E00
ENDCHAR
STARTCHAR 00AB
ENCODING 171
SWIDTH 432 0
DWIDTH 24 0
BBX 18 20 3 5
BITMAP
030180
078380
0F0780
1E0F00
1C1E00
3C3C00
783C00
F07800
E0F000
E0E000
E0F000
F0F800
F87800
783C00
3C1E00
1E0F00
0F0700
070380
0383C0
010100
ENDCHAR
STARTCHAR 00AC
ENCODING 172
SWIDTH 504 0
DWIDTH 28 0
BBX 24 14 2 6
BITMAP
FFFFFF
FFFFFF
FFFFFF
00000F
00000F
00000F
00000F
00000F
00000F
00000F
00000F
00000F
00000F
00000F
ENDCHAR
STARTCHAR 00AD
ENCODING 173
SWIDTH 306 0
DWIDTH 17 0
BBX 13 4 2 12
BITMAP
FFF8
FFF8
FFF8
FFF8
ENDCHAR
STARTCHAR 00AE
ENCODING 174
SWIDTH 432 0
DWIDTH 24 0
BBX 21 22 1 18
BITMAP
00FC00
07FF00
0F07C0
1C01E0
380060
31F870
71FE30
618E38
618618
E18618
E18E18
E1FC18
E1F818
E18C18
618E38
618630
318730
380060
1C00E0
0F03C0
07FF00
01FC00
ENDCHAR
STARTCHAR 00AF
ENCODING 175
SWIDTH 540 0
DWIDTH 30 0
BBX 14 3 8 34
BITMAP
FFFC
FFFC
FFFC
ENDCHAR
STARTCHAR 00B0
ENCODING 176
SWIDTH 324 0
DWIDTH 18 0
BBX 14 14 2 24
BITMAP
07C0
1FF0
3FF8
7838
701C
E01C
E01C
E01C
E01C
701C
7838
3FF8
1FF0
07C0
ENDCHAR
STARTCHAR 00B1
ENCODING 177
SWIDTH 504 0
DWIDTH 28 0
BBX 24 31 2 0
BITMAP
003C00
003C00
003C00
003C00
003C00
003C00
003C00
003C00
003C00
003C00
003C00
FFFFFF
FFFFFF
FFFFFF
003C00
003C00
003C00
003C00
003C00
003C00
003C00
003C00
003C00
003C00
000000
000000
000000
000000
FFFFFF
FFFFFF
FFFFFF
ENDCHAR
STARTCHAR 00B2
ENCODING 178
SWIDTH 360 0
DWIDTH 20 0
BBX 15 22 3 22
BITMAP
0FC0
3FE0
7FF0
F0F8
E078
403C
003C
003C
0038
0038
0078
0070
00F0
01E0
03C0
0780
0F00
1E00
3C00
7FFE
FFFE
FFFE
ENDCHAR
STARTCHAR 00B3
ENCODING 179
SWIDTH 360 0
DWIDTH 20 0
BBX 16 23 2 21
BITMAP
07E0
1FF8
3FFC
783C
301E
001E
001E
001E
003C
0078
07F0
07F0
00FC
001E
000E
000F
000F
600F
F01E
7C3E
3FFC
1FF8
07C0
ENDCHAR
STARTCHAR 00B4
ENCODING 180
SWIDTH 540 0
DWIDTH 30 0
BBX 11 11 12 33
BITMAP
0180
03C0
07E0
0FC0
0F80
1F00
3E00
7C00
F800
7000
2000
ENDCHAR
STARTCHAR 00B5
ENCODING 181
SWIDTH 558 0
DWIDTH 31 0
BBX 25 37 5 -9
BITMAP
F000F800
F000F800
F000F800
F000F800
F000F800
F000F800
F000F800
F000F800
F000F800
F000F800
F000F800
F000F800
F000F800
F000F800
F000F800
F000F800
F000F800
F000F800
F000F800
F000F800
F801F800
F801F800
F803F800
FC0F7800
FFFE7F00
FFFE7F00
F7F83F80
F3F01F00
F0000000
F0000000
F0000000
F0000000
F0000000
F0000000
F0000000
F0000000
F0000000
ENDCHAR
STARTCHAR 00B6
ENCODING 182
SWIDTH 558 0
DWIDTH 31 0
BBX 24 41 2 -4
BITMAP
007F1F
03FF1F
0FFF1F
1FFF1F
3FFF1F
3FFF1F
7FFF1F
7FFF1F
7FFF1F
FFFF1F
FFFF1F
FFFF1F
FFFF1F
FFFF1F
FFFF1F
7FFF1F
7FFF1F
7FFF1F
3FFF1F
1FFF1F
0FFF1F
07FF1F
01FF1F
003F1F
00001F
00001F
00001F
00001F
00001F
00001F
00001F
00001F
00001F
00001F
00001F
00001F
00001F
00001F
00001F
00001F
00001F
ENDCHAR
STARTCHAR 00B7
ENCODING 183
SWIDTH 252 0
DWIDTH 14 0
BBX 6 7 4 14
BITMAP
78
FC
FC
FC
FC
FC
78
ENDCHAR
STARTCHAR 00B8
ENCODING 184
SWIDTH 540 0
DWIDTH 30 0
BBX 10 13 10 -12
BITMAP
0E00
0E00
1C00
1C00
3E00
3F80
0780
03C0
03C0
03C0
0F80
FF00
F800
ENDCHAR
STARTCHAR 00B9
ENCODING 185
SWIDTH 360 0
DWIDTH 20 0
BBX 8 22 5 22
BITMAP
07
0F
7F
FF
FF
07
07
07
07
07
07
07
07
07
07
07
07
07
07
07
07
07
ENDCHAR
STARTCHAR 00BA
ENCODING 186
SWIDTH 360 0
DWIDTH 20 0
BBX 17 19 2 21
BITMAP
07E000
1FF800
3FFC00
7C3E00
780F00
F00F00
F00700
E00700
E00780
E00780
E00780
E00700
F00700
F00F00
781E00
7C3E00
3FFC00
1FF800
03C000
ENDCHAR
STARTCHAR 00BB
ENCODING 187
SWIDTH 432 0
DWIDTH 24 0
BBX 18 20 3 5
BITMAP
607000
F07800
783C00
3C1C00
1E1E00
1E0F00
0F0780
0783C0
03C3C0
03C1C0
03C1C0
0783C0
0F8780
0F0F00
1E0F00
3C1E00
783C00
707800
E07000
402000
ENDCHAR
STARTCHAR 00BC
ENCODING 188
SWIDTH 774 0
DWIDTH 43 0
BBX 38 38 4 0
BITMAP
0000003800
0F00007800
3F00007000
FF0000F000
FF0000E000
FF0001C000
0F0001C000
0F00038000
0F00038000
0F00070000
0F00070000
0F000E0000
0F000E0000
0F001C0000
0F001C0000
0F00380000
0F007803C0
0F007007C0
0F00F007C0
0F00E00FC0
0F01C01DC0
0F01C01DC0
0F038039C0
00038039C0
00070071C0
000700E1C0
000E00E1C0
000E01C1C0
001C03C1C0
001C03FFFC
003807FFFC
007807FFFC
00700001C0
00F00001C0
00E00001C0
01C00001C0
01C00001C0
03800001C0
ENDCHAR
STARTCHAR 00BD
ENCODING 189
SWIDTH 810 0
DWIDTH 45 0
BBX 38 38 4 0
BITMAP
0000007000
0F0000E000
3F0000E000
FF0001C000
FF0001C000
FF00038000
0F00038000
0F00070000
0F00070000
0F000E0000
0F000E0000
0F001C0000
0F001C0000
0F00380000
0F00780000
0F00701F80
0F00E07FE0
0F00E0FFF0
0F01C1F1F0
0F01C1C078
0F03808078
0F03800038
0F07000038
0007000038
000E000078
000E000070
001C0000F0
003C0000E0
00380001E0
00780003C0
0070000780
00E0000F00
00E0001E00
01C0003C00
01C0007C00
038000FFFC
038001FFFC
070001FFFC
ENDCHAR
STARTCHAR 00BE
ENCODING 190
SWIDTH 792 0
DWIDTH 44 0
BBX 40 37 2 0
BITMAP
07E0000380
1FF8000780
3FFC000700
783C000E00
301E000E00
001E001C00
001E001C00
001C003800
003C003800
0078007000
07F0007000
07F000E000
00FC01E000
001E01C000
000E038000
000F038000
000F070078
600F0700F8
F01E0E01F8
F83E0E01F8
7FFC1C03B8
1FF81C0738
07E0380738
0000780E38
0000701C38
0000E01C38
0000E03838
0001C07038
0001C07FFF
000380FFFF
000380FFFF
0007000038
0007000038
000E000038
001E000038
001C000038
0038000038
ENDCHAR
STARTCHAR 00BF
ENCODING 191
SWIDTH 432 0
DWIDTH 24 0
BBX 18 38 3 -11
BITMAP
00E000
01F000
03F800
03F800
03F800
01F000
00E000
000000
000000
000000
000000
00F000
00F000
00F000
00F000
01F000
01E000
03E000
03C000
07C000
0F8000
1F0000
3E0000
3C0000
7C0000
F80000
F80000
F00000
F00000
F00000
F00000
F80180
FC03C0
7E0FC0
7FFF80
3FFF00
0FFC00
03F000
ENDCHAR
STARTCHAR 00C0
ENCODING 192
SWIDTH 540 0
DWIDTH 30 0
BBX 30 48 0 1
BITMAP
00600000
00F80000
00FC0000
007E0000
003F0000
000F8000
0007C000
00038000
00000000
00000000
00000000
000FC000
000FC000
000FE000
001FE000
001FE000
001CF000
003CF000
003CF000
003CF800
00787800
00787800
00787C00
00F03C00
00F03C00
00F03E00
01F03E00
01E01E00
01E01F00
03E01F00
03C00F00
03C00F80
07C00F80
07FFFF80
07FFFFC0
0FFFFFC0
0FFFFFC0
0F0003E0
1F0003E0
1F0003E0
1E0001F0
3E0001F0
3E0001F0
3C0000F8
7C0000F8
7C0000F8
7800007C
F800007C
ENDCHAR
STARTCHAR 00C1
ENCODING 193
SWIDTH 540 0
DWIDTH 30 0
BBX 30 48 0 1
BITMAP
00001800
00007C00
0000FC00
0001F800
0003F000
0007C000
000F8000
00070000
00000000
00000000
00000000
000FC000
000FC000
000FE000
001FE000
001FE000
001CF000
003CF000
003CF000
003CF800
00787800
00787800
00787C00
00F03C00
00F03C00
00F03E00
01F03E00
01E01E00
01E01F00
03E01F00
03C00F00
03C00F80
07C00F80
07FFFF80
07FFFFC0
0FFFFFC0
0FFFFFC0
0F0003E0
1F0003E0
1F0003E0
1E0001F0
3E0001F0
3E0001F0
3C0000F8
7C0000F8
7C0000F8
7800007C
F800007C
ENDCHAR
STARTCHAR 00C2
ENCODING 194
SWIDTH 540 0
DWIDTH 30 0
BBX 30 47 0 0
BITMAP
000FC000
001FE000
003FF000
007CF800
00F87C00
01E01E00
01C00E00
00000000
00000000
00000000
000FC000
000FC000
000FE000
001FE000
001FE000
001CF000
003CF000
003CF000
003CF800
00787800
00787800
00787C00
00F03C00
00F03C00
00F03E00
01F03E00
01E01E00
01E01F00
03E01F00
03C00F00
03C00F80
07C00F80
07FFFF80
07FFFFC0
0FFFFFC0
0FFFFFC0
0F0003E0
1F0003E0
1F0003E0
1E0001F0
3E0001F0
3E0001F0
3C0000F8
7C0000F8
7C0000F8
7800007C
F800007C
ENDCHAR
STARTCHAR 00C3
ENCODING 195
SWIDTH 540 0
DWIDTH 30 0
BBX 30 47 0 0
BITMAP
00FC0380
01FE0780
03FF8700
03C7CF00
0783FF00
0781FE00
07007800
00000000
00000000
00000000
000FC000
000FC000
000FE000
001FE000
001FE000
001CF000
003CF000
003CF000
003CF800
00787800
00787800
00787C00
00F03C00
00F03C00
00F03E00
01F03E00
01E01E00
01E01F00
03E01F00
03C00F00
03C00F80
07C00F80
07FFFF80
07FFFFC0
0FFFFFC0
0FFFFFC0
0F0003E0
1F0003E0
1F0003E0
1E0001F0
3E0001F0
3E0001F0
3C0000F8
7C0000F8
7C0000F8
7800007C
F800007C
ENDCHAR
STARTCHAR 00C4
ENCODING 196
SWIDTH 540 0
DWIDTH 30 0
BBX 30 46 0 0
BITMAP
00E01C00
01F03E00
01F03E00
01F03E00
01E01E00
00000000
00000000
00000000
00000000
000FC000
000FC000
000FE000
001FE000
001FE000
001CF000
003CF000
003CF000
003CF800
00787800
00787800
00787C00
00F03C00
00F03C00
00F03E00
01F03E00
01E01E00
01E01F00
03E01F00
03C00F00
03C00F80
07C00F80
07FFFF80
07FFFFC0
0FFFFFC0
0FFFFFC0
0F0003E0
1F0003E0
1F0003E0
1E0001F0
3E0001F0
3E0001F0
3C0000F8
7C0000F8
7C0000F8
7800007C
F800007C
ENDCHAR
STARTCHAR 00C5
ENCODING 197
SWIDTH 540 0
DWIDTH 30 0
BBX 30 49 0 0
BITMAP
0007C000
001FE000
00387000
00307000
00303000
00303000
00303000
00387000
001FE000
00078000
00000000
00000000
000FC000
000FC000
000FE000
001FE000
001FE000
001CF000
003CF000
003CF000
003CF800
00787800
00787800
00787C00
00F03C00
00F03C00
00F03E00
01F03E00
01E01E00
01E01F00
03E01F00
03C00F00
03C00F80
07C00F80
07FFFF80
07FFFFC0
0FFFFFC0
0FFFFFC0
0F0003E0
1F0003E0
1F0003E0
1E0001F0
3E0001F0
3E0001F0
3C0000F8
7C0000F8
7C0000F8
7800007C
F800007C
ENDCHAR
STARTCHAR 00C6
ENCODING 198
SWIDTH 828 0
DWIDTH 46 0
BBX 42 37 1 0
BITMAP
00003FFFFF80
00003FFFFF80
00007FFFFF80
00007FFFFF80
0000FFC00000
0000F7C00000
0001F7C00000
0001E7C00000
0003E7C00000
0003C7C00000
0007C7C00000
000787C00000
000F87C00000
000F07C00000
001F07C00000
001E07C00000
003E07FFFE00
003C07FFFE00
007C07FFFE00
00F807FFFE00
00F807C00000
01F007C00000
01FFFFC00000
03FFFFC00000
03FFFFC00000
07FFFFC00000
07C007C00000
0F8007C00000
0F8007C00000
1F0007C00000
1F0007C00000
3E0007C00000
3E0007C00000
7C0007FFFFC0
7C0007FFFFC0
F80007FFFFC0
F80007FFFFC0
ENDCHAR
STARTCHAR 00C7
ENCODING 199
SWIDTH 576 0
DWIDTH 32 0
BBX 27 49 3 -12
BITMAP
000FF000
007FFC00
01FFFF00
03FFFF80
07F81FC0
0FE00780
1F800100
1F000000
3E000000
3E000000
7C000000
7C000000
78000000
F8000000
F8000000
F8000000
F8000000
F8000000
F8000000
F8000000
F8000000
F8000000
F8000000
F8000000
7C000000
7C000000
7C000000
3E000000
3E000000
1F000080
1F8001C0
0FC007E0
07F81FC0
03FFFF80
01FFFF00
007FFC00
001FF000
00038000
00038000
00078000
0007C000
0007F000
0000F000
00007000
00007000
0000F000
0007E000
001FC000
001E0000
ENDCHAR
STARTCHAR 00C8
ENCODING 200
SWIDTH 522 0
DWIDTH 29 0
BBX 22 48 5 1
BITMAP
060000
0F0000
1F8000
07E000
03F000
01F800
007C00
003800
001000
000000
000000
FFFFF8
FFFFF8
FFFFF8
FFFFF8
F80000
F80000
F80000
F80000
F80000
F80000
F80000
F80000
F80000
F80000
F80000
F80000
FFFFC0
FFFFC0
FFFFC0
FFFFC0
F80000
F80000
F80000
F80000
F80000
F80000
F80000
F80000
F80000
F80000
F80000
F80000
F80000
FFFFFC
FFFFFC
FFFFFC
FFFFFC
ENDCHAR
STARTCHAR 00C9
ENCODING 201
SWIDTH 522 0
DWIDTH 29 0
BBX 22 49 5 0
BITMAP
000100
000380
0007C0
000FC0
001F80
003E00
007C00
00F800
006000
000000
000000
000000
FFFFF8
FFFFF8
FFFFF8
FFFFF8
F80000
F80000
F80000
F80000
F80000
F80000
F80000
F80000
F80000
F80000
F80000
F80000
FFFFC0
FFFFC0
FFFFC0
FFFFC0
F80000
F80000
F80000
F80000
F80000
F80000
F80000
F80000
F80000
F80000
F80000
F80000
F80000
FFFFFC
FFFFFC
FFFFFC
FFFFFC
ENDCHAR
STARTCHAR 00CA
ENCODING 202
SWIDTH 522 0
DWIDTH 29 0
BBX 22 47 5 0
BITMAP
00FC00
01FE00
03FF00
07CF00
0F0780
1E03C0
1C00E0
080000
000000
000000
FFFFF8
FFFFF8
FFFFF8
FFFFF8
F80000
F80000
F80000
F80000
F80000
F80000
F80000
F80000
F80000
F80000
F80000
F80000
FFFFC0
FFFFC0
FFFFC0
FFFFC0
F80000
F80000
F80000
F80000
F80000
F80000
F80000
F80000
F80000
F80000
F80000
F80000
F80000
FFFFFC
FFFFFC
FFFFFC
FFFFFC
ENDCHAR
STARTCHAR 00CB
ENCODING 203
SWIDTH 522 0
DWIDTH 29 0
BBX 22 46 5 0
BITMAP
1E01C0
1F03E0
3F03E0
3F03E0
1E03E0
000000
000000
000000
000000
FFFFF8
FFFFF8
FFFFF8
FFFFF8
F80000
F80000
F80000
F80000
F80000
F80000
F80000
F80000
F80000
F80000
F80000
F80000
FFFFC0
FFFFC0
FFFFC0
FFFFC0
F80000
F80000
F80000
F80000
F80000
F80000
F80000
F80000
F80000
F80000
F80000
F80000
F80000
FFFFFC
FFFFFC
FFFFFC
FFFFFC
ENDCHAR
STARTCHAR 00CC
ENCODING 204
SWIDTH 270 0
DWIDTH 15 0
BBX 10 49 0 0
BITMAP
2000
7000
F800
FC00
7E00
1F00
0F80
07C0
0180
0000
0000
0000
07C0
07C0
07C0
07C0
07C0
07C0
07C0
07C0
07C0
07C0
07C0
07C0
07C0
07C0
07C0
07C0
07C0
07C0
07C0
07C0
07C0
07C0
07C0
07C0
07C0
07C0
07C0
07C0
07C0
07C0
07C0
07C0
07C0
07C0
07C0
07C0
07C0
ENDCHAR
STARTCHAR 00CD
ENCODING 205
SWIDTH 270 0
DWIDTH 15 0
BBX 11 48 4 1
BITMAP
0180
03C0
07E0
1F80
3F00
7E00
F800
7000
2000
0000
0000
7C00
7C00
7C00
7C00
7C00
7C00
7C00
7C00
7C00
7C00
7C00
7C00
7C00
7C00
7C00
7C00
7C00
7C00
7C00
7C00
7C00
7C00
7C00
7C00
7C00
7C00
7C00
7C00
7C00
7C00
7C00
7C00
7C00
7C00
7C00
7C00
7C00
ENDCHAR
STARTCHAR 00CE
ENCODING 206
SWIDTH 270 0
DWIDTH 15 0
BBX 16 47 -1 0
BITMAP
07E0
0FF0
0FF8
1E7C
3C1E
780F
E007
0002
0000
0000
03E0
03E0
03E0
03E0
03E0
03E0
03E0
03E0
03E0
03E0
03E0
03E0
03E0
03E0
03E0
03E0
03E0
03E0
03E0
03E0
03E0
03E0
03E0
03E0
03E0
03E0
03E0
03E0
03E0
03E0
03E0
03E0
03E0
03E0
03E0
03E0
03E0
ENDCHAR
STARTCHAR 00CF
ENCODING 207
SWIDTH 270 0
DWIDTH 15 0
BBX 17 46 -1 0
BITMAP
700F00
F80F00
F81F80
F81F80
F80F00
000000
000000
000000
000000
03E000
03E000
03E000
03E000
03E000
03E000
03E000
03E000
03E000
03E000
03E000
03E000
03E000
03E000
03E000
03E000
03E000
03E000
03E000
03E000
03E000
03E000
03E000
03E000
03E000
03E000
03E000
03E000
03E000
03E000
03E000
03E000
03E000
03E000
03E000
03E000
03E000
ENDCHAR
STARTCHAR 00D0
ENCODING 208
SWIDTH 630 0
DWIDTH 35 0
BBX 31 37 2 0
BITMAP
0FFFC000
0FFFFC00
0FFFFE00
0FFFFF80
0F803FC0
0F800FE0
0F8007F0
0F8003F0
0F8001F8
0F8000F8
0F8000F8
0F80007C
0F80007C
0F80007C
0F80007C
0F80003C
3FFF803E
FFFF803E
FFFF803E
0F80003E
0F80003C
0F80003C
0F80007C
0F80007C
0F80007C
0F80007C
0F8000F8
0F8000F8
0F8001F8
0F8003F0
0F8007E0
0F800FE0
0F803FC0
0FFFFF80
0FFFFE00
0FFFF800
0FFFC000
ENDCHAR
STARTCHAR 00D1
ENCODING 209
SWIDTH 648 0
DWIDTH 36 0
BBX 26 47 5 0
BITMAP
03F00E00
07FC0E00
0FFE1E00
0F1FBC00
0E0FFC00
1E07F800
1C01F000
00000000
00000000
00000000
F80003C0
FC0003C0
FC0003C0
FE0003C0
FE0003C0
FF0003C0
FF0003C0
F78003C0
F7C003C0
F3C003C0
F3E003C0
F1E003C0
F1F003C0
F0F003C0
F0F803C0
F07C03C0
F03C03C0
F03E03C0
F01E03C0
F01F03C0
F00F03C0
F00F83C0
F00783C0
F007C3C0
F003E3C0
F001E3C0
F001F3C0
F000F3C0
F000FBC0
F0007BC0
F0007FC0
F0003FC0
F0001FC0
F0001FC0
F0000FC0
F0000FC0
F00007C0
ENDCHAR
STARTCHAR 00D2
ENCODING 210
SWIDTH 666 0
DWIDTH 37 0
BBX 31 48 3 0
BITMAP
00200000
00700000
00F80000
007C0000
003F0000
001F8000
0007C000
0003C000
00018000
00000000
00000000
000FF000
007FFC00
01FFFF00
03FFFF80
07F03FC0
0FC007E0
1F8003F0
3F0001F8
3E0000F8
3E0000FC
7C00007C
7C00007C
7800007C
F800003E
F800003E
F800003E
F800003E
F800003E
F800003E
F800003E
F800003E
F800003E
F800003E
F800003E
7C00007C
7C00007C
7C00007C
3E0000F8
3E0000F8
1F0001F0
1F8003F0
0FC007E0
07F81FC0
03FFFF80
01FFFF00
007FFC00
001FE000
ENDCHAR
STARTCHAR 00D3
ENCODING 211
SWIDTH 666 0
DWIDTH 37 0
BBX 31 48 3 0
BITMAP
00000800
00001C00
00007E00
0000FC00
0001F800
0003F000
0007C000
00078000
00030000
00000000
00000000
000FF000
007FFC00
01FFFF00
03FFFF80
07F03FC0
0FC007E0
1F8003F0
3F0001F8
3E0000F8
3E0000FC
7C00007C
7C00007C
7800007C
F800003E
F800003E
F800003E
F800003E
F800003E
F800003E
F800003E
F800003E
F800003E
F800003E
F800003E
7C00007C
7C00007C
7C00007C
3E0000F8
3E0000F8
1F0001F0
1F8003F0
0FC007E0
07F81FC0
03FFFF80
01FFFF00
007FFC00
001FE000
ENDCHAR
STARTCHAR 00D4
ENCODING 212
SWIDTH 666 0
DWIDTH 37 0
BBX 31 47 3 0
BITMAP
0007C000
000FE000
001FF000
003EF800
007C7C00
00F03C00
01E00E00
00C00600
00000000
00000000
000FF000
007FFC00
01FFFF00
03FFFF80
07F03FC0
0FC007E0
1F8003F0
3F0001F8
3E0000F8
3E0000FC
7C00007C
7C00007C
7800007C
F800003E
F800003E
F800003E
F800003E
F800003E
F800003E
F800003E
F800003E
F800003E
F800003E
F800003E
7C00007C
7C00007C
7C00007C
3E0000F8
3E0000F8
1F0001F0
1F8003F0
0FC007E0
07F81FC0
03FFFF80
01FFFF00
007FFC00
001FE000
ENDCHAR
STARTCHAR 00D5
ENCODING 213
SWIDTH 666 0
DWIDTH 37 0
BBX 31 46 3 0
BITMAP
00FC0380
01FF0380
01FF8780
03C7EF80
0383FF00
0380FE00
00807C00
00000000
00000000
000FF000
007FFC00
01FFFF00
03FFFF80
07F03FC0
0FC007E0
1F8003F0
3F0001F8
3E0000F8
3E0000FC
7C00007C
7C00007C
7800007C
F800003E
F800003E
F800003E
F800003E
F800003E
F800003E
F800003E
F800003E
F800003E
F800003E
F800003E
7C00007C
7C00007C
7C00007C
3E0000F8
3E0000F8
1F0001F0
1F8003F0
0FC007E0
07F81FC0
03FFFF80
01FFFF00
007FFC00
001FE000
ENDCHAR
STARTCHAR 00D6
ENCODING 214
SWIDTH 666 0
DWIDTH 37 0
BBX 31 45 3 0
BITMAP
00E00E00
01F01F00
01F03F00
01F01F00
00F01E00
00000000
00000000
00000000
000FF000
007FFC00
01FFFF00
03FFFF80
07F03FC0
0FC007E0
1F8003F0
3F0001F8
3E0000F8
3E0000FC
7C00007C
7C00007C
7800007C
F800003E
F800003E
F800003E
F800003E
F800003E
F800003E
F800003E
F800003E
F800003E
F800003E
F800003E
7C00007C
7C00007C
7C00007C
3E0000F8
3E0000F8
1F0001F0
1F8003F0
0FC007E0
07F81FC0
03FFFF80
01FFFF00
007FFC00
001FE000
ENDCHAR
STARTCHAR 00D7
ENCODING 215
SWIDTH 504 0
DWIDTH 28 0
BBX 22 22 3 8
BITMAP
600030
F00078
F800F8
7C01F0
3E03E0
1F07C0
0F8780
07CF00
03FE00
01FC00
00F800
00FC00
01FE00
03DF00
078F80
0F87C0
1F03E0
3E01F0
7C00F8
F8007C
700038
200010
ENDCHAR
STARTCHAR 00D8
ENCODING 216
SWIDTH 666 0
DWIDTH 37 0
BBX 31 39 3 -1
BITMAP
00000008
000FF00E
007FFC1E
01FFFF3C
03FFFFF8
07F81FF8
0FC007F0
1F8003F0
1F0003F8
3E0007F8
3E0007FC
7C000F7C
7C001E7C
7C003C3E
78007C3E
F800783E
F800F03E
F801E03E
F803C03E
F803C03E
F807803E
F80F003E
F81E003E
F83C003E
783C003E
7C78003E
7CF0007C
7DE0007C
3FE000FC
3FC000F8
1F8001F8
1F8003F0
1FE007E0
1FF81FC0
3FFFFF80
79FFFF00
F07FFC00
E00FF000
20000000
ENDCHAR
STARTCHAR 00D9
ENCODING 217
SWIDTH 648 0
DWIDTH 36 0
BBX 26 48 5 1
BITMAP
01800000
03E00000
03F00000
01F80000
00FC0000
003E0000
001F0000
000E0000
00000000
00000000
00000000
F00003C0
F00003C0
F00003C0
F00003C0
F00003C0
F00003C0
F00003C0
F00003C0
F00003C0
F00003C0
F00003C0
F00003C0
F00003C0
F00003C0
F00003C0
F00003C0
F00003C0
F00003C0
F00003C0
F00003C0
F00003C0
F00003C0
F00003C0
F80003C0
F80007C0
F80007C0
F80007C0
78000780
7C000F80
7C000F80
3E001F00
3F003F00
1FC0FE00
0FFFFC00
07FFF800
03FFF000
007F8000
ENDCHAR
STARTCHAR 00DA
ENCODING 218
SWIDTH 648 0
DWIDTH 36 0
BBX 26 48 5 1
BITMAP
0000E000
0001F000
0003F000
0007E000
000FC000
001F0000
003E0000
001C0000
00000000
00000000
00000000
F00003C0
F00003C0
F00003C0
F00003C0
F00003C0
F00003C0
F00003C0
F00003C0
F00003C0
F00003C0
F00003C0
F00003C0
F00003C0
F00003C0
F00003C0
F00003C0
F00003C0
F00003C0
F00003C0
F00003C0
F00003C0
F00003C0
F00003C0
F80003C0
F80007C0
F80007C0
F80007C0
78000780
7C000F80
7C000F80
3E001F00
3F003F00
1FC0FE00
0FFFFC00
07FFF800
03FFF000
007F8000
ENDCHAR
STARTCHAR 00DB
ENCODING 219
SWIDTH 648 0
DWIDTH 36 0
BBX 26 47 5 0
BITMAP
003F0000
007F8000
00FFC000
01F3E000
03E1F000
07807000
07003800
02000000
00000000
00000000
F00003C0
F00003C0
F00003C0
F00003C0
F00003C0
F00003C0
F00003C0
F00003C0
F00003C0
F00003C0
F00003C0
F00003C0
F00003C0
F00003C0
F00003C0
F00003C0
F00003C0
F00003C0
F00003C0
F00003C0
F00003C0
F00003C0
F00003C0
F80003C0
F80007C0
F80007C0
F80007C0
78000780
7C000F80
7C000F80
3E001F00
3F003F00
1FC0FE00
0FFFFC00
07FFF800
03FFF000
007F8000
ENDCHAR
STARTCHAR 00DC
ENCODING 220
SWIDTH 648 0
DWIDTH 36 0
BBX 26 46 5 0
BITMAP
03807000
07C0F800
07C0F800
07C0F800
07807800
00000000
00000000
00000000
00000000
F00003C0
F00003C0
F00003C0
F00003C0
F00003C0
F00003C0
F00003C0
F00003C0
F00003C0
F00003C0
F00003C0
F00003C0
F00003C0
F00003C0
F00003C0
F00003C0
F00003C0
F00003C0
F00003C0
F00003C0
F00003C0
F00003C0
F00003C0
F80003C0
F80007C0
F80007C0
F80007C0
78000780
7C000F80
7C000F80
3E001F00
3F003F00
1FC0FE00
0FFFFC00
07FFF800
03FFF000
007F8000
ENDCHAR
STARTCHAR 00DD
ENCODING 221
SWIDTH 468 0
DWIDTH 26 0
BBX 26 48 0 1
BITMAP
00006000
0000F000
0001F800
0007E000
000FC000
001F8000
003E0000
001C0000
00080000
00000000
00000000
F80007C0
7C0007C0
7C000780
3C000F80
3E000F00
1E001F00
1F001E00
0F003E00
0F803C00
0F807C00
07C07800
07C07800
03E0F000
03E0F000
01E1F000
01F1E000
00F3E000
00FBC000
007FC000
007F8000
003F8000
003F0000
001F0000
001F0000
001F0000
001F0000
001F0000
001F0000
001F0000
001F0000
001F0000
001F0000
001F0000
001F0000
001F0000
001F0000
001F0000
ENDCHAR
STARTCHAR 00DE
ENCODING 222
SWIDTH 576 0
DWIDTH 32 0
BBX 25 37 5 0
BITMAP
F8000000
F8000000
F8000000
F8000000
F8000000
F8000000
FFFE0000
FFFFE000
FFFFF800
FFFFFC00
F801FE00
F8007E00
F8001F00
F8001F00
F8000F00
F8000F80
F8000F80
F8000F80
F8000F80
F8000F00
F8000F00
F8001F00
F8003F00
F8007E00
F801FC00
FFFFF800
FFFFF000
FFFFC000
FFFE0000
F8000000
F8000000
F8000000
F8000000
F8000000
F8000000
F8000000
F8000000
ENDCHAR
STARTCHAR 00DF
ENCODING 223
SWIDTH 576 0
DWIDTH 32 0
BBX 25 40 5 0
BITMAP
01FC0000
07FF0000
1FFF8000
3FFFC000
7E07E000
7C03E000
F801E000
F801F000
F801F000
F001E000
F001E000
F003E000
F003C000
F0078000
F00F8000
F00F0000
F01E0000
F01E0000
F03C0000
F03E0000
F03E0000
F03F0000
F01F8000
F01FE000
F00FF800
F003FC00
F000FE00
F0003F00
F0001F80
F0000F80
F0000780
F0000780
F0000780
F0000780
F0200F80
F0381F80
F07FFF00
F07FFE00
F01FFC00
F007F000
ENDCHAR
STARTCHAR 00E0
ENCODING 224
SWIDTH 504 0
DWIDTH 28 0
BBX 21 42 3 1
BITMAP
030000
078000
0FC000
07C000
03E000
01F000
00F800
007C00
003E00
001C00
000800
000000
000000
000000
000000
00FE00
07FF80
1FFFC0
7FFFE0
3E03F0
3801F0
0000F8
0000F8
0000F8
0000F8
0001F8
003FF8
03FFF8
0FF8F8
1F80F8
3E00F8
7800F8
F800F8
F000F8
F000F8
F800F8
F803F8
FC07F8
7FFF78
3FFE78
1FF878
07E078
ENDCHAR
STARTCHAR 00E1
ENCODING 225
SWIDTH 504 0
DWIDTH 28 0
BBX 21 43 3 0
BITMAP
000080
0001C0
0003E0
0003E0
0007C0
000F80
001F00
003E00
007C00
007800
007000
002000
000000
000000
000000
000000
00FE00
07FF80
1FFFC0
7FFFE0
3E03F0
3801F0
0000F8
0000F8
0000F8
0000F8
0001F8
003FF8
03FFF8
0FF8F8
1F80F8
3E00F8
7800F8
F800F8
F000F8
F000F8
F800F8
F803F8
FC07F8
7FFF78
3FFE78
1FF878
07E078
ENDCHAR
STARTCHAR 00E2
ENCODING 226
SWIDTH 504 0
DWIDTH 28 0
BBX 21 40 3 0
BITMAP
007E00
00FE00
01FF00
03EF80
07C7C0
0783E0
0F01E0
1E00F0
0C0020
000000
000000
000000
000000
00FE00
07FF80
1FFFC0
7FFFE0
3E03F0
3801F0
0000F8
0000F8
0000F8
0000F8
0001F8
003FF8
03FFF8
0FF8F8
1F80F8
3E00F8
7800F8
F800F8
F000F8
F000F8
F800F8
F803F8
FC07F8
7FFF78
3FFE78
1FF878
07E078
ENDCHAR
STARTCHAR 00E3
ENCODING 227
SWIDTH 504 0
DWIDTH 28 0
BBX 21 40 3 0
BITMAP
07C038
0FE038
1FF038
1EF878
3C3C78
381FF0
380FF0
3807C0
000000
000000
000000
000000
000000
00FE00
07FF80
1FFFC0
7FFFE0
3E03F0
3801F0
0000F8
0000F8
0000F8
0000F8
0001F8
003FF8
03FFF8
0FF8F8
1F80F8
3E00F8
7800F8
F800F8
F000F8
F000F8
F800F8
F803F8
FC07F8
7FFF78
3FFE78
1FF878
07E078
ENDCHAR
STARTCHAR 00E4
ENCODING 228
SWIDTH 504 0
DWIDTH 28 0
BBX 21 38 3 0
BITMAP
020000
0F01E0
0F83F0
0F83F0
0F81E0
0701E0
000000
000000
000000
000000
000000
00FE00
07FF80
1FFFC0
7FFFE0
3E03F0
3801F0
0000F8
0000F8
0000F8
0000F8
0001F8
003FF8
03FFF8
0FF8F8
1F80F8
3E00F8
7800F8
F800F8
F000F8
F000F8
F800F8
F803F8
FC07F8
7FFF78
3FFE78
1FF878
07E078
ENDCHAR
STARTCHAR 00E5
ENCODING 229
SWIDTH 504 0
DWIDTH 28 0
BBX 21 41 3 0
BITMAP
007C00
01FF00
03C780
038380
0381C0
0701C0
0381C0
038380
03C780
01FF00
007C00
000000
000000
000000
00FE00
07FF80
1FFFC0
7FFFE0
3E03F0
3801F0
0000F8
0000F8
0000F8
0000F8
0001F8
003FF8
03FFF8
0FF8F8
1F80F8
3E00F8
7800F8
F800F8
F000F8
F000F8
F800F8
F803F8
FC07F8
7FFF78
3FFE78
1FF878
07E078
ENDCHAR
STARTCHAR 00E6
ENCODING 230
SWIDTH 792 0
DWIDTH 44 0
BBX 39 27 3 0
BITMAP
00FE007F00
07FF81FFC0
1FFFC3FFE0
7FFFC7FFF0
3E03EF81F8
1801FF0078
0000FE007C
0000FC003C
0000FC003C
000078003C
0001F8003C
003FF8003E
01FFFFFFFE
0FFE7FFFFE
1FC07FFFFC
3F00780000
7C00780000
7800780000
F8007C0000
F8003C0000
F8007E0000
F801FF0010
7C07FFC070
7FFF8FFFF8
3FFF03FFF8
1FFC01FFE0
07E0007F00
ENDCHAR
STARTCHAR 00E7
ENCODING 231
SWIDTH 450 0
DWIDTH 25 0
BBX 21 39 3 -12
BITMAP
007F00
03FFC0
07FFF0
0FFFF0
1F80E0
3F0060
7E0000
7C0000
F80000
F80000
F80000
F00000
F00000
F00000
F00000
F00000
F80000
F80000
F80000
7C0000
7E0000
3F0020
3F80F0
1FFFF8
0FFFF0
03FFC0
00FF00
003800
003800
007800
007C00
003F00
000F00
000700
000700
000F00
007E00
01FC00
01E000
ENDCHAR
STARTCHAR 00E8
ENCODING 232
SWIDTH 504 0
DWIDTH 28 0
BBX 22 42 3 1
BITMAP
030000
078000
0FC000
07E000
03E000
01F000
00F800
007C00
003E00
001C00
000800
000000
000000
000000
000000
007E00
03FFC0
07FFE0
0FFFF0
1F01F8
3E00F8
7C007C
78003C
78003C
F0003C
F0003C
F0003C
FFFFFC
FFFFFC
FFFFFC
F00000
F00000
F80000
F80000
7C0000
7C0000
3E0000
3F8030
1FFFF8
07FFF8
03FFE0
007F00
ENDCHAR
STARTCHAR 00E9
ENCODING 233
SWIDTH 504 0
DWIDTH 28 0
BBX 22 43 3 0
BITMAP
000080
0001C0
0001E0
0003E0
0007C0
000F80
001F00
003E00
007C00
007800
007000
000000
000000
000000
000000
000000
007E00
03FFC0
07FFE0
0FFFF0
1F01F8
3E00F8
7C007C
78003C
78003C
F0003C
F0003C
F0003C
FFFFFC
FFFFFC
FFFFFC
F00000
F00000
F80000
F80000
7C0000
7C0000
3E0000
3F8030
1FFFF8
07FFF8
03FFE0
007F00
ENDCHAR
STARTCHAR 00EA
ENCODING 234
SWIDTH 504 0
DWIDTH 28 0
BBX 22 40 3 0
BITMAP
007E00
00FE00
01FF00
03EF80
07C7C0
0783E0
0F01F0
1E0070
0C0020
000000
000000
000000
000000
007E00
03FFC0
07FFE0
0FFFF0
1F01F8
3E00F8
7C007C
78003C
78003C
F0003C
F0003C
F0003C
FFFFFC
FFFFFC
FFFFFC
F00000
F00000
F80000
F80000
7C0000
7C0000
3E0000
3F8030
1FFFF8
07FFF8
03FFE0
007F00
ENDCHAR
STARTCHAR 00EB
ENCODING 235
SWIDTH 504 0
DWIDTH 28 0
BBX 22 38 3 0
BITMAP
020000
0F81E0
0F83F0
0F83F0
0F81E0
0701E0
000000
000000
000000
000000
000000
007E00
03FFC0
07FFE0
0FFFF0
1F01F8
3E00F8
7C007C
78003C
78003C
F0003C
F0003C
F0003C
FFFFFC
FFFFFC
FFFFFC
F00000
F00000
F80000
F80000
7C0000
7C0000
3E0000
3F8030
1FFFF8
07FFF8
03FFE0
007F00
ENDCHAR
STARTCHAR 00EC
ENCODING 236
SWIDTH 252 0
DWIDTH 14 0
BBX 11 43 -1 0
BITMAP
3000
7800
FC00
7C00
3E00
1F00
0F80
07C0
03E0
01C0
0080
0000
0000
0000
0000
0000
03C0
03C0
03C0
03C0
03C0
03C0
03C0
03C0
03C0
03C0
03C0
03C0
03C0
03C0
03C0
03C0
03C0
03C0
03C0
03C0
03C0
03C0
03C0
03C0
03C0
03C0
03C0
ENDCHAR
STARTCHAR 00ED
ENCODING 237
SWIDTH 252 0
DWIDTH 14 0
BBX 11 43 4 0
BITMAP
0100
03C0
07E0
0FC0
1F80
1F00
3E00
7C00
F800
F000
6000
0000
0000
0000
0000
0000
7800
7800
7800
7800
7800
7800
7800
7800
7800
7800
7800
7800
7800
7800
7800
7800
7800
7800
7800
7800
7800
7800
7800
7800
7800
7800
7800
ENDCHAR
STARTCHAR 00EE
ENCODING 238
SWIDTH 252 0
DWIDTH 14 0
BBX 17 41 -2 0
BITMAP
03F000
07F000
07F800
0F7C00
1E3E00
3C1F00
780F00
F00780
600380
000100
000000
000000
000000
000000
01E000
01E000
01E000
01E000
01E000
01E000
01E000
01E000
01E000
01E000
01E000
01E000
01E000
01E000
01E000
01E000
01E000
01E000
01E000
01E000
01E000
01E000
01E000
01E000
01E000
01E000
01E000
ENDCHAR
STARTCHAR 00EF
ENCODING 239
SWIDTH 252 0
DWIDTH 14 0
BBX 16 38 -1 0
BITMAP
700E
F81F
F83F
F81F
F81E
2000
0000
0000
0000
0000
0000
03C0
03C0
03C0
03C0
03C0
03C0
03C0
03C0
03C0
03C0
03C0
03C0
03C0
03C0
03C0
03C0
03C0
03C0
03C0
03C0
03C0
03C0
03C0
03C0
03C0
03C0
03C0
ENDCHAR
STARTCHAR 00F0
ENCODING 240
SWIDTH 540 0
DWIDTH 30 0
BBX 24 41 3 0
BITMAP
030000
038006
07E01E
03F07E
01FDF8
007FE0
003F80
007F80
01FFC0
07E3E0
0F81F0
0E01F0
0000F8
000078
00007C
00103C
01FF3E
07FFBE
0FFFDE
1F81FE
3E007F
7C003F
7C001F
78001F
F8000F
F8000F
F0000F
F0000F
F0001F
F0001F
F8001F
F8001E
78001E
7C003E
7C007C
3E007C
1F81F8
0FFFF0
07FFE0
03FFC0
00FE00
ENDCHAR
STARTCHAR 00F1
ENCODING 241
SWIDTH 540 0
DWIDTH 30 0
BBX 21 40 5 0
BITMAP
07C038
0FE038
1FF078
3EF870
387CF0
383FF0
381FE0
3807C0
000000
000000
000000
000000
000000
E03F00
E0FFC0
F3FFE0
F7FFF0
FF83F0
FE01F8
FC00F8
F800F8
F000F8
F00078
F00078
F00078
F00078
F00078
F00078
F00078
F00078
F00078
F00078
F00078
F00078
F00078
F00078
F00078
F00078
F00078
F00078
ENDCHAR
STARTCHAR 00F2
ENCODING 242
SWIDTH 540 0
DWIDTH 30 0
BBX 25 43 3 0
BITMAP
01000000
03000000
07800000
0FC00000
07E00000
03F00000
01F80000
00F80000
007C0000
003E0000
001C0000
00080000
00000000
00000000
00000000
00000000
007F0000
03FFC000
07FFF000
1FFFF800
1F81FC00
3E007C00
7C003E00
7C003E00
F8001F00
F8001F00
F8000F00
F0000F00
F0000F80
F0000F80
F0000F80
F0000F00
F8000F00
F8001F00
F8001F00
7C003E00
7C003E00
3E007C00
3F81FC00
1FFFF800
07FFF000
03FFC000
00FE0000
ENDCHAR
STARTCHAR 00F3
ENCODING 243
SWIDTH 540 0
DWIDTH 30 0
BBX 25 42 3 1
BITMAP
0000C000
0001E000
0003F000
0007E000
000FC000
000F8000
001F0000
003E0000
007C0000
00380000
00100000
00000000
00000000
00000000
00000000
007F0000
03FFC000
07FFF000
1FFFF800
1F81FC00
3E007C00
7C003E00
7C003E00
F8001F00
F8001F00
F8000F00
F0000F00
F0000F80
F0000F80
F0000F80
F0000F00
F8000F00
F8001F00
F8001F00
7C003E00
7C003E00
3E007C00
3F81FC00
1FFFF800
07FFF000
03FFC000
00FE0000
ENDCHAR
STARTCHAR 00F4
ENCODING 244
SWIDTH 540 0
DWIDTH 30 0
BBX 25 40 3 0
BITMAP
007E0000
00FF0000
01FF8000
01E78000
03C3C000
0781E000
0F00F000
1E007800
04002000
00000000
00000000
00000000
00000000
007F0000
03FFC000
07FFF000
1FFFF800
1F81FC00
3E007C00
7C003E00
7C003E00
F8001F00
F8001F00
F8000F00
F0000F00
F0000F80
F0000F80
F0000F80
F0000F00
F8000F00
F8001F00
F8001F00
7C003E00
7C003E00
3E007C00
3F81FC00
1FFFF800
07FFF000
03FFC000
00FE0000
ENDCHAR
STARTCHAR 00F5
ENCODING 245
SWIDTH 540 0
DWIDTH 30 0
BBX 25 40 3 0
BITMAP
03E01C00
0FF03C00
0FF83800
1F7C3800
1C3E7800
1C1FF800
1C0FF000
3C07E000
00000000
00000000
00000000
00000000
00000000
007F0000
03FFC000
07FFF000
1FFFF800
1F81FC00
3E007C00
7C003E00
7C003E00
F8001F00
F8001F00
F8000F00
F0000F00
F0000F80
F0000F80
F0000F80
F0000F00
F8000F00
F8001F00
F8001F00
7C003E00
7C003E00
3E007C00
3F81FC00
1FFFF800
07FFF000
03FFC000
00FE0000
ENDCHAR
STARTCHAR 00F6
ENCODING 246
SWIDTH 540 0
DWIDTH 30 0
BBX 25 38 3 0
BITMAP
02004000
0781F000
0F81F000
0F81F000
0F81F000
0700E000
00000000
00000000
00000000
00000000
00000000
007F0000
03FFC000
07FFF000
1FFFF800
1F81FC00
3E007C00
7C003E00
7C003E00
F8001F00
F8001F00
F8000F00
F0000F00
F0000F80
F0000F80
F0000F80
F0000F00
F8000F00
F8001F00
F8001F00
7C003E00
7C003E00
3E007C00
3F81FC00
1FFFF800
07FFF000
03FFC000
00FE0000
ENDCHAR
STARTCHAR 00F7
ENCODING 247
SWIDTH 504 0
DWIDTH 28 0
BBX 24 26 2 5
BITMAP
003C00
007E00
007E00
007E00
007C00
003800
000000
000000
000000
000000
000000
FFFFFF
FFFFFF
FFFFFF
000000
000000
000000
000000
000000
000000
003C00
007E00
007E00
007E00
007C00
003800
ENDCHAR
STARTCHAR 00F8
ENCODING 248
SWIDTH 540 0
DWIDTH 30 0
BBX 25 29 3 -1
BITMAP
00000200
007F0300
03FFC700
07FFEE00
1FFFFC00
1F80FC00
3E007C00
7C007E00
7C00FE00
F801DF00
F8039F00
F0070F00
F00E0F00
F01E0F80
F03C0F80
F0380F80
F0700F00
F0E00F00
F9C00F00
FB801F00
7F001E00
7F003E00
3E007C00
3F80FC00
3FFFF800
77FFF000
E3FFC000
E07E0000
40000000
ENDCHAR
STARTCHAR 00F9
ENCODING 249
SWIDTH 540 0
DWIDTH 30 0
BBX 22 43 4 0
BITMAP
060000
0F0000
1F8000
0FC000
07E000
03E000
01F000
00F800
007C00
003C00
001800
000000
000000
000000
000000
000000
F8007C
F8007C
F8007C
F8007C
F8007C
F8007C
F8007C
F8007C
F8007C
F8007C
F8007C
F8007C
F8007C
F8007C
F8007C
F8007C
F8007C
F8007C
F8007C
F800FC
7C01FC
7C03FC
7E07BC
3FFF3C
3FFE3C
1FFC3C
07E03C
ENDCHAR
STARTCHAR 00FA
ENCODING 250
SWIDTH 540 0
DWIDTH 30 0
BBX 22 43 4 0
BITMAP
000180
0003C0
0007E0
0007C0
000F80
001F00
003E00
007C00
00F800
007000
002000
000000
000000
000000
000000
000000
F8007C
F8007C
F8007C
F8007C
F8007C
F8007C
F8007C
F8007C
F8007C
F8007C
F8007C
F8007C
F8007C
F8007C
F8007C
F8007C
F8007C
F8007C
F8007C
F800FC
7C01FC
7C03FC
7E07BC
3FFF3C
3FFE3C
1FFC3C
07E03C
ENDCHAR
STARTCHAR 00FB
ENCODING 251
SWIDTH 540 0
DWIDTH 30 0
BBX 22 41 4 0
BITMAP
00FC00
00FE00
01FE00
03FF00
07CF80
0F83C0
0F01E0
1E00F0
180060
000000
000000
000000
000000
000000
F8007C
F8007C
F8007C
F8007C
F8007C
F8007C
F8007C
F8007C
F8007C
F8007C
F8007C
F8007C
F8007C
F8007C
F8007C
F8007C
F8007C
F8007C
F8007C
F800FC
7C01FC
7C03FC
7E07BC
3FFF3C
3FFE3C
1FFC3C
07E03C
ENDCHAR
STARTCHAR 00FC
ENCODING 252
SWIDTH 540 0
DWIDTH 30 0
BBX 22 38 4 0
BITMAP
0E01C0
1F03E0
1F83E0
1F03E0
0F03E0
040080
000000
000000
000000
000000
000000
F8007C
F8007C
F8007C
F8007C
F8007C
F8007C
F8007C
F8007C
F8007C
F8007C
F8007C
F8007C
F8007C
F8007C
F8007C
F8007C
F8007C
F8007C
F8007C
F800FC
7C01FC
7C03FC
7E07BC
3FFF3C
3FFE3C
1FFC3C
07E03C
ENDCHAR
STARTCHAR 00FD
ENCODING 253
SWIDTH 468 0
DWIDTH 26 0
BBX 24 54 1 -11
BITMAP
0000C0
0000E0
0001F0
0003F0
0007E0
000FC0
001F80
001E00
003C00
003800
001000
000000
000000
000000
000000
000000
F8000F
F8001F
78001E
7C001E
7C003E
3C003C
3E003C
1E007C
1F0078
0F0078
0F00F8
0F80F0
0780F0
0781E0
03C1E0
03C1E0
03E3C0
01E3C0
01E3C0
00F380
00F780
00F780
007F00
007F00
003F00
003E00
003E00
003E00
003C00
003C00
007800
007800
00F000
01F000
3FE000
7FC000
7F8000
7E0000
ENDCHAR
STARTCHAR 00FE
ENCODING 254
SWIDTH 558 0
DWIDTH 31 0
BBX 23 51 5 -11
BITMAP
F00000
F00000
F00000
F00000
F00000
F00000
F00000
F00000
F00000
F00000
F00000
F00000
F00000
F07F00
F1FFC0
F3FFE0
FFFFF0
FF01F8
FC00FC
F8007C
F0007C
F0003E
F0003E
F0003E
F0003E
F0003E
F0003E
F0003E
F0003E
F0003E
F0003E
F0007C
F0007C
F000FC
FC01F8
FF03F0
FFFFE0
F7FFC0
F3FF80
F0FE00
F00000
F00000
F00000
F00000
F00000
F00000
F00000
F00000
F00000
F00000
F00000
ENDCHAR
STARTCHAR 00FF
ENCODING 255
SWIDTH 468 0
DWIDTH 26 0
BBX 24 49 1 -11
BITMAP
0380F0
07C1F0
0FC1F8
0FC1F8
0780F0
000040
000000
000000
000000
000000
000000
F8000F
F8001F
78001E
7C001E
7C003E
3C003C
3E003C
1E007C
1F0078
0F0078
0F00F8
0F80F0
0780F0
0781E0
03C1E0
03C1E0
03E3C0
01E3C0
01E3C0
00F380
00F780
00F780
007F00
007F00
003F00
003E00
003E00
003E00
003C00
003C00
007800
007800
00F000
01F000
3FE000
7FC000
7F8000
7E0000
ENDCHAR
STARTCHAR 0100
ENCODING 256
SWIDTH 540 0
DWIDTH 30 0
BBX 30 44 0 0
BITMAP
00FFFC00
00FFFC00
00FFFC00
00000000
00000000
00000000
00000000
000FC000
000FC000
000FE000
001FE000
001FE000
001CF000
003CF000
003CF000
003CF800
00787800
00787800
00787C00
00F03C00
00F03C00
00F03E00
01F03E00
01E01E00
01E01F00
03E01F00
03C00F00
03C00F80
07C00F80
07FFFF80
07FFFFC0
0FFFFFC0
0FFFFFC0
0F0003E0
1F0003E0
1F0003E0
1E0001F0
3E0001F0
3E0001F0
3C0000F8
7C0000F8
7C0000F8
7800007C
F800007C
ENDCHAR
STARTCHAR 0101
ENCODING 257
SWIDTH 504 0
DWIDTH 28 0
BBX 21 37 3 0
BITMAP
0FFFE0
0FFFE0
0FFFE0
000000
000000
000000
000000
000000
000000
000000
00FE00
07FF80
1FFFC0
7FFFE0
3E03F0
3801F0
0000F8
0000F8
0000F8
0000F8
0001F8
003FF8
03FFF8
0FF8F8
1F80F8
3E00F8
7800F8
F800F8
F000F8
F000F8
F800F8
F803F8
FC07F8
7FFF78
3FFE78
1FF878
07E078
ENDCHAR
STARTCHAR 0102
ENCODING 258
SWIDTH 540 0
DWIDTH 30 0
BBX 30 48 0 0
BITMAP
00400800
01C00E00
01C00E00
00E01C00
00F83C00
007FF800
003FF000
000FC000
00000000
00000000
00000000
000FC000
000FC000
000FE000
001FE000
001FE000
001CF000
003CF000
003CF000
003CF800
00787800
00787800
00787C00
00F03C00
00F03C00
00F03E00
01F03E00
01E01E00
01E01F00
03E01F00
03C00F00
03C00F80
07C00F80
07FFFF80
07FFFFC0
0FFFFFC0
0FFFFFC0
0F0003E0
1F0003E0
1F0003E0
1E0001F0
3E0001F0
3E0001F0
3C0000F8
7C0000F8
7C0000F8
7800007C
F800007C
ENDCHAR
STARTCHAR 0103
ENCODING 259
SWIDTH 504 0
DWIDTH 28 0
BBX 21 40 3 0
BITMAP
1C0070
1C0070
1E0070
0E00F0
0F01E0
07C3E0
07FFC0
03FF80
00FE00
000000
000000
000000
000000
00FE00
07FF80
1FFFC0
7FFFE0
3E03F0
3801F0
0000F8
0000F8
0000F8
0000F8
0001F8
003FF8
03FFF8
0FF8F8
1F80F8
3E00F8
7800F8
F800F8
F000F8
F000F8
F800F8
F803F8
FC07F8
7FFF78
3FFE78
1FF878
07E078
ENDCHAR
STARTCHAR 0104
ENCODING 260
SWIDTH 540 0
DWIDTH 30 0
BBX 32 48 0 -11
BITMAP
000FC000
000FC000
000FE000
001FE000
001FE000
001CF000
003CF000
003CF000
003CF800
00787800
00787800
00787C00
00F03C00
00F03C00
00F03E00
01F03E00
01E01E00
01E01F00
03E01F00
03C00F00
03C00F80
07C00F80
07FFFF80
07FFFFC0
0FFFFFC0
0FFFFFC0
0F0003E0
1F0003E0
1F0003E0
1E0001F0
3E0001F0
3E0001F0
3C0000F8
7C0000F8
7C0000F8
7800007C
F800007C
00000078
000000F0
000001E0
000001C0
000003C0
000003C0
000003C0
000003E2
000003FE
000001FF
0000007C
ENDCHAR
STARTCHAR 0105
ENCODING 261
SWIDTH 504 0
DWIDTH 28 0
BBX 22 38 3 -11
BITMAP
00FE00
07FF80
1FFFC0
7FFFE0
3E03F0
3801F0
0000F8
0000F8
0000F8
0000F8
0001F8
003FF8
03FFF8
0FF8F8
1F80F8
3E00F8
7800F8
F800F8
F000F8
F000F8
F800F8
F803F8
FC07F8
7FFF78
3FFE78
1FF878
07E078
0000F0
0001C0
000380
000780
000700
000700
000700
000780
0007FC
0003FC
0001F0
ENDCHAR
STARTCHAR 0106
ENCODING 262
SWIDTH 576 0
DWIDTH 32 0
BBX 27 48 3 0
BITMAP
00000800
00003C00
00007C00
0000FC00
0001F800
0003F000
0007C000
00078000
00030000
00000000
00000000
000FF000
007FFC00
01FFFF00
03FFFF80
07F81FC0
0FE00780
1F800100
1F000000
3E000000
3E000000
7C000000
7C000000
78000000
F8000000
F8000000
F8000000
F8000000
F8000000
F8000000
F8000000
F8000000
F8000000
F8000000
F8000000
7C000000
7C000000
7C000000
3E000000
3E000000
1F000080
1F8001C0
0FE007E0
07F81FC0
03FFFF80
01FFFF00
007FFC00
000FF000
ENDCHAR
STARTCHAR 0107
ENCODING 263
SWIDTH 450 0
DWIDTH 25 0
BBX 21 42 3 1
BITMAP
0000E0
0001F0
0003F0
0003E0
0007C0
000F80
001F00
003E00
007C00
003800
001000
000000
000000
000000
000000
007F00
03FFC0
07FFF0
0FFFF0
1F80E0
3F0060
7E0000
7C0000
F80000
F80000
F80000
F00000
F00000
F00000
F00000
F00000
F80000
F80000
F80000
7C0000
7E0000
3F0030
3F80F0
1FFFF8
0FFFF0
03FFC0
00FF00
ENDCHAR
STARTCHAR 0108
ENCODING 264
SWIDTH 576 0
DWIDTH 32 0
BBX 27 47 3 0
BITMAP
0007C000
000FE000
001FF000
003EF800
00787800
00F03C00
01E01E00
00C00600
00000000
00000000
000FF000
007FFC00
01FFFF00
03FFFF80
07F81FC0
0FE00780
1F800100
1F000000
3E000000
3E000000
7C000000
7C000000
78000000
F8000000
F8000000
F8000000
F8000000
F8000000
F8000000
F8000000
F8000000
F8000000
F8000000
F8000000
7C000000
7C000000
7C000000
3E000000
3E000000
1F000080
1F8001C0
0FE007E0
07F81FC0
03FFFF80
01FFFF00
007FFC00
000FF000
ENDCHAR
STARTCHAR 0109
ENCODING 265
SWIDTH 450 0
DWIDTH 25 0
BBX 21 40 3 0
BITMAP
003E00
007F00
00FF80
01F7C0
03E3E0
07C1F0
0780F0
0F0078
060030
000000
000000
000000
000000
007F00
03FFC0
07FFF0
0FFFF0
1F80E0
3F0060
7E0000
7C0000
F80000
F80000
F80000
F00000
F00000
F00000
F00000
F00000
F80000
F80000
F80000
7C0000
7E0000
3F0030
3F80F0
1FFFF8
0FFFF0
03FFC0
00FF00
ENDCHAR
STARTCHAR 010A
ENCODING 266
SWIDTH 576 0
DWIDTH 32 0
BBX 27 46 3 0
BITMAP
00038000
0007C000
000FC000
000FC000
0007C000
00078000
00000000
00000000
00000000
000FF000
007FFC00
01FFFF00
03FFFF80
07F81FC0
0FE00780
1F800100
1F000000
3E000000
3E000000
7C000000
7C000000
78000000
F8000000
F8000000
F8000000
F8000000
F8000000
F8000000
F8000000
F8000000
F8000000
F8000000
F8000000
7C000000
7C000000
7C000000
3E000000
3E000000
1F000080
1F8001C0
0FE007E0
07F81FC0
03FFFF80
01FFFF00
007FFC00
000FF000
ENDCHAR
STARTCHAR 010B
ENCODING 267
SWIDTH 450 0
DWIDTH 25 0
BBX 21 38 3 0
BITMAP
001C00
003E00
003E00
003E00
003E00
001C00
000000
000000
000000
000000
000000
007F00
03FFC0
07FFF0
0FFFF0
1F80E0
3F0060
7E0000
7C0000
F80000
F80000
F80000
F00000
F00000
F00000
F00000
F00000
F80000
F80000
F80000
7C0000
7E0000
3F0030
3F80F0
1FFFF8
0FFFF0
03FFC0
00FF00
ENDCHAR
STARTCHAR 010C
ENCODING 268
SWIDTH 576 0
DWIDTH 32 0
BBX 27 47 3 0
BITMAP
00000400
01E00E00
00F01E00
00783C00
003CF800
001FF000
000FE000
000FC000
00000000
00000000
000FF000
007FFC00
01FFFF00
03FFFF80
07F81FC0
0FE00780
1F800100
1F000000
3E000000
3E000000
7C000000
7C000000
78000000
F8000000
F8000000
F8000000
F8000000
F8000000
F8000000
F8000000
F8000000
F8000000
F8000000
F8000000
7C000000
7C000000
7C000000
3E000000
3E000000
1F000080
1F8001C0
0FE007E0
07F81FC0
03FFFF80
01FFFF00
007FFC00
000FF000
ENDCHAR
STARTCHAR 010D
ENCODING 269
SWIDTH 450 0
DWIDTH 25 0
BBX 21 41 3 1
BITMAP
0E0038
0F0078
0780F0
03C1E0
01E3C0
01F7C0
00FF80
007F00
003E00
000000
000000
000000
000000
000000
007F00
03FFC0
07FFF0
0FFFF0
1F80E0
3F0060
7E0000
7C0000
F80000
F80000
F80000
F00000
F00000
F00000
F00000
F00000
F80000
F80000
F80000
7C0000
7E0000
3F0030
3F80F0
1FFFF8
0FFFF0
03FFC0
00FF00
ENDCHAR
STARTCHAR 010E
ENCODING 270
SWIDTH 612 0
DWIDTH 34 0
BBX 26 48 5 0
BITMAP
00002000
0E007000
0780F000
03C3E000
03E7C000
01FF8000
00FF0000
007E0000
00000000
00000000
00000000
FFFC0000
FFFF8000
FFFFE000
FFFFF800
F803FC00
F800FE00
F8007E00
F8003F00
F8001F00
F8000F80
F8000F80
F80007C0
F80007C0
F80007C0
F80007C0
F80007C0
F80007C0
F80003C0
F80003C0
F80003C0
F80007C0
F80007C0
F80007C0
F80007C0
F80007C0
F8000780
F8000F80
F8000F80
F8001F00
F8003F00
F8007E00
F800FC00
F803FC00
FFFFF000
FFFFE000
FFFF8000
FFFC0000
ENDCHAR
STARTCHAR 010F
ENCODING 271
SWIDTH 576 0
DWIDTH 32 0
BBX 29 43 3 0
BITMAP
00000038
00000038
00000038
00001E38
00001E38
00001E38
00001E38
00001E38
00001E38
00001E38
00001E38
00001E38
00001E00
00001E00
00001E00
00001E00
00FE1E00
03FF9E00
07FFDE00
1FFFFE00
1F81FE00
3F007E00
7E001E00
7C001E00
78001E00
F8001E00
F8001E00
F0001E00
F0001E00
F0001E00
F0001E00
F0001E00
F8001E00
F8001E00
F8001E00
FC001E00
7C003E00
7E007E00
3F81FE00
1FFFFE00
0FFF9E00
07FF1E00
01FC1E00
ENDCHAR
STARTCHAR 0110
ENCODING 272
SWIDTH 630 0
DWIDTH 35 0
BBX 31 37 2 0
BITMAP
0FFFC000
0FFFFC00
0FFFFE00
0FFFFF80
0F803FC0
0F800FE0
0F8007F0
0F8003F0
0F8001F8
0F8000F8
0F8000F8
0F80007C
0F80007C
0F80007C
0F80007C
0F80003C
3FFF803E
FFFF803E
FFFF803E
0F80003E
0F80003C
0F80003C
0F80007C
0F80007C
0F80007C
0F80007C
0F8000F8
0F8000F8
0F8001F8
0F8003F0
0F8007E0
0F800FE0
0F803FC0
0FFFFF80
0FFFFE00
0FFFF800
0FFFC000
ENDCHAR
STARTCHAR 0111
ENCODING 273
SWIDTH 558 0
DWIDTH 31 0
BBX 27 40 3 0
BITMAP
00001E00
00001E00
00001E00
00001E00
00001E00
003FFFE0
003FFFE0
003FFFE0
00001E00
00001E00
00001E00
00001E00
00001E00
00001E00
00FE1E00
03FF9E00
0FFFDE00
1FFFFE00
3F81FE00
3F007E00
7E003E00
7C001E00
F8001E00
F8001E00
F8001E00
F0001E00
F0001E00
F0001E00
F0001E00
F8001E00
F8001E00
F8001E00
FC001E00
7C003E00
7E007E00
3F81FE00
1FFFFE00
0FFF9E00
07FF1E00
01FC1E00
ENDCHAR
STARTCHAR 0112
ENCODING 274
SWIDTH 522 0
DWIDTH 29 0
BBX 22 44 5 0
BITMAP
1FFFC0
1FFFC0
1FFFC0
000000
000000
000000
000000
FFFFF8
FFFFF8
FFFFF8
FFFFF8
F80000
F80000
F80000
F80000
F80000
F80000
F80000
F80000
F80000
F80000
F80000
F80000
FFFFC0
FFFFC0
FFFFC0
FFFFC0
F80000
F80000
F80000
F80000
F80000
F80000
F80000
F80000
F80000
F80000
F80000
F80000
F80000
FFFFFC
FFFFFC
FFFFFC
FFFFFC
ENDCHAR
STARTCHAR 0113
ENCODING 275
SWIDTH 504 0
DWIDTH 28 0
BBX 22 37 3 0
BITMAP
0FFFE0
0FFFE0
0FFFE0
000000
000000
000000
000000
000000
000000
000000
007E00
03FFC0
07FFE0
0FFFF0
1F01F8
3E00F8
7C007C
78003C
78003C
F0003C
F0003C
F0003C
FFFFFC
FFFFFC
FFFFFC
F00000
F00000
F80000
F80000
7C0000
7C0000
3E0000
3F8030
1FFFF8
07FFF8
03FFE0
007F00
ENDCHAR
STARTCHAR 0114
ENCODING 276
SWIDTH 522 0
DWIDTH 29 0
BBX 22 48 5 0
BITMAP
000080
1C00E0
1C01E0
1E01C0
0F07C0
07FF80
03FF00
00FC00
000000
000000
000000
FFFFF8
FFFFF8
FFFFF8
FFFFF8
F80000
F80000
F80000
F80000
F80000
F80000
F80000
F80000
F80000
F80000
F80000
F80000
FFFFC0
FFFFC0
FFFFC0
FFFFC0
F80000
F80000
F80000
F80000
F80000
F80000
F80000
F80000
F80000
F80000
F80000
F80000
F80000
FFFFFC
FFFFFC
FFFFFC
FFFFFC
ENDCHAR
STARTCHAR 0115
ENCODING 277
SWIDTH 504 0
DWIDTH 28 0
BBX 22 40 3 0
BITMAP
1C0070
1C0070
1E0070
0E00F0
0F01E0
07C3E0
07FFC0
01FF80
00FE00
000000
000000
000000
000000
007E00
03FFC0
07FFE0
0FFFF0
1F01F8
3E00F8
7C007C
78003C
78003C
F0003C
F0003C
F0003C
FFFFFC
FFFFFC
FFFFFC
F00000
F00000
F80000
F80000
7C0000
7C0000
3E0000
3F8030
1FFFF8
07FFF8
03FFE0
007F00
ENDCHAR
STARTCHAR 0116
ENCODING 278
SWIDTH 522 0
DWIDTH 29 0
BBX 22 46 5 0
BITMAP
007800
00FC00
00FC00
00FC00
00FC00
007000
000000
000000
000000
FFFFF8
FFFFF8
FFFFF8
FFFFF8
F80000
F80000
F80000
F80000
F80000
F80000
F80000
F80000
F80000
F80000
F80000
F80000
FFFFC0
FFFFC0
FFFFC0
FFFFC0
F80000
F80000
F80000
F80000
F80000
F80000
F80000
F80000
F80000
F80000
F80000
F80000
F80000
FFFFFC
FFFFFC
FFFFFC
FFFFFC
ENDCHAR
STARTCHAR 0117
ENCODING 279
SWIDTH 504 0
DWIDTH 28 0
BBX 22 38 3 0
BITMAP
003800
007C00
007E00
007E00
007C00
003800
000000
000000
000000
000000
000000
007E00
03FFC0
07FFE0
0FFFF0
1F01F8
3E00F8
7C007C
78003C
78003C
F0003C
F0003C
F0003C
FFFFFC
FFFFFC
FFFFFC
F00000
F00000
F80000
F80000
7C0000
7C0000
3E0000
3F8030
1FFFF8
07FFF8
03FFE0
007F00
ENDCHAR
STARTCHAR 0118
ENCODING 280
SWIDTH 522 0
DWIDTH 29 0
BBX 22 48 5 -11
BITMAP
FFFFF8
FFFFF8
FFFFF8
FFFFF8
F80000
F80000
F80000
F80000
F80000
F80000
F80000
F80000
F80000
F80000
F80000
F80000
FFFFC0
FFFFC0
FFFFC0
FFFFC0
F80000
F80000
F80000
F80000
F80000
F80000
F80000
F80000
F80000
F80000
F80000
F80000
F80000
FFFFFC
FFFFFC
FFFFFC
FFFFFC
0000F0
0001C0
000380
000780
000700
000700
000780
0007C8
0007FC
0003FC
0001F0
ENDCHAR
STARTCHAR 0119
ENCODING 281
SWIDTH 504 0
DWIDTH 28 0
BBX 22 38 3 -11
BITMAP
007E00
03FFC0
07FFE0
0FFFF0
1F01F8
3E00F8
7C007C
78003C
78003C
F0003C
F0003C
F0003C
FFFFFC
FFFFFC
FFFFFC
F00000
F00000
F80000
F80000
7C0000
7C0000
3E0000
3F8030
1FFFF8
07FFF8
03FFF0
007FE0
000380
000380
000700
000F00
000E00
000E00
000E00
000F00
000FF8
0007F8
0003E0
ENDCHAR
STARTCHAR 011A
ENCODING 282
SWIDTH 522 0
DWIDTH 29 0
BBX 22 48 5 0
BITMAP
080000
1C00E0
1E03C0
0F0780
07CF00
03FE00
01FE00
00FC00
000000
000000
000000
FFFFF8
FFFFF8
FFFFF8
FFFFF8
F80000
F80000
F80000
F80000
F80000
F80000
F80000
F80000
F80000
F80000
F80000
F80000
FFFFC0
FFFFC0
FFFFC0
FFFFC0
F80000
F80000
F80000
F80000
F80000
F80000
F80000
F80000
F80000
F80000
F80000
F80000
F80000
FFFFFC
FFFFFC
FFFFFC
FFFFFC
ENDCHAR
STARTCHAR 011B
ENCODING 283
SWIDTH 504 0
DWIDTH 28 0
BBX 22 42 3 0
BITMAP
000020
0C0070
1E00F0
0F01E0
0783C0
03C7C0
03EF80
01FF00
00FE00
007E00
000000
000000
000000
000000
000000
007E00
03FFC0
07FFE0
0FFFF0
1F01F8
3E00F8
7C007C
78003C
78003C
F0003C
F0003C
F0003C
FFFFFC
FFFFFC
FFFFFC
F00000
F00000
F80000
F80000
7C0000
7C0000
3E0000
3F8030
1FFFF8
07FFF8
03FFE0
007F00
ENDCHAR
STARTCHAR 011C
ENCODING 284
SWIDTH 612 0
DWIDTH 34 0
BBX 28 47 3 0
BITMAP
0003E000
0007F000
000FF800
001F7C00
001E3E00
003C0F00
00700780
00600300
00000000
00000000
0007F800
003FFE00
00FFFF80
03FFFFC0
07F80FE0
0FE003C0
1F800180
1F000000
3F000000
3E000000
7C000000
7C000000
7C000000
F8000000
F8000000
F8000000
F8000000
F8000000
F800FFF0
F800FFF0
F800FFF0
F800FFF0
F80001F0
F80001F0
780001F0
7C0001F0
7C0001F0
3E0001F0
3E0001F0
1F0001F0
1F8001F0
0FE001F0
07F80FF0
03FFFFE0
01FFFF80
007FFF00
000FF800
ENDCHAR
STARTCHAR 011D
ENCODING 285
SWIDTH 504 0
DWIDTH 28 0
BBX 24 53 3 -12
BITMAP
007E00
00FE00
00FF00
01FF80
03C7C0
0783E0
0F01F0
1E00F0
0C0070
000000
000000
000000
000000
000000
01FFFF
07FFFF
0FFFFF
1FCFFF
3E03E0
7C01F0
7800F0
7800F0
7800F8
7800F8
7800F0
7800F0
7C01F0
3E01E0
1F07E0
0FFFC0
1FFF00
3DFC00
380000
780000
780000
780000
7C0000
3FFFC0
3FFFFC
1FFFFE
3FFFFF
7C003F
78001F
F0000F
F0000F
F0000F
F0001F
F0003E
F8007E
7F03FC
3FFFF0
1FFFC0
03FE00
ENDCHAR
STARTCHAR 011E
ENCODING 286
SWIDTH 612 0
DWIDTH 34 0
BBX 28 47 3 0
BITMAP
00200200
00700380
00700700
00780700
003C1F00
001FFE00
000FFC00
0003F000
00000000
00000000
0007F800
003FFE00
00FFFF80
03FFFFC0
07F80FE0
0FE003C0
1F800180
1F000000
3F000000
3E000000
7C000000
7C000000
7C000000
F8000000
F8000000
F8000000
F8000000
F8000000
F800FFF0
F800FFF0
F800FFF0
F800FFF0
F80001F0
F80001F0
780001F0
7C0001F0
7C0001F0
3E0001F0
3E0001F0
1F0001F0
1F8001F0
0FE001F0
07F80FF0
03FFFFE0
01FFFF80
007FFF00
000FF800
ENDCHAR
STARTCHAR 011F
ENCODING 287
SWIDTH 504 0
DWIDTH 28 0
BBX 24 52 3 -12
BITMAP
1C0038
1E0070
0E0070
0F00F0
07C3E0
07FFC0
01FF80
00FE00
000000
000000
000000
000000
000000
01FFFF
07FFFF
0FFFFF
1FCFFF
3E03E0
7C01F0
7800F0
7800F0
7800F8
7800F8
7800F0
7800F0
7C01F0
3E01E0
1F07E0
0FFFC0
1FFF00
3DFC00
380000
780000
780000
780000
7C0000
3FFFC0
3FFFFC
1FFFFE
3FFFFF
7C003F
78001F
F0000F
F0000F
F0000F
F0001F
F0003E
F8007E
7F03FC
3FFFF0
1FFFC0
03FE00
ENDCHAR
STARTCHAR 0120
ENCODING 288
SWIDTH 612 0
DWIDTH 34 0
BBX 28 46 3 0
BITMAP
0001C000
0003E000
0003F000
0003F000
0003E000
0001C000
00000000
00000000
00000000
0007F800
003FFE00
00FFFF80
03FFFFC0
07F80FE0
0FE003C0
1F800180
1F000000
3F000000
3E000000
7C000000
7C000000
7C000000
F8000000
F8000000
F8000000
F8000000
F8000000
F800FFF0
F800FFF0
F800FFF0
F800FFF0
F80001F0
F80001F0
780001F0
7C0001F0
7C0001F0
3E0001F0
3E0001F0
1F0001F0
1F8001F0
0FE001F0
07F80FF0
03FFFFE0
01FFFF80
007FFF00
000FF800
ENDCHAR
STARTCHAR 0121
ENCODING 289
SWIDTH 504 0
DWIDTH 28 0
BBX 24 51 3 -12
BITMAP
003C00
007E00
007E00
007E00
007E00
003C00
000000
000000
000000
000000
000000
000000
01FFFF
07FFFF
0FFFFF
1FCFFF
3E03E0
7C01F0
7800F0
7800F0
7800F8
7800F8
7800F0
7800F0
7C01F0
3E01E0
1F07E0
0FFFC0
1FFF00
3DFC00
380000
780000
780000
780000
7C0000
3FFFC0
3FFFFC
1FFFFE
3FFFFF
7C003F
78001F
F0000F
F0000F
F0000F
F0001F
F0003E
F8007E
7F03FC
3FFFF0
1FFFC0
03FE00
ENDCHAR
STARTCHAR 0122
ENCODING 290
SWIDTH 612 0
DWIDTH 34 0
BBX 28 49 3 -12
BITMAP
0007F800
003FFE00
00FFFF80
03FFFFC0
07F80FE0
0FE003C0
1F800180
1F000000
3F000000
3E000000
7C000000
7C000000
7C000000
F8000000
F8000000
F8000000
F8000000
F8000000
F800FFF0
F800FFF0
F800FFF0
F800FFF0
F80001F0
F80001F0
780001F0
7C0001F0
7C0001F0
3E0001F0
3E0001F0
1F0001F0
1F8001F0
0FE001F0
07F80FF0
03FFFFE0
01FFFF80
007FFF00
000FF800
00000000
00000000
00000000
00038000
0007F000
0000F000
00007800
00007800
00007000
0003F000
001FC000
001F0000
ENDCHAR
STARTCHAR 0123
ENCODING 291
SWIDTH 504 0
DWIDTH 28 0
BBX 24 53 3 -12
BITMAP
000F80
007F80
00F800
00F000
00E000
00E000
00F800
007E00
001C00
000000
000000
000000
000000
000000
01FFFF
07FFFF
0FFFFF
1FCFFF
3E03E0
7C01F0
7800F0
7800F0
7800F8
7800F8
7800F0
7800F0
7C01F0
3E01E0
1F07E0
0FFFC0
1FFF00
3DFC00
380000
780000
780000
780000
7C0000
3FFFC0
3FFFFC
1FFFFE
3FFFFF
7C003F
78001F
F0000F
F0000F
F0000F
F0001F
F0003E
F8007E
7F03FC
3FFFF0
1FFFC0
03FE00
ENDCHAR
STARTCHAR 0124
ENCODING 292
SWIDTH 648 0
DWIDTH 36 0
BBX 26 47 5 0
BITMAP
003F0000
007F8000
00FFC000
01F3E000
03E1F000
03807800
07003800
00000000
00000000
00000000
F80003C0
F80003C0
F80003C0
F80003C0
F80003C0
F80003C0
F80003C0
F80003C0
F80003C0
F80003C0
F80003C0
F80003C0
F80003C0
F80003C0
F80003C0
F80003C0
FFFFFFC0
FFFFFFC0
FFFFFFC0
FFFFFFC0
F80003C0
F80003C0
F80003C0
F80003C0
F80003C0
F80003C0
F80003C0
F80003C0
F80003C0
F80003C0
F80003C0
F80003C0
F80003C0
F80003C0
F80003C0
F80003C0
F80003C0
ENDCHAR
STARTCHAR 0125
ENCODING 293
SWIDTH 540 0
DWIDTH 30 0
BBX 27 50 -1 0
BITMAP
07C00000
07E00000
0FF00000
1E780000
3C3C0000
781E0000
F00F0000
60060000
00000000
00000000
03C00000
03C00000
03C00000
03C00000
03C00000
03C00000
03C00000
03C00000
03C00000
03C00000
03C00000
03C00000
03C00000
03C0FC00
03C3FF00
03CFFF80
03DFFFC0
03FE0FC0
03F807E0
03F003E0
03E003E0
03C003E0
03C001E0
03C001E0
03C001E0
03C001E0
03C001E0
03C001E0
03C001E0
03C001E0
03C001E0
03C001E0
03C001E0
03C001E0
03C001E0
03C001E0
03C001E0
03C001E0
03C001E0
03C001E0
ENDCHAR
STARTCHAR 0126
ENCODING 294
SWIDTH 684 0
DWIDTH 38 0
BBX 34 37 2 0
BITMAP
0F80003C00
0F80003C00
0F80003C00
0F80003C00
0F80003C00
0F80003C00
3FFFFFFFC0
FFFFFFFFC0
FFFFFFFFC0
0F80003C00
0F80003C00
0F80003C00
0F80003C00
0F80003C00
0F80003C00
0FFFFFFC00
0FFFFFFC00
0FFFFFFC00
0FFFFFFC00
0F80003C00
0F80003C00
0F80003C00
0F80003C00
0F80003C00
0F80003C00
0F80003C00
0F80003C00
0F80003C00
0F80003C00
0F80003C00
0F80003C00
0F80003C00
0F80003C00
0F80003C00
0F80003C00
0F80003C00
0F80003C00
ENDCHAR
STARTCHAR 0127
ENCODING 295
SWIDTH 540 0
DWIDTH 30 0
BBX 26 40 0 0
BITMAP
07800000
07800000
07800000
07800000
07800000
3FFFE000
FFFFE000
FFFFE000
07800000
07800000
07800000
07800000
07800000
07800000
0781F800
0787FE00
079FFF00
07BFFF80
07FC1F80
07F00FC0
07E007C0
07C007C0
078007C0
078003C0
078003C0
078003C0
078003C0
078003C0
078003C0
078003C0
078003C0
078003C0
078003C0
078003C0
078003C0
078003C0
078003C0
078003C0
078003C0
078003C0
ENDCHAR
STARTCHAR 0128
ENCODING 296
SWIDTH 270 0
DWIDTH 15 0
BBX 20 47 -3 0
BITMAP
1F8070
3FE070
7FF0F0
78FDE0
707FE0
703FC0
F00F80
000000
000000
000000
00F800
00F800
00F800
00F800
00F800
00F800
00F800
00F800
00F800
00F800
00F800
00F800
00F800
00F800
00F800
00F800
00F800
00F800
00F800
00F800
00F800
00F800
00F800
00F800
00F800
00F800
00F800
00F800
00F800
00F800
00F800
00F800
00F800
00F800
00F800
00F800
00F800
ENDCHAR
STARTCHAR 0129
ENCODING 297
SWIDTH 252 0
DWIDTH 14 0
BBX 19 40 -3 0
BITMAP
1F00E0
3FC0E0
7FE0E0
79F0E0
70FBE0
F07FC0
E03F80
E00F00
000000
000000
000000
000000
000000
00F000
00F000
00F000
00F000
00F000
00F000
00F000
00F000
00F000
00F000
00F000
00F000
00F000
00F000
00F000
00F000
00F000
00F000
00F000
00F000
00F000
00F000
00F000
00F000
00F000
00F000
00F000
ENDCHAR
STARTCHAR 012A
ENCODING 298
SWIDTH 270 0
DWIDTH 15 0
BBX 15 44 0 0
BITMAP
FFFE
FFFE
FFFE
0000
0000
0000
0000
07C0
07C0
07C0
07C0
07C0
07C0
07C0
07C0
07C0
07C0
07C0
07C0
07C0
07C0
07C0
07C0
07C0
07C0
07C0
07C0
07C0
07C0
07C0
07C0
07C0
07C0
07C0
07C0
07C0
07C0
07C0
07C0
07C0
07C0
07C0
07C0
07C0
ENDCHAR
STARTCHAR 012B
ENCODING 299
SWIDTH 252 0
DWIDTH 14 0
BBX 15 37 -1 0
BITMAP
FFFE
FFFE
FFFE
0000
0000
0000
0000
0000
0000
0000
03C0
03C0
03C0
03C0
03C0
03C0
03C0
03C0
03C0
03C0
03C0
03C0
03C0
03C0
03C0
03C0
03C0
03C0
03C0
03C0
03C0
03C0
03C0
03C0
03C0
03C0
03C0
ENDCHAR
STARTCHAR 012C
ENCODING 300
SWIDTH 270 0
DWIDTH 15 0
BBX 16 48 -1 0
BITMAP
2000
E007
F007
700F
7C1E
3FFC
1FF8
07E0
0000
0000
0000
03E0
03E0
03E0
03E0
03E0
03E0
03E0
03E0
03E0
03E0
03E0
03E0
03E0
03E0
03E0
03E0
03E0
03E0
03E0
03E0
03E0
03E0
03E0
03E0
03E0
03E0
03E0
03E0
03E0
03E0
03E0
03E0
03E0
03E0
03E0
03E0
03E0
ENDCHAR
STARTCHAR 012D
ENCODING 301
SWIDTH 252 0
DWIDTH 14 0
BBX 18 40 -2 0
BITMAP
E001C0
F00380
700380
780780
3E1F00
3FFE00
0FFC00
07F000
000000
000000
000000
000000
000000
01E000
01E000
01E000
01E000
01E000
01E000
01E000
01E000
01E000
01E000
01E000
01E000
01E000
01E000
01E000
01E000
01E000
01E000
01E000
01E000
01E000
01E000
01E000
01E000
01E000
01E000
01E000
ENDCHAR
STARTCHAR 012E
ENCODING 302
SWIDTH 270 0
DWIDTH 15 0
BBX 10 48 2 -11
BITMAP
1F00
1F00
1F00
1F00
1F00
1F00
1F00
1F00
1F00
1F00
1F00
1F00
1F00
1F00
1F00
1F00
1F00
1F00
1F00
1F00
1F00
1F00
1F00
1F00
1F00
1F00
1F00
1F00
1F00
1F00
1F00
1F00
1F00
1F00
1F00
1F00
1F00
0E00
1C00
3800
7000
7000
F000
F000
7C80
7FC0
3FC0
1F00
ENDCHAR
STARTCHAR 012F
ENCODING 303
SWIDTH 252 0
DWIDTH 14 0
BBX 10 50 2 -11
BITMAP
1C00
3F00
3F00
3F00
3F00
1E00
0000
0000
0000
0000
0000
0000
1E00
1E00
1E00
1E00
1E00
1E00
1E00
1E00
1E00
1E00
1E00
1E00
1E00
1E00
1E00
1E00
1E00
1E00
1E00
1E00
1E00
1E00
1E00
1E00
1E00
1E00
1E00
1C00
3800
7800
7000
F000
F000
F000
F800
7F80
7FC0
1F00
ENDCHAR
STARTCHAR 0130
ENCODING 304
SWIDTH 270 0
DWIDTH 15 0
BBX 6 46 4 0
BITMAP
38
7C
FC
FC
7C
38
00
00
00
7C
7C
7C
7C
7C
7C
7C
7C
7C
7C
7C
7C
7C
7C
7C
7C
7C
7C
7C
7C
7C
7C
7C
7C
7C
7C
7C
7C
7C
7C
7C
7C
7C
7C
7C
7C
7C
ENDCHAR
STARTCHAR 0131
ENCODING 305
SWIDTH 252 0
DWIDTH 14 0
BBX 4 27 5 0
BITMAP
F0
F0
F0
F0
F0
F0
F0
F0
F0
F0
F0
F0
F0
F0
F0
F0
F0
F0
F0
F0
F0
F0
F0
F0
F0
F0
F0
ENDCHAR
STARTCHAR 0132
ENCODING 306
SWIDTH 522 0
DWIDTH 29 0
BBX 19 46 5 -9
BITMAP
F801E0
F801E0
F801E0
F801E0
F801E0
F801E0
F801E0
F801E0
F801E0
F801E0
F801E0
F801E0
F801E0
F801E0
F801E0
F801E0
F801E0
F801E0
F801E0
F801E0
F801E0
F801E0
F801E0
F801E0
F801E0
F801E0
F801E0
F801E0
F801E0
F801E0
F801E0
F801E0
F801E0
F801E0
F801E0
F801E0
F801E0
0001E0
0001E0
0003E0
0003E0
0007E0
00FFC0
00FFC0
00FF80
00FE00
ENDCHAR
STARTCHAR 0133
ENCODING 307
SWIDTH 486 0
DWIDTH 27 0
BBX 20 50 4 -11
BITMAP
7801C0
FC03E0
FC03F0
FC07F0
FC03E0
7801C0
000000
000000
000000
000000
000000
7803E0
7803E0
7803E0
7803E0
7803E0
7803E0
7803E0
7803E0
7803E0
7803E0
7803E0
7803E0
7803E0
7803E0
7803E0
7803E0
7803E0
7803E0
7803E0
7803E0
7803E0
7803E0
7803E0
7803E0
7803E0
7803E0
7803E0
0003E0
0003E0
0003E0
0003E0
0003E0
0003E0
0003E0
0007C0
00FFC0
00FF80
00FF00
00FC00
ENDCHAR
STARTCHAR 0134
ENCODING 308
SWIDTH 486 0
DWIDTH 27 0
BBX 25 47 2 0
BITMAP
0003F000
0003F800
0007FC00
000F1E00
001E0F00
003C0780
00700380
00000100
00000000
00000000
0001F000
0001F000
0001F000
0001F000
0001F000
0001F000
0001F000
0001F000
0001F000
0001F000
0001F000
0001F000
0001F000
0001F000
0001F000
0001F000
0001F000
0001F000
0001F000
0001F000
0001F000
0001F000
0001F000
0001F000
0001F000
0001F000
0001F000
0001F000
0001F000
2001E000
7003E000
F807E000
7E0FC000
7FFFC000
3FFF8000
0FFE0000
03F80000
ENDCHAR
STARTCHAR 0135
ENCODING 309
SWIDTH 252 0
DWIDTH 14 0
BBX 17 52 -2 -11
BITMAP
03F000
07F000
07F800
0FFC00
1E3E00
3C1F00
780F80
F00780
600380
000000
000000
000000
000000
000000
01E000
01E000
01E000
01E000
01E000
01E000
01E000
01E000
01E000
01E000
01E000
01E000
01E000
01E000
01E000
01E000
01E000
01E000
01E000
01E000
01E000
01E000
01E000
01E000
01E000
01E000
01E000
01E000
01E000
01E000
01E000
03E000
03E000
03E000
7FC000
FFC000
FF8000
FE0000
ENDCHAR
STARTCHAR 0136
ENCODING 310
SWIDTH 576 0
DWIDTH 32 0
BBX 27 49 5 -12
BITMAP
F8000F80
F8001F00
F8003E00
F8007C00
F800FC00
F801F800
F801F000
F803E000
F807C000
F80F8000
F81F8000
F81F0000
F83E0000
F87C0000
F8FC0000
F9FE0000
FBFE0000
FBFF0000
FFDF0000
FF8F8000
FF8F8000
FF07C000
FE03E000
FC03E000
F801F000
F801F000
F800F800
F800F800
F8007C00
F8007E00
F8003E00
F8001F00
F8001F00
F8000F80
F8000FC0
F80007C0
F80007E0
00000000
00000000
00000000
001C0000
003F0000
000F8000
00038000
00038000
00038000
000F8000
00FF0000
00F80000
ENDCHAR
STARTCHAR 0137
ENCODING 311
SWIDTH 504 0
DWIDTH 28 0
BBX 22 52 5 -12
BITMAP
F00000
F00000
F00000
F00000
F00000
F00000
F00000
F00000
F00000
F00000
F00000
F00000
F00000
F001F0
F001F0
F003E0
F007C0
F00F80
F01F00
F03E00
F03E00
F07C00
F0F800
F1F000
F3F000
F3F800
F7F800
FFFC00
FF3E00
FE1E00
FC1F00
F80F80
F00F80
F007C0
F003E0
F003E0
F001F0
F001F0
F000F8
F0007C
000000
000000
000000
00E000
01F800
007C00
001C00
001C00
003C00
007C00
07F800
07C000
ENDCHAR
STARTCHAR 0138
ENCODING 312
SWIDTH 504 0
DWIDTH 28 0
BBX 22 27 5 0
BITMAP
F001F0
F001F0
F003E0
F007C0
F00F80
F01F00
F01E00
F03E00
F07C00
F0F800
F1F000
F1F000
F3F800
F7FC00
FFFC00
FF3E00
FE1E00
FC1F00
F80F80
F80F80
F007C0
F003E0
F003E0
F001F0
F001F0
F000F8
F0007C
ENDCHAR
STARTCHAR 0139
ENCODING 313
SWIDTH 486 0
DWIDTH 27 0
BBX 21 49 5 0
BITMAP
010000
030000
078000
0FC000
1F0000
3E0000
FC0000
F00000
E00000
400000
000000
000000
F80000
F80000
F80000
F80000
F80000
F80000
F80000
F80000
F80000
F80000
F80000
F80000
F80000
F80000
F80000
F80000
F80000
F80000
F80000
F80000
F80000
F80000
F80000
F80000
F80000
F80000
F80000
F80000
F80000
F80000
F80000
F80000
F80000
FFFFF8
FFFFF8
FFFFF8
FFFFF8
ENDCHAR
STARTCHAR 013A
ENCODING 314
SWIDTH 252 0
DWIDTH 14 0
BBX 10 52 4 0
BITMAP
0100
0300
0780
0FC0
1F80
3F00
7C00
F800
F000
4000
0000
0000
7800
7800
7800
7800
7800
7800
7800
7800
7800
7800
7800
7800
7800
7800
7800
7800
7800
7800
7800
7800
7800
7800
7800
7800
7800
7800
7800
7800
7800
7800
7800
7800
7800
7800
7800
7800
7E00
7F00
3F00
1F00
ENDCHAR
STARTCHAR 013B
ENCODING 315
SWIDTH 486 0
DWIDTH 27 0
BBX 21 49 5 -12
BITMAP
F80000
F80000
F80000
F80000
F80000
F80000
F80000
F80000
F80000
F80000
F80000
F80000
F80000
F80000
F80000
F80000
F80000
F80000
F80000
F80000
F80000
F80000
F80000
F80000
F80000
F80000
F80000
F80000
F80000
F80000
F80000
F80000
F80000
FFFFF8
FFFFF8
FFFFF8
FFFFF8
000000
000000
000000
007000
00FC00
003E00
000E00
000E00
001E00
007E00
03F800
03E000
ENDCHAR
STARTCHAR 013C
ENCODING 316
SWIDTH 252 0
DWIDTH 14 0
BBX 9 52 4 -12
BITMAP
7800
7800
7800
7800
7800
7800
7800
7800
7800
7800
7800
7800
7800
7800
7800
7800
7800
7800
7800
7800
7800
7800
7800
7800
7800
7800
7800
7800
7800
7800
7800
7800
7800
7800
7800
7800
7E00
7F00
3F00
1F00
0000
0000
0000
3C00
3F00
0F80
0780
0380
0780
3F00
FE00
F000
ENDCHAR
STARTCHAR 013D
ENCODING 317
SWIDTH 486 0
DWIDTH 27 0
BBX 21 41 5 0
BITMAP
000780
000780
000780
000780
F80700
F80700
F80700
F80700
F80700
F80700
F80700
F80300
F80000
F80000
F80000
F80000
F80000
F80000
F80000
F80000
F80000
F80000
F80000
F80000
F80000
F80000
F80000
F80000
F80000
F80000
F80000
F80000
F80000
F80000
F80000
F80000
F80000
FFFFF8
FFFFF8
FFFFF8
FFFFF8
ENDCHAR
STARTCHAR 013E
ENCODING 318
SWIDTH 270 0
DWIDTH 15 0
BBX 10 43 5 0
BITMAP
01C0
01C0
01C0
F1C0
F1C0
F1C0
F1C0
F1C0
F1C0
F1C0
F1C0
F1C0
F000
F000
F000
F000
F000
F000
F000
F000
F000
F000
F000
F000
F000
F000
F000
F000
F000
F000
F000
F000
F000
F000
F000
F000
F000
F000
F000
FC00
FE00
7E00
3E00
ENDCHAR
STARTCHAR 013F
ENCODING 319
SWIDTH 486 0
DWIDTH 27 0
BBX 21 37 5 0
BITMAP
F80000
F80000
F80000
F80000
F80000
F80000
F80000
F80000
F80000
F80000
F80000
F80000
F80000
F80000
F80000
F803C0
F807E0
F807E0
F807E0
F807E0
F807E0
F803C0
F80000
F80000
F80000
F80000
F80000
F80000
F80000
F80000
F80000
F80000
F80000
FFFFF8
FFFFF8
FFFFF8
FFFFF8
ENDCHAR
STARTCHAR 0140
ENCODING 320
SWIDTH 360 0
DWIDTH 20 0
BBX 15 40 5 0
BITMAP
F000
F000
F000
F000
F000
F000
F000
F000
F000
F000
F000
F000
F000
F000
F000
F000
F000
F000
F03C
F07E
F07E
F07E
F07E
F07E
F03C
F000
F000
F000
F000
F000
F000
F000
F000
F000
F000
F000
FC00
FE00
7E00
3E00
ENDCHAR
STARTCHAR 0141
ENCODING 321
SWIDTH 486 0
DWIDTH 27 0
BBX 26 37 0 0
BITMAP
07C00000
07C00000
07C00000
07C00000
07C00000
07C00000
07C00000
07C00000
07C00000
07C00000
07C00000
07C00000
07C01000
07C07000
07C1F800
07C3F800
07CFE000
07FF8000
07FE0000
07F80000
0FF00000
3FC00000
FFC00000
FFC00000
77C00000
47C00000
07C00000
07C00000
07C00000
07C00000
07C00000
07C00000
07C00000
07FFFFC0
07FFFFC0
07FFFFC0
07FFFFC0
ENDCHAR
STARTCHAR 0142
ENCODING 322
SWIDTH 270 0
DWIDTH 15 0
BBX 14 40 0 0
BITMAP
0780
0780
0780
0780
0780
0780
0780
0780
0780
0780
0780
0780
0780
0798
07B8
07FC
07F8
0FE0
1FC0
7F80
FF80
7780
4780
0780
0780
0780
0780
0780
0780
0780
0780
0780
0780
0780
0780
07C0
07F0
07F0
03F0
01F0
ENDCHAR
STARTCHAR 0143
ENCODING 323
SWIDTH 648 0
DWIDTH 36 0
BBX 26 48 5 1
BITMAP
00006000
0000F000
0003F000
0007E000
000FC000
001F0000
003E0000
001C0000
00080000
00000000
00000000
F80003C0
FC0003C0
FC0003C0
FE0003C0
FE0003C0
FF0003C0
FF0003C0
F78003C0
F7C003C0
F3C003C0
F3E003C0
F1E003C0
F1F003C0
F0F003C0
F0F803C0
F07C03C0
F03C03C0
F03E03C0
F01E03C0
F01F03C0
F00F03C0
F00F83C0
F00783C0
F007C3C0
F003E3C0
F001E3C0
F001F3C0
F000F3C0
F000FBC0
F0007BC0
F0007FC0
F0003FC0
F0001FC0
F0001FC0
F0000FC0
F0000FC0
F00007C0
ENDCHAR
STARTCHAR 0144
ENCODING 324
SWIDTH 540 0
DWIDTH 30 0
BBX 21 43 5 0
BITMAP
000180
0003C0
0003E0
0007C0
000F80
001F00
003E00
007C00
00F800
007000
002000
000000
000000
000000
000000
000000
E03F00
E0FFC0
F3FFE0
F7FFF0
FF83F0
FE01F8
FC00F8
F800F8
F000F8
F00078
F00078
F00078
F00078
F00078
F00078
F00078
F00078
F00078
F00078
F00078
F00078
F00078
F00078
F00078
F00078
F00078
F00078
ENDCHAR
STARTCHAR 0145
ENCODING 325
SWIDTH 648 0
DWIDTH 36 0
BBX 26 49 5 -12
BITMAP
F80003C0
FC0003C0
FC0003C0
FE0003C0
FE0003C0
FF0003C0
FF0003C0
F78003C0
F7C003C0
F3C003C0
F3E003C0
F1E003C0
F1F003C0
F0F003C0
F0F803C0
F07C03C0
F03C03C0
F03E03C0
F01E03C0
F01F03C0
F00F03C0
F00F83C0
F00783C0
F007C3C0
F003E3C0
F001E3C0
F001F3C0
F000F3C0
F000FBC0
F0007BC0
F0007FC0
F0003FC0
F0001FC0
F0001FC0
F0000FC0
F0000FC0
F00007C0
00000000
00000000
00000000
001C0000
003F0000
000F8000
0003C000
0003C000
00038000
000F8000
00FF0000
00F80000
ENDCHAR
STARTCHAR 0146
ENCODING 326
SWIDTH 540 0
DWIDTH 30 0
BBX 21 39 5 -12
BITMAP
E03F00
E0FFC0
F3FFE0
F7FFF0
FF83F0
FE01F8
FC00F8
F800F8
F000F8
F00078
F00078
F00078
F00078
F00078
F00078
F00078
F00078
F00078
F00078
F00078
F00078
F00078
F00078
F00078
F00078
F00078
F00078
000000
000000
000000
00E000
00FC00
007C00
001E00
001E00
001E00
007C00
07F800
07E000
ENDCHAR
STARTCHAR 0147
ENCODING 327
SWIDTH 648 0
DWIDTH 36 0
BBX 26 48 5 0
BITMAP
00001000
07003800
03C07800
01E0F000
00F3E000
00FFC000
007F8000
003F0000
00000000
00000000
00000000
F80003C0
FC0003C0
FC0003C0
FE0003C0
FE0003C0
FF0003C0
FF0003C0
F78003C0
F7C003C0
F3C003C0
F3E003C0
F1E003C0
F1F003C0
F0F003C0
F0F803C0
F07C03C0
F03C03C0
F03E03C0
F01E03C0
F01F03C0
F00F03C0
F00F83C0
F00783C0
F007C3C0
F003E3C0
F001E3C0
F001F3C0
F000F3C0
F000FBC0
F0007BC0
F0007FC0
F0003FC0
F0001FC0
F0001FC0
F0000FC0
F0000FC0
F00007C0
ENDCHAR
STARTCHAR 0148
ENCODING 328
SWIDTH 540 0
DWIDTH 30 0
BBX 21 42 5 0
BITMAP
080000
1C0060
1E00E0
0F01E0
0F83C0
07C780
03EF00
01FF00
00FE00
00FC00
000000
000000
000000
000000
000000
E03F00
E0FFC0
F3FFE0
F7FFF0
FF83F0
FE01F8
FC00F8
F800F8
F000F8
F00078
F00078
F00078
F00078
F00078
F00078
F00078
F00078
F00078
F00078
F00078
F00078
F00078
F00078
F00078
F00078
F00078
F00078
ENDCHAR
STARTCHAR 0149
ENCODING 329
SWIDTH 774 0
DWIDTH 43 0
BBX 35 38 4 0
BITMAP
3800000000
7C00000000
FC00000000
FE00000000
7E00000000
3E00000000
0E00000000
1C00000000
1C00000000
3C00000000
3800000000
F00781FC00
E00787FE00
C0078FFF00
0007BFFF80
0007FC1FC0
0007F007C0
0007E007C0
0007C003C0
00078003C0
00078003E0
00078003E0
00078003E0
00078003E0
00078003E0
00078003E0
00078003E0
00078003E0
00078003E0
00078003E0
00078003E0
00078003E0
00078003E0
00078003E0
00078003E0
00078003E0
00078003E0
00078003E0
ENDCHAR
STARTCHAR 014A
ENCODING 330
SWIDTH 630 0
DWIDTH 35 0
BBX 27 37 5 0
BITMAP
000FE000
F87FF800
F8FFFC00
FBFFFE00
FFE07F00
FF801F80
FE000F80
FC000FC0
F80007C0
F80007C0
F80003E0
F80003E0
F80003E0
F80003E0
F80003E0
F80001E0
F80001E0
F80001E0
F80001E0
F80001E0
F80001E0
F80001E0
F80003E0
F80003E0
F80003E0
F80003E0
F80003E0
F80003E0
F80007C0
F80007C0
F80007C0
F8000F80
F8033F80
F803FF00
F803FE00
F807FC00
0003F000
ENDCHAR
STARTCHAR 014B
ENCODING 331
SWIDTH 540 0
DWIDTH 30 0
BBX 21 37 5 -10
BITMAP
E03F00
E0FFC0
F3FFE0
F7FFF0
FF83F0
FE01F8
FC00F8
F800F8
F000F8
F00078
F00078
F00078
F00078
F00078
F00078
F00078
F00078
F00078
F00078
F00078
F00078
F00078
F00078
F00078
F00078
F00078
F00078
000078
000078
000078
0000F8
0000F8
0000F8
001FF0
003FF0
003FE0
003F80
ENDCHAR
STARTCHAR 014C
ENCODING 332
SWIDTH 666 0
DWIDTH 37 0
BBX 31 44 3 0
BITMAP
00FFFE00
00FFFE00
00FFFE00
00000000
00000000
00000000
00000000
000FF000
007FFC00
01FFFF00
03FFFF80
07F03FC0
0FC007E0
1F8003F0
3F0001F8
3E0000F8
3E0000FC
7C00007C
7C00007C
7800007C
F800003E
F800003E
F800003E
F800003E
F800003E
F800003E
F800003E
F800003E
F800003E
F800003E
F800003E
7C00007C
7C00007C
7C00007C
3E0000F8
3E0000F8
1F0001F0
1F8003F0
0FC007E0
07F81FC0
03FFFF80
01FFFF00
007FFC00
001FE000
ENDCHAR
STARTCHAR 014D
ENCODING 333
SWIDTH 540 0
DWIDTH 30 0
BBX 25 37 3 0
BITMAP
07FFE000
07FFE000
07FFE000
00000000
00000000
00000000
00000000
00000000
00000000
00000000
007F0000
03FFC000
07FFF000
1FFFF800
1F81FC00
3E007C00
7C003E00
7C003E00
F8001F00
F8001F00
F8000F00
F0000F00
F0000F80
F0000F80
F0000F80
F0000F00
F8000F00
F8001F00
F8001F00
7C003E00
7C003E00
3E007C00
3F81FC00
1FFFF800
07FFF000
03FFC000
00FE0000
ENDCHAR
STARTCHAR 014E
ENCODING 334
SWIDTH 666 0
DWIDTH 37 0
BBX 31 47 3 0
BITMAP
00400400
01C00E00
00E00E00
00F01E00
00783C00
007FFC00
003FF000
000FC000
00000000
00000000
000FF000
007FFC00
01FFFF00
03FFFF80
07F03FC0
0FC007E0
1F8003F0
3F0001F8
3E0000F8
3E0000FC
7C00007C
7C00007C
7800007C
F800003E
F800003E
F800003E
F800003E
F800003E
F800003E
F800003E
F800003E
F800003E
F800003E
F800003E
7C00007C
7C00007C
7C00007C
3E0000F8
3E0000F8
1F0001F0
1F8003F0
0FC007E0
07F81FC0
03FFFF80
01FFFF00
007FFC00
001FE000
ENDCHAR
STARTCHAR 014F
ENCODING 335
SWIDTH 540 0
DWIDTH 30 0
BBX 25 40 3 0
BITMAP
1C003800
0E007800
0E007000
0F007000
0780F000
07C3E000
03FFC000
01FF8000
007E0000
00000000
00000000
00000000
00000000
007F0000
03FFC000
07FFF000
1FFFF800
1F81FC00
3E007C00
7C003E00
7C003E00
F8001F00
F8001F00
F8000F00
F0000F00
F0000F80
F0000F80
F0000F80
F0000F00
F8000F00
F8001F00
F8001F00
7C003E00
7C003E00
3E007C00
3F81FC00
1FFFF800
07FFF000
03FFC000
00FE0000
ENDCHAR
STARTCHAR 0150
ENCODING 336
SWIDTH 666 0
DWIDTH 37 0
BBX 31 48 3 1
BITMAP
000381C0
0003C1E0
000783C0
000F0780
000F0700
001E0F00
001C1E00
00381C00
00180800
00000000
00000000
000FF000
007FFC00
01FFFF00
03FFFF80
07F03FC0
0FC007E0
1F8003F0
3F0001F8
3E0000F8
3E0000FC
7C00007C
7C00007C
7800007C
F800003E
F800003E
F800003E
F800003E
F800003E
F800003E
F800003E
F800003E
F800003E
F800003E
F800003E
7C00007C
7C00007C
7C00007C
3E0000F8
3E0000F8
1F0001F0
1F8003F0
0FC007E0
07F81FC0
03FFFF80
01FFFF00
007FFC00
001FE000
ENDCHAR
STARTCHAR 0151
ENCODING 337
SWIDTH 540 0
DWIDTH 30 0
BBX 25 42 3 0
BITMAP
00100000
001C1C00
003C1E00
003C3C00
00783C00
00787800
00F07000
00E0F000
01E0E000
01C1E000
00C0C000
00000000
00000000
00000000
00000000
007F0000
03FFC000
07FFF000
1FFFF800
1F81FC00
3E007C00
7C003E00
7C003E00
F8001F00
F8001F00
F8000F00
F0000F00
F0000F80
F0000F80
F0000F80
F0000F00
F8000F00
F8001F00
F8001F00
7C003E00
7C003E00
3E007C00
3F81FC00
1FFFF800
07FFF000
03FFC000
00FE0000
ENDCHAR
STARTCHAR 0152
ENCODING 338
SWIDTH 846 0
DWIDTH 47 0
BBX 41 37 3 0
BITMAP
0007FFFFFF80
003FFFFFFF80
00FFFFFFFF80
03FFFFFFFF80
07F807800000
0FE007800000
1F8007800000
1F0007800000
3E0007800000
3E0007800000
7C0007800000
7C0007800000
780007800000
F80007800000
F80007800000
F80007800000
F80007FFFC00
F80007FFFC00
F80007FFFC00
F80007FFFC00
F80007800000
F80007800000
F80007800000
F80007800000
780007800000
7C0007800000
7C0007800000
7E0007800000
3E0007800000
3F0007800000
1F8007800000
0FE007800000
07F807800000
03FFFFFFFF80
01FFFFFFFF80
007FFFFFFF80
0007FFFFFF80
ENDCHAR
STARTCHAR 0153
ENCODING 339
SWIDTH 846 0
DWIDTH 47 0
BBX 42 27 3 0
BITMAP
00FE000FE000
03FF803FF800
07FFE07FFC00
1FFFF0FFFE00
1F81F1F03F00
3E00FBC01F00
7C007BC00F80
7C003F800780
F8003F000780
F8001F000780
F8001F000780
F0001F0007C0
F0001FFFFFC0
F0001FFFFFC0
F0001FFFFF80
F0001F000000
F8001F000000
F8001F000000
F8001F000000
7C003F800000
7C007FC00000
3E007BE00200
3F81F1F80E00
1FFFF0FFFF00
0FFFE07FFF00
03FF803FFC00
00FE000FE000
ENDCHAR
STARTCHAR 0154
ENCODING 340
SWIDTH 576 0
DWIDTH 32 0
BBX 25 48 5 1
BITMAP
00018000
0007C000
000FC000
001F8000
003F0000
007C0000
00F80000
00700000
00000000
00000000
00000000
FFFF0000
FFFFE000
FFFFF800
FFFFFC00
F800FE00
F8003E00
F8001F00
F8001F00
F8001F00
F8000F00
F8000F00
F8001F00
F8001F00
F8001F00
F8003E00
F8007E00
F801FC00
FFFFF800
FFFFF000
FFFFE000
FFFF0000
F81F8000
F80F8000
F807C000
F807C000
F803E000
F803E000
F801F000
F801F000
F800F800
F800FC00
F8007C00
F8003E00
F8003E00
F8001F00
F8001F00
F8000F80
ENDCHAR
STARTCHAR 0155
ENCODING 341
SWIDTH 342 0
DWIDTH 19 0
BBX 15 43 5 0
BITMAP
0018
003C
007E
007C
00F8
01F0
03E0
07C0
0F80
0700
0200
0000
0000
0000
0000
0000
E07C
E1FC
F3FC
F7FC
F784
FE00
FC00
FC00
F800
F000
F000
F000
F000
F000
F000
F000
F000
F000
F000
F000
F000
F000
F000
F000
F000
F000
F000
ENDCHAR
STARTCHAR 0156
ENCODING 342
SWIDTH 576 0
DWIDTH 32 0
BBX 25 49 5 -12
BITMAP
FFFF0000
FFFFE000
FFFFF800
FFFFFC00
F800FE00
F8003E00
F8001F00
F8001F00
F8001F00
F8000F00
F8000F00
F8001F00
F8001F00
F8001F00
F8003E00
F8007E00
F801FC00
FFFFF800
FFFFF000
FFFFE000
FFFF0000
F81F8000
F80F8000
F807C000
F807C000
F803E000
F803E000
F801F000
F801F000
F800F800
F800FC00
F8007C00
F8003E00
F8003E00
F8001F00
F8001F00
F8000F80
00000000
00000000
00000000
00780000
007E0000
001F0000
000F0000
00070000
000F0000
003E0000
01FC0000
01F00000
ENDCHAR
STARTCHAR 0157
ENCODING 343
SWIDTH 342 0
DWIDTH 19 0
BBX 17 39 2 -12
BITMAP
1C0F80
1C3F80
1E7F80
1EFF80
1EF080
1FC000
1F8000
1F8000
1F0000
1E0000
1E0000
1E0000
1E0000
1E0000
1E0000
1E0000
1E0000
1E0000
1E0000
1E0000
1E0000
1E0000
1E0000
1E0000
1E0000
1E0000
1E0000
000000
000000
000000
380000
3F0000
0F8000
078000
078000
078000
1F0000
FE0000
F80000
ENDCHAR
STARTCHAR 0158
ENCODING 344
SWIDTH 576 0
DWIDTH 32 0
BBX 25 48 5 0
BITMAP
08004000
1C00E000
1E01E000
0F87C000
07CF8000
03FF0000
01FE0000
00FC0000
00000000
00000000
00000000
FFFF0000
FFFFE000
FFFFF800
FFFFFC00
F800FE00
F8003E00
F8001F00
F8001F00
F8001F00
F8000F00
F8000F00
F8001F00
F8001F00
F8001F00
F8003E00
F8007E00
F801FC00
FFFFF800
FFFFF000
FFFFE000
FFFF0000
F81F8000
F80F8000
F807C000
F807C000
F803E000
F803E000
F801F000
F801F000
F800F800
F800FC00
F8007C00
F8003E00
F8003E00
F8001F00
F8001F00
F8000F80
ENDCHAR
STARTCHAR 0159
ENCODING 345
SWIDTH 342 0
DWIDTH 19 0
BBX 16 42 4 0
BITMAP
4000
E003
F007
780F
7C1E
3E3C
1F78
0FF8
0FF0
07E0
0000
0000
0000
0000
0000
703E
70FE
79FE
7BFE
7BC2
7F00
7E00
7E00
7C00
7800
7800
7800
7800
7800
7800
7800
7800
7800
7800
7800
7800
7800
7800
7800
7800
7800
7800
ENDCHAR
STARTCHAR 015A
ENCODING 346
SWIDTH 540 0
DWIDTH 30 0
BBX 26 48 2 0
BITMAP
00002000
00007000
0000F800
0003F000
0007E000
000FC000
001F0000
001E0000
000C0000
00000000
00000000
003F8000
01FFF000
03FFFC00
07FFFE00
0FE07F00
1F801E00
1F000600
3E000000
3E000000
3E000000
3E000000
3E000000
1F000000
1F800000
0FE00000
0FFC0000
03FF0000
01FFC000
007FF800
001FFC00
0003FE00
0000FF00
00003F80
00001F80
00000F80
00000780
000007C0
000007C0
00000780
30000F80
7C000F80
FE001F00
7FC07F00
3FFFFE00
0FFFFC00
03FFF000
007F8000
ENDCHAR
STARTCHAR 015B
ENCODING 347
SWIDTH 414 0
DWIDTH 23 0
BBX 20 42 2 1
BITMAP
000300
000780
000FC0
001F80
001F00
003E00
007C00
00F800
01F000
00E000
004000
000000
000000
000000
000000
01FC00
0FFF00
1FFFC0
3FFFC0
3E0380
7C0080
780000
780000
7C0000
7E0000
3F0000
1FE000
0FFC00
03FF00
00FF80
001FC0
0007E0
0003E0
0001E0
0001F0
0001E0
6001E0
F807E0
FFFFC0
7FFF80
1FFF00
03F800
ENDCHAR
STARTCHAR 015C
ENCODING 348
SWIDTH 540 0
DWIDTH 30 0
BBX 26 47 2 0
BITMAP
001F0000
003F8000
007FC000
00FBE000
01F1F000
03C0F800
03803800
03001800
00000000
00000000
003F8000
01FFF000
03FFFC00
07FFFE00
0FE07F00
1F801E00
1F000600
3E000000
3E000000
3E000000
3E000000
3E000000
1F000000
1F800000
0FE00000
0FFC0000
03FF0000
01FFC000
007FF800
001FFC00
0003FE00
0000FF00
00003F80
00001F80
00000F80
00000780
000007C0
000007C0
00000780
30000F80
7C000F80
FE001F00
7FC07F00
3FFFFE00
0FFFFC00
03FFF000
007F8000
ENDCHAR
STARTCHAR 015D
ENCODING 349
SWIDTH 414 0
DWIDTH 23 0
BBX 20 40 2 0
BITMAP
01F800
03FC00
03FE00
07DF00
0F8F00
1E0780
3C03C0
3801E0
1000C0
000000
000000
000000
000000
01FC00
0FFF00
1FFFC0
3FFFC0
3E0380
7C0080
780000
780000
7C0000
7E0000
3F0000
1FE000
0FFC00
03FF00
00FF80
001FC0
0007E0
0003E0
0001E0
0001F0
0001E0
6001E0
F807E0
FFFFC0
7FFF80
1FFF00
03F800
ENDCHAR
STARTCHAR 015E
ENCODING 350
SWIDTH 540 0
DWIDTH 30 0
BBX 26 49 2 -12
BITMAP
003F8000
01FFF000
03FFFC00
07FFFE00
0FE07F00
1F801E00
1F000600
3E000000
3E000000
3E000000
3E000000
3E000000
1F000000
1F800000
0FE00000
0FFC0000
03FF0000
01FFC000
007FF000
001FFC00
0003FE00
0000FF00
00003F80
00001F80
00000F80
00000780
000007C0
00000780
00000780
30000F80
7C000F80
FE001F00
7FC07F00
3FFFFE00
0FFFFC00
03FFF000
007F8000
001E0000
001C0000
001C0000
003E0000
001F8000
00078000
0003C000
00038000
00078000
003F8000
00FE0000
00F00000
ENDCHAR
STARTCHAR 015F
ENCODING 351
SWIDTH 414 0
DWIDTH 23 0
BBX 20 39 2 -12
BITMAP
01FC00
0FFF00
1FFFC0
3FFFC0
3E0380
7C0080
780000
780000
7C0000
7E0000
3F0000
1FE000
0FFC00
03FF00
00FF80
001FC0
0007E0
0003E0
0001E0
0001F0
0001E0
6001E0
F807E0
FFFFC0
7FFF80
1FFF00
03F800
007000
00E000
00E000
01F000
00FC00
003C00
001E00
001E00
003C00
00FC00
07F000
07C000
ENDCHAR
STARTCHAR 0160
ENCODING 352
SWIDTH 540 0
DWIDTH 30 0
BBX 26 47 2 0
BITMAP
01001000
03803800
03C07800
01E0F000
00F1E000
007FC000
003F8000
001F0000
00000000
00000000
003F8000
01FFF000
03FFFC00
07FFFE00
0FE07F00
1F801E00
1F000600
3E000000
3E000000
3E000000
3E000000
3E000000
1F000000
1F800000
0FE00000
0FFC0000
03FF0000
01FFC000
007FF800
001FFC00
0003FE00
0000FF00
00003F80
00001F80
00000F80
00000780
000007C0
000007C0
00000780
30000F80
7C000F80
FE001F00
7FC07F00
3FFFFE00
0FFFFC00
03FFF000
007F8000
ENDCHAR
STARTCHAR 0161
ENCODING 353
SWIDTH 414 0
DWIDTH 23 0
BBX 20 42 2 0
BITMAP
100000
3800C0
3C01C0
1E03C0
1F0780
0F8F00
07DE00
03FE00
01FC00
01F800
000000
000000
000000
000000
000000
01FC00
0FFF00
1FFFC0
3FFFC0
3E0380
7C0080
780000
780000
7C0000
7E0000
3F0000
1FE000
0FFC00
03FF00
00FF80
001FC0
0007E0
0003E0
0001E0
0001F0
0001E0
6001E0
F807E0
FFFFC0
7FFF80
1FFF00
03F800
ENDCHAR
STARTCHAR 0162
ENCODING 354
SWIDTH 540 0
DWIDTH 30 0
BBX 26 49 2 -12
BITMAP
FFFFFFC0
FFFFFFC0
FFFFFFC0
FFFFFFC0
001E0000
001E0000
001E0000
001E0000
001E0000
001E0000
001E0000
001E0000
001E0000
001E0000
001E0000
001E0000
001E0000
001E0000
001E0000
001E0000
001E0000
001E0000
001E0000
001E0000
001E0000
001E0000
001E0000
001E0000
001E0000
001E0000
001E0000
001E0000
001E0000
001E0000
001E0000
001E0000
001E0000
001C0000
001C0000
00380000
00380000
007F0000
000F8000
00078000
00078000
00078000
001F0000
00FE0000
00F80000
ENDCHAR
STARTCHAR 0163
ENCODING 355
SWIDTH 342 0
DWIDTH 19 0
BBX 17 47 1 -12
BITMAP
078000
078000
078000
078000
078000
078000
078000
078000
FFFF00
FFFF00
FFFF00
FFFF00
0F8000
0F8000
0F8000
0F8000
0F8000
0F8000
0F8000
0F8000
0F8000
0F8000
0F8000
0F8000
0F8000
0F8000
0F8000
0F8000
0F8000
07C000
07C000
07FF00
03FF80
01FF80
00FE00
007000
007000
00F000
00F800
00FE00
001E00
000E00
000E00
001E00
00FC00
03F800
03C000
ENDCHAR
STARTCHAR 0164
ENCODING 356
SWIDTH 540 0
DWIDTH 30 0
BBX 26 48 2 0
BITMAP
02000000
07003800
0780F000
03C1E000
01F3C000
00FFC000
007F8000
003F0000
00000000
00000000
00000000
FFFFFFC0
FFFFFFC0
FFFFFFC0
FFFFFFC0
001E0000
001E0000
001E0000
001E0000
001E0000
001E0000
001E0000
001E0000
001E0000
001E0000
001E0000
001E0000
001E0000
001E0000
001E0000
001E0000
001E0000
001E0000
001E0000
001E0000
001E0000
001E0000
001E0000
001E0000
001E0000
001E0000
001E0000
001E0000
001E0000
001E0000
001E0000
001E0000
001E0000
ENDCHAR
STARTCHAR 0165
ENCODING 357
SWIDTH 342 0
DWIDTH 19 0
BBX 17 43 1 0
BITMAP
000700
000700
000700
000700
000700
000700
000700
000700
078700
078700
078700
078700
078000
078000
078000
078000
FFFF00
FFFF00
FFFF00
FFFF00
0F8000
0F8000
0F8000
0F8000
0F8000
0F8000
0F8000
0F8000
0F8000
0F8000
0F8000
0F8000
0F8000
0F8000
0F8000
0F8000
0F8000
07C000
07C000
07FF00
03FF80
01FF80
007E00
ENDCHAR
STARTCHAR 0166
ENCODING 358
SWIDTH 540 0
DWIDTH 30 0
BBX 26 37 2 0
BITMAP
FFFFFFC0
FFFFFFC0
FFFFFFC0
FFFFFFC0
001E0000
001E0000
001E0000
001E0000
001E0000
001E0000
001E0000
001E0000
001E0000
001E0000
001E0000
001E0000
07FFFC00
0FFFFC00
0FFFFC00
001E0000
001E0000
001E0000
001E0000
001E0000
001E0000
001E0000
001E0000
001E0000
001E0000
001E0000
001E0000
001E0000
001E0000
001E0000
001E0000
001E0000
001E0000
ENDCHAR
STARTCHAR 0167
ENCODING 359
SWIDTH 342 0
DWIDTH 19 0
BBX 17 35 1 0
BITMAP
078000
078000
078000
078000
078000
078000
078000
078000
FFFF00
FFFF00
FFFF00
FFFF00
0F8000
0F8000
0F8000
0F8000
0F8000
0F8000
0F8000
3FFF00
FFFF00
FFFF00
0F8000
0F8000
0F8000
0F8000
0F8000
0F8000
0F8000
07C000
07C000
07FF00
03FF80
01FF80
007E00
ENDCHAR
STARTCHAR 0168
ENCODING 360
SWIDTH 648 0
DWIDTH 36 0
BBX 26 47 5 0
BITMAP
03F00E00
07F81E00
0FFE1C00
0F3F3C00
1E0FFC00
1C07F800
1C01E000
00000000
00000000
00000000
F00003C0
F00003C0
F00003C0
F00003C0
F00003C0
F00003C0
F00003C0
F00003C0
F00003C0
F00003C0
F00003C0
F00003C0
F00003C0
F00003C0
F00003C0
F00003C0
F00003C0
F00003C0
F00003C0
F00003C0
F00003C0
F00003C0
F00003C0
F80003C0
F80007C0
F80007C0
F80007C0
78000780
7C000F80
7C000F80
3E001F00
3F003F00
1FC0FE00
0FFFFC00
07FFF800
03FFF000
007F8000
ENDCHAR
STARTCHAR 0169
ENCODING 361
SWIDTH 540 0
DWIDTH 30 0
BBX 22 40 4 0
BITMAP
07C038
1FE038
1FF070
3EF870
387CF0
381FE0
380FE0
380780
000000
000000
000000
000000
000000
F8007C
F8007C
F8007C
F8007C
F8007C
F8007C
F8007C
F8007C
F8007C
F8007C
F8007C
F8007C
F8007C
F8007C
F8007C
F8007C
F8007C
F8007C
F8007C
F800FC
7C01FC
7C03FC
7E07BC
3FFF3C
3FFE3C
1FFC3C
07E03C
ENDCHAR
STARTCHAR 016A
ENCODING 362
SWIDTH 648 0
DWIDTH 36 0
BBX 26 44 5 0
BITMAP
07FFF000
07FFF000
07FFF000
00000000
00000000
00000000
00000000
F00003C0
F00003C0
F00003C0
F00003C0
F00003C0
F00003C0
F00003C0
F00003C0
F00003C0
F00003C0
F00003C0
F00003C0
F00003C0
F00003C0
F00003C0
F00003C0
F00003C0
F00003C0
F00003C0
F00003C0
F00003C0
F00003C0
F00003C0
F80003C0
F80007C0
F80007C0
F80007C0
78000780
7C000F80
7C000F80
3E001F00
3F003F00
1FC0FE00
0FFFFC00
07FFF800
03FFF000
007F8000
ENDCHAR
STARTCHAR 016B
ENCODING 363
SWIDTH 540 0
DWIDTH 30 0
BBX 22 37 4 0
BITMAP
0FFFC0
0FFFC0
0FFFC0
000000
000000
000000
000000
000000
000000
000000
F8007C
F8007C
F8007C
F8007C
F8007C
F8007C
F8007C
F8007C
F8007C
F8007C
F8007C
F8007C
F8007C
F8007C
F8007C
F8007C
F8007C
F8007C
F8007C
F800FC
7C01FC
7C03FC
7E07BC
3FFF3C
3FFE3C
1FFC3C
07E03C
ENDCHAR
STARTCHAR 016C
ENCODING 364
SWIDTH 648 0
DWIDTH 36 0
BBX 26 48 5 0
BITMAP
01002000
07003800
07003800
03807000
03C0F000
01FFE000
00FFC000
003F0000
00000000
00000000
00000000
F00003C0
F00003C0
F00003C0
F00003C0
F00003C0
F00003C0
F00003C0
F00003C0
F00003C0
F00003C0
F00003C0
F00003C0
F00003C0
F00003C0
F00003C0
F00003C0
F00003C0
F00003C0
F00003C0
F00003C0
F00003C0
F00003C0
F00003C0
F80003C0
F80007C0
F80007C0
F80007C0
78000780
7C000F80
7C000F80
3E001F00
3F003F00
1FC0FE00
0FFFFC00
07FFF800
03FFF000
007F8000
ENDCHAR
STARTCHAR 016D
ENCODING 365
SWIDTH 540 0
DWIDTH 30 0
BBX 22 40 4 0
BITMAP
1C0070
1C00F0
1C00E0
1E01E0
0F83C0
07FFC0
03FF00
00FC00
000000
000000
000000
000000
000000
F8007C
F8007C
F8007C
F8007C
F8007C
F8007C
F8007C
F8007C
F8007C
F8007C
F8007C
F8007C
F8007C
F8007C
F8007C
F8007C
F8007C
F8007C
F8007C
F800FC
7C01FC
7C03FC
7E07BC
3FFF3C
3FFE3C
1FFC3C
07E03C
ENDCHAR
STARTCHAR 016E
ENCODING 366
SWIDTH 648 0
DWIDTH 36 0
BBX 26 49 5 0
BITMAP
003F0000
007F8000
00E1C000
00C1C000
00C0C000
00C0C000
00C1C000
00E1C000
007F8000
003E0000
00000000
00000000
F00003C0
F00003C0
F00003C0
F00003C0
F00003C0
F00003C0
F00003C0
F00003C0
F00003C0
F00003C0
F00003C0
F00003C0
F00003C0
F00003C0
F00003C0
F00003C0
F00003C0
F00003C0
F00003C0
F00003C0
F00003C0
F00003C0
F00003C0
F80003C0
F80007C0
F80007C0
F80007C0
78000780
7C000F80
7C000F80
3E001F00
3F003F00
1FC0FE00
0FFFFC00
07FFF800
03FFF000
007F8000
ENDCHAR
STARTCHAR 016F
ENCODING 367
SWIDTH 540 0
DWIDTH 30 0
BBX 22 42 4 0
BITMAP
00FC00
01FF00
038700
070380
070380
070380
070380
078380
038700
01FF00
00FC00
000000
000000
000000
000000
F8007C
F8007C
F8007C
F8007C
F8007C
F8007C
F8007C
F8007C
F8007C
F8007C
F8007C
F8007C
F8007C
F8007C
F8007C
F8007C
F8007C
F8007C
F8007C
F800FC
7C01FC
7C03FC
7E07BC
3FFF3C
3FFE3C
1FFC3C
07E03C
ENDCHAR
STARTCHAR 0170
ENCODING 368
SWIDTH 648 0
DWIDTH 36 0
BBX 26 49 5 0
BITMAP
000C0600
001E0F00
001E0F00
003C1E00
00383C00
00783800
00F07800
00E07000
00C06000
00000000
00000000
00000000
F00003C0
F00003C0
F00003C0
F00003C0
F00003C0
F00003C0
F00003C0
F00003C0
F00003C0
F00003C0
F00003C0
F00003C0
F00003C0
F00003C0
F00003C0
F00003C0
F00003C0
F00003C0
F00003C0
F00003C0
F00003C0
F00003C0
F00003C0
F80003C0
F80007C0
F80007C0
F80007C0
78000780
7C000F80
7C000F80
3E001F00
3F003F00
1FC0FE00
0FFFFC00
07FFF800
03FFF000
007F8000
ENDCHAR
STARTCHAR 0171
ENCODING 369
SWIDTH 540 0
DWIDTH 30 0
BBX 22 42 4 0
BITMAP
003018
003C3C
007838
007078
00F070
00E0F0
01E0E0
01C1C0
0383C0
038180
000000
000000
000000
000000
000000
F8007C
F8007C
F8007C
F8007C
F8007C
F8007C
F8007C
F8007C
F8007C
F8007C
F8007C
F8007C
F8007C
F8007C
F8007C
F8007C
F8007C
F8007C
F8007C
F800FC
7C01FC
7C03FC
7E07BC
3FFF3C
3FFE3C
1FFC3C
07E03C
ENDCHAR
STARTCHAR 0172
ENCODING 370
SWIDTH 648 0
DWIDTH 36 0
BBX 26 48 5 -11
BITMAP
F00003C0
F00003C0
F00003C0
F00003C0
F00003C0
F00003C0
F00003C0
F00003C0
F00003C0
F00003C0
F00003C0
F00003C0
F00003C0
F00003C0
F00003C0
F00003C0
F00003C0
F00003C0
F00003C0
F00003C0
F00003C0
F00003C0
F00003C0
F80003C0
F80007C0
F80007C0
F80007C0
F8000780
7C000F80
7C000F80
3E001F00
3F003F00
1FC0FE00
0FFFFC00
07FFF800
03FFF000
007FC000
000F0000
001E0000
003C0000
00380000
00780000
00780000
00780000
007C4000
003FC000
003FE000
000F8000
ENDCHAR
STARTCHAR 0173
ENCODING 371
SWIDTH 540 0
DWIDTH 30 0
BBX 23 38 4 -11
BITMAP
F8007C
F8007C
F8007C
F8007C
F8007C
F8007C
F8007C
F8007C
F8007C
F8007C
F8007C
F8007C
F8007C
F8007C
F8007C
F8007C
F8007C
F8007C
F8007C
F800FC
7C01FC
7C03FC
7E07BC
3FFF3C
3FFE3C
1FFC3C
07E07C
0000F8
0001E0
0001C0
000380
000380
000380
000780
0003C4
0003FC
0001FE
0000F8
ENDCHAR
STARTCHAR 0174
ENCODING 372
SWIDTH 792 0
DWIDTH 44 0
BBX 41 47 1 0
BITMAP
00003F000000
00007F800000
0000FFC00000
0001F3E00000
0003C1E00000
000780F00000
000700380000
000200000000
000000000000
000000000000
F8001E000780
78003E000780
7C003F000F80
7C003F000F80
7C003F000F00
7C007F000F00
3C007F800F00
3C0077801F00
3E0077801F00
3E00F3801E00
3E00F3C01E00
1E00F3C01E00
1E00E3C01E00
1F01E3C03E00
1F01E1E03C00
1F01E1E03C00
0F01C1E03C00
0F03C1E03C00
0F83C0F07C00
0F83C0F07800
078380F07800
078380F07800
078780787800
07C78078F800
07C78078F000
03C70078F000
03CF003CF000
03CF003CF000
03CF003CF000
03EE003DE000
01EE001DE000
01FE001FE000
01FE001FE000
01FC001FC000
01FC000FC000
00FC000FC000
00FC000FC000
ENDCHAR
STARTCHAR 0175
ENCODING 373
SWIDTH 720 0
DWIDTH 40 0
BBX 37 41 1 0
BITMAP
0000FC0000
0001FE0000
0001FE0000
0003FF0000
0007CF8000
000F87C000
001E03E000
001C00E000
0018006000
0000000000
0000000000
0000000000
0000000000
0000000000
F800780078
7800FC0078
7C00FC0078
7C00FC00F8
3C00FE00F0
3C01FE00F0
3E01DE00F0
3E01CE01F0
1E01CF01E0
1E03CF01E0
1F03CF01E0
0F038703C0
0F078783C0
0F078783C0
0F870783C0
0787038780
078F03C780
078F03C780
07CE03C780
03CE01EF00
03DE01EF00
03DE01EF00
01DC00EF00
01FC00FE00
01FC00FE00
01FC00FE00
00F8007C00
ENDCHAR
STARTCHAR 0176
ENCODING 374
SWIDTH 468 0
DWIDTH 26 0
BBX 26 47 0 0
BITMAP
003F0000
007F8000
00FFC000
00F3E000
01E0F000
03C07800
07003800
00001000
00000000
00000000
F80007C0
7C0007C0
7C000780
3C000F80
3E000F00
1E001F00
1F001E00
0F003E00
0F803C00
0F807C00
07C07800
07C07800
03E0F000
03E0F000
01E1F000
01F1E000
00F3E000
00FBC000
007FC000
007F8000
003F8000
003F0000
001F0000
001F0000
001F0000
001F0000
001F0000
001F0000
001F0000
001F0000
001F0000
001F0000
001F0000
001F0000
001F0000
001F0000
001F0000
ENDCHAR
STARTCHAR 0177
ENCODING 375
SWIDTH 468 0
DWIDTH 26 0
BBX 24 52 1 -11
BITMAP
003E00
007F00
00FF80
01F7C0
01E3C0
03C1E0
0780F0
0F0078
060030
000000
000000
000000
000000
000000
F8000F
F8001F
78001E
7C001E
7C003E
3C003C
3E003C
1E007C
1F0078
0F0078
0F00F8
0F80F0
0780F0
0781E0
03C1E0
03C1E0
03E3C0
01E3C0
01E3C0
00F380
00F780
00F780
007F00
007F00
003F00
003E00
003E00
003E00
003C00
003C00
007800
007800
00F000
01F000
3FE000
7FC000
7F8000
7E0000
ENDCHAR
STARTCHAR 0178
ENCODING 376
SWIDTH 468 0
DWIDTH 26 0
BBX 26 46 0 0
BITMAP
03807800
07C07800
07C0FC00
07C0FC00
07C07800
00000000
00000000
00000000
00000000
F80007C0
7C0007C0
7C000780
3C000F80
3E000F00
1E001F00
1F001E00
0F003E00
0F803C00
0F807C00
07C07800
07C07800
03E0F000
03E0F000
01E1F000
01F1E000
00F3E000
00FBC000
007FC000
007F8000
003F8000
003F0000
001F0000
001F0000
001F0000
001F0000
001F0000
001F0000
001F0000
001F0000
001F0000
001F0000
001F0000
001F0000
001F0000
001F0000
001F0000
ENDCHAR
STARTCHAR 0179
ENCODING 377
SWIDTH 540 0
DWIDTH 30 0
BBX 25 49 3 0
BITMAP
00004000
0000E000
0001E000
0003F000
0007E000
000F8000
001F0000
003E0000
00180000
00100000
00000000
00000000
7FFFFF00
7FFFFF00
7FFFFF00
7FFFFF00
00003E00
00003E00
00007C00
0000F800
0000F800
0001F000
0003F000
0003E000
0007C000
0007C000
000F8000
001F0000
001F0000
003E0000
007C0000
007C0000
00F80000
00F80000
01F00000
03E00000
03E00000
07C00000
0F800000
0F800000
1F000000
3E000000
3E000000
7C000000
7C000000
FFFFFF80
FFFFFF80
FFFFFF80
FFFFFF80
ENDCHAR
STARTCHAR 017A
ENCODING 378
SWIDTH 432 0
DWIDTH 24 0
BBX 20 43 2 0
BITMAP
000100
000380
0007C0
000FC0
001F80
003F00
003E00
007C00
00F800
00F000
006000
000000
000000
000000
000000
000000
7FFFF0
7FFFF0
7FFFF0
7FFFE0
0007C0
0007C0
000F80
001F00
001F00
003E00
007C00
007C00
00F800
01F000
01E000
03E000
07C000
078000
0F8000
1F0000
3E0000
3E0000
7C0000
FFFFF0
FFFFF0
FFFFF0
FFFFF0
ENDCHAR
STARTCHAR 017B
ENCODING 379
SWIDTH 540 0
DWIDTH 30 0
BBX 25 46 3 0
BITMAP
001E0000
003E0000
007F0000
007F0000
003E0000
001C0000
00000000
00000000
00000000
7FFFFF00
7FFFFF00
7FFFFF00
7FFFFF00
00003E00
00003E00
00007C00
0000F800
0000F800
0001F000
0003F000
0003E000
0007C000
0007C000
000F8000
001F0000
001F0000
003E0000
007C0000
007C0000
00F80000
00F80000
01F00000
03E00000
03E00000
07C00000
0F800000
0F800000
1F000000
3E000000
3E000000
7C000000
7C000000
FFFFFF80
FFFFFF80
FFFFFF80
FFFFFF80
ENDCHAR
STARTCHAR 017C
ENCODING 380
SWIDTH 432 0
DWIDTH 24 0
BBX 20 39 2 0
BITMAP
007800
00F800
00FC00
00FC00
00F800
007000
000000
000000
000000
000000
000000
000000
7FFFF0
7FFFF0
7FFFF0
7FFFE0
0007C0
0007C0
000F80
001F00
001F00
003E00
007C00
007C00
00F800
01F000
01E000
03E000
07C000
078000
0F8000
1F0000
3E0000
3E0000
7C0000
FFFFF0
FFFFF0
FFFFF0
FFFFF0
ENDCHAR
STARTCHAR 017D
ENCODING 381
SWIDTH 540 0
DWIDTH 30 0
BBX 25 48 3 0
BITMAP
02000000
07007800
0780F000
03C1E000
01E3C000
00FF8000
007F0000
003E0000
00000000
00000000
00000000
7FFFFF00
7FFFFF00
7FFFFF00
7FFFFF00
00003E00
00003E00
00007C00
0000F800
0000F800
0001F000
0003F000
0003E000
0007C000
0007C000
000F8000
001F0000
001F0000
003E0000
007C0000
007C0000
00F80000
00F80000
01F00000
03E00000
03E00000
07C00000
0F800000
0F800000
1F000000
3E000000
3E000000
7C000000
7C000000
FFFFFF80
FFFFFF80
FFFFFF80
FFFFFF80
ENDCHAR
STARTCHAR 017E
ENCODING 382
SWIDTH 432 0
DWIDTH 24 0
BBX 20 42 2 0
BITMAP
000040
1800E0
3C01E0
1E03C0
0F0780
078F80
03DF00
03FE00
01FC00
00F800
000000
000000
000000
000000
000000
7FFFF0
7FFFF0
7FFFF0
7FFFE0
0007C0
0007C0
000F80
001F00
001F00
003E00
007C00
007C00
00F800
01F000
01E000
03E000
07C000
078000
0F8000
1F0000
3E0000
3E0000
7C0000
FFFFF0
FFFFF0
FFFFF0
FFFFF0
ENDCHAR
STARTCHAR 0180
ENCODING 384
SWIDTH 540 0
DWIDTH 30 0
BBX 28 40 0 0
BITMAP
07800000
07800000
07800000
07800000
07800000
3FFFE000
FFFFE000
FFFFE000
07800000
07800000
07800000
07800000
07800000
07800000
0781F800
078FFE00
079FFF80
07FFFF80
07F80FC0
07F007E0
07C003E0
078003F0
078001F0
078001F0
078001F0
078001F0
078001F0
078001F0
078001F0
078001F0
078001F0
078001E0
078003E0
078007E0
07E00FC0
07F81F80
07FFFF80
07BFFE00
071FFC00
0703F000
ENDCHAR
STARTCHAR 018F
ENCODING 399
SWIDTH 666 0
DWIDTH 37 0
BBX 31 37 3 0
BITMAP
001FF000
00FFFC00
03FFFF00
07FFFF80
0FE01FC0
078007E0
060003F0
000001F0
000000F8
000000F8
0000007C
0000007C
0000007C
0000003C
0000003C
0000003E
0000003E
FFFFFFFE
FFFFFFFE
FFFFFFFE
FFFFFFFE
F800003E
F800003C
7800003C
7800007C
7C00007C
7C00007C
3C0000F8
3E0000F8
3F0001F0
1F8003F0
0FC007E0
07F01FC0
07FFFF80
01FFFF00
00FFFC00
001FE000
ENDCHAR
STARTCHAR 0192
ENCODING 402
SWIDTH 504 0
DWIDTH 28 0
BBX 25 43 1 -6
BITMAP
00007E00
0001FF80
0003FF00
0007FF00
0007C000
000F8000
000F8000
000F0000
000F0000
001F0000
001F0000
001E0000
001E0000
001E0000
007E0000
07FFFC00
07FFFC00
07FFFC00
003E0000
003C0000
003C0000
003C0000
003C0000
003C0000
003C0000
007C0000
007C0000
007C0000
007C0000
00780000
00780000
00780000
00780000
00F80000
00F80000
00F00000
00F00000
01F00000
03E00000
7FE00000
FFC00000
FF800000
3C000000
ENDCHAR
STARTCHAR 0193
ENCODING 403
SWIDTH 612 0
DWIDTH 34 0
BBX 31 45 3 0
BITMAP
0000003C
000000FE
000001FE
000003FC
000003E0
000007C0
00000780
00000780
0007FBC0
003FFFC0
00FFFFC0
03FFFFE0
07F80FC0
0FE00180
1F800080
1F000000
3F000000
3E000000
7C000000
7C000000
7C000000
F8000000
F8000000
F8000000
F8000000
F8000000
F800FFF0
F800FFF0
F800FFF0
F800FFF0
F80001F0
F80001F0
780001F0
7C0001F0
7C0001F0
3E0001F0
3E0001F0
1F0001F0
1F8001F0
0FE001F0
07F80FF0
03FFFFE0
01FFFF80
007FFF00
000FF800
ENDCHAR
STARTCHAR 01A0
ENCODING 416
SWIDTH 666 0
DWIDTH 37 0
BBX 31 44 3 1
BITMAP
0000000E
0000001E
0000001E
0000001E
0000001E
0000001E
0000001E
000FF03C
007FFCFC
01FFFFF0
03FFFFC0
07F81FC0
0FC007E0
1F8003F0
1F0001F8
3E0000F8
3E0000FC
7C00007C
7C00007C
7C00003E
7800003E
F800003E
F800003E
F800003E
F800003E
F800003E
F800003E
F800003E
F800003E
F800003E
7800003E
7C00003E
7C00007C
7C00007C
3E0000FC
3F0000F8
1F0001F8
1F8003F0
0FE007E0
07F81FC0
03FFFF80
01FFFF00
007FFC00
000FF000
ENDCHAR
STARTCHAR 01A1
ENCODING 417
SWIDTH 540 0
DWIDTH 30 0
BBX 26 36 3 0
BITMAP
00000080
000003C0
000003C0
000003C0
000003C0
000003C0
000003C0
000003C0
00000780
007F1F00
03FFFE00
07FFF800
1FFFF800
1F81FC00
3E007C00
7C003E00
7C003E00
F8001F00
F8001F00
F8000F00
F0000F00
F0000F80
F0000F80
F0000F80
F0000F00
F8000F00
F8001F00
F8001F00
7C003E00
7C003E00
3E007C00
3F81FC00
1FFFF800
07FFF000
03FFC000
00FE0000
ENDCHAR
STARTCHAR 01AF
ENCODING 431
SWIDTH 666 0
DWIDTH 37 0
BBX 32 46 5 0
BITMAP
00000007
0000000F
0000000F
0000000F
0000000F
0000000F
0000000F
0000001F
0000003E
F00003FC
F00003F0
F00003C0
F00003C0
F00003C0
F00003C0
F00003C0
F00003C0
F00003C0
F00003C0
F00003C0
F00003C0
F00003C0
F00003C0
F00003C0
F00003C0
F00003C0
F00003C0
F00003C0
F00003C0
F00003C0
F00003C0
F00003C0
F80003C0
F80007C0
F80007C0
F80007C0
78000780
7C000F80
7C000F80
3E001F00
3F003F00
1FC0FE00
0FFFFC00
07FFF800
03FFF000
007F8000
ENDCHAR
STARTCHAR 01B0
ENCODING 432
SWIDTH 540 0
DWIDTH 30 0
BBX 27 37 4 0
BITMAP
00000040
000003E0
000001E0
000001E0
000001E0
000001E0
000001E0
000003C0
000003C0
00000F80
F8007F00
F8007C00
F8007C00
F8007C00
F8007C00
F8007C00
F8007C00
F8007C00
F8007C00
F8007C00
F8007C00
F8007C00
F8007C00
F8007C00
F8007C00
F8007C00
F8007C00
F8007C00
F8007C00
F800FC00
7C01FC00
7C03FC00
7E07BC00
3FFF3C00
3FFE3C00
1FFC3C00
07E03C00
ENDCHAR
STARTCHAR 01C2
ENCODING 450
SWIDTH 288 0
DWIDTH 16 0
BBX 16 56 0 -14
BITMAP
01C0
01C0
01C0
01C0
01C0
01C0
01C0
01C0
01C0
01C0
01C0
01C0
01C0
01C0
01C0
01C0
01C0
01C0
01C0
01C0
01C0
FFFF
FFFF
FFFF
01C0
01C0
01C0
01C0
01C0
01C0
1FFF
FFFF
FFFF
01C0
01C0
01C0
01C0
01C0
01C0
01C0
01C0
01C0
01C0
01C0
01C0
01C0
01C0
01C0
01C0
01C0
01C0
01C0
01C0
01C0
01C0
01C0
ENDCHAR
STARTCHAR 01CD
ENCODING 461
SWIDTH 540 0
DWIDTH 30 0
BBX 30 48 0 0
BITMAP
00800400
01C00E00
01E01E00
00F87C00
007CF800
003FF000
001FE000
000FC000
00000000
00000000
00000000
000FC000
000FC000
000FE000
001FE000
001FE000
001CF000
003CF000
003CF000
003CF800
00787800
00787800
00787C00
00F03C00
00F03C00
00F03E00
01F03E00
01E01E00
01E01F00
03E01F00
03C00F00
03C00F80
07C00F80
07FFFF80
07FFFFC0
0FFFFFC0
0FFFFFC0
0F0003E0
1F0003E0
1F0003E0
1E0001F0
3E0001F0
3E0001F0
3C0000F8
7C0000F8
7C0000F8
7800007C
F800007C
ENDCHAR
STARTCHAR 01CE
ENCODING 462
SWIDTH 504 0
DWIDTH 28 0
BBX 21 42 3 0
BITMAP
000020
0C0070
1E00F0
0F01E0
0783C0
03C7C0
03EF80
01FF00
00FE00
007C00
000000
000000
000000
000000
000000
00FE00
07FF80
1FFFC0
7FFFE0
3E03F0
3801F0
0000F8
0000F8
0000F8
0000F8
0001F8
003FF8
03FFF8
0FF8F8
1F80F8
3E00F8
7800F8
F800F8
F000F8
F000F8
F800F8
F803F8
FC07F8
7FFF78
3FFE78
1FF878
07E078
ENDCHAR
STARTCHAR 01CF
ENCODING 463
SWIDTH 270 0
DWIDTH 15 0
BBX 16 48 -1 0
BITMAP
0002
F007
780F
3C1E
1E7C
0FF8
0FF0
07E0
0000
0000
0000
03E0
03E0
03E0
03E0
03E0
03E0
03E0
03E0
03E0
03E0
03E0
03E0
03E0
03E0
03E0
03E0
03E0
03E0
03E0
03E0
03E0
03E0
03E0
03E0
03E0
03E0
03E0
03E0
03E0
03E0
03E0
03E0
03E0
03E0
03E0
03E0
03E0
ENDCHAR
STARTCHAR 01D0
ENCODING 464
SWIDTH 252 0
DWIDTH 14 0
BBX 16 42 -1 0
BITMAP
0002
C007
E00F
F01E
783C
3C7C
1EF8
0FF0
0FE0
07E0
0000
0000
0000
0000
0000
03C0
03C0
03C0
03C0
03C0
03C0
03C0
03C0
03C0
03C0
03C0
03C0
03C0
03C0
03C0
03C0
03C0
03C0
03C0
03C0
03C0
03C0
03C0
03C0
03C0
03C0
03C0
ENDCHAR
STARTCHAR 01D1
ENCODING 465
SWIDTH 666 0
DWIDTH 37 0
BBX 31 47 3 0
BITMAP
00000400
00E00E00
00F01E00
00783C00
003C7800
001FF000
000FE000
0007C000
00000000
00000000
000FF000
007FFC00
01FFFF00
03FFFF80
07F03FC0
0FC007E0
1F8003F0
3F0001F8
3E0000F8
3E0000FC
7C00007C
7C00007C
7800007C
F800003E
F800003E
F800003E
F800003E
F800003E
F800003E
F800003E
F800003E
F800003E
F800003E
F800003E
7C00007C
7C00007C
7C00007C
3E0000F8
3E0000F8
1F0001F0
1F8003F0
0FC007E0
07F81FC0
03FFFF80
01FFFF00
007FFC00
001FE000
ENDCHAR
STARTCHAR 01D2
ENCODING 466
SWIDTH 540 0
DWIDTH 30 0
BBX 25 42 3 0
BITMAP
04002000
0E007000
0F007000
0780F000
07C1E000
03C3C000
01E78000
00FF0000
00FF0000
007E0000
00000000
00000000
00000000
00000000
00000000
007F0000
03FFC000
07FFF000
1FFFF800
1F81FC00
3E007C00
7C003E00
7C003E00
F8001F00
F8001F00
F8000F00
F0000F00
F0000F80
F0000F80
F0000F80
F0000F00
F8000F00
F8001F00
F8001F00
7C003E00
7C003E00
3E007C00
3F81FC00
1FFFF800
07FFF000
03FFC000
00FE0000
ENDCHAR
STARTCHAR 01D3
ENCODING 467
SWIDTH 648 0
DWIDTH 36 0
BBX 26 48 5 0
BITMAP
02000000
07003800
0780F000
03E1F000
01F3E000
00FFC000
007F8000
003F0000
00000000
00000000
00000000
F00003C0
F00003C0
F00003C0
F00003C0
F00003C0
F00003C0
F00003C0
F00003C0
F00003C0
F00003C0
F00003C0
F00003C0
F00003C0
F00003C0
F00003C0
F00003C0
F00003C0
F00003C0
F00003C0
F00003C0
F00003C0
F00003C0
F00003C0
F80003C0
F80007C0
F80007C0
F80007C0
78000780
7C000F80
7C000F80
3E001F00
3F003F00
1FC0FE00
0FFFFC00
07FFF800
03FFF000
007F8000
ENDCHAR
STARTCHAR 01D4
ENCODING 468
SWIDTH 540 0
DWIDTH 30 0
BBX 22 42 4 0
BITMAP
080040
1C00E0
1E01E0
0F03E0
0F87C0
07CF80
03FF00
01FE00
00FE00
00FC00
000000
000000
000000
000000
000000
F8007C
F8007C
F8007C
F8007C
F8007C
F8007C
F8007C
F8007C
F8007C
F8007C
F8007C
F8007C
F8007C
F8007C
F8007C
F8007C
F8007C
F8007C
F8007C
F800FC
7C01FC
7C03FC
7E07BC
3FFF3C
3FFE3C
1FFC3C
07E03C
ENDCHAR
STARTCHAR 01D5
ENCODING 469
SWIDTH 648 0
DWIDTH 36 0
BBX 26 51 5 0
BITMAP
07FFF000
07FFF000
07FFF000
00000000
00000000
00000000
03807000
07C0F800
07C0F800
07C0F800
03807000
00000000
00000000
00000000
F00003C0
F00003C0
F00003C0
F00003C0
F00003C0
F00003C0
F00003C0
F00003C0
F00003C0
F00003C0
F00003C0
F00003C0
F00003C0
F00003C0
F00003C0
F00003C0
F00003C0
F00003C0
F00003C0
F00003C0
F00003C0
F00003C0
F00003C0
F80003C0
F80007C0
F80007C0
F80007C0
78000780
7C000F80
7C000F80
3E001F00
3F003F00
1FC0FE00
0FFFFC00
07FFF800
03FFF000
007F8000
ENDCHAR
STARTCHAR 01D6
ENCODING 470
SWIDTH 540 0
DWIDTH 30 0
BBX 22 44 4 0
BITMAP
0FFFE0
0FFFE0
0FFFE0
000000
000000
000000
0E01C0
1F03E0
1F03E0
1F03E0
0E01C0
000000
000000
000000
000000
000000
000000
F8007C
F8007C
F8007C
F8007C
F8007C
F8007C
F8007C
F8007C
F8007C
F8007C
F8007C
F8007C
F8007C
F8007C
F8007C
F8007C
F8007C
F8007C
F8007C
F800FC
7C01FC
7C03FC
7E07BC
3FFF3C
3FFE3C
1FFC3C
07E03C
ENDCHAR
STARTCHAR 01D7
ENCODING 471
SWIDTH 648 0
DWIDTH 36 0
BBX 26 54 5 0
BITMAP
00008000
0001C000
0003E000
00078000
000F0000
000E0000
001C0000
00080000
00000000
03807000
07C0F800
07C0F800
07C0F800
03807000
00000000
00000000
00000000
F00003C0
F00003C0
F00003C0
F00003C0
F00003C0
F00003C0
F00003C0
F00003C0
F00003C0
F00003C0
F00003C0
F00003C0
F00003C0
F00003C0
F00003C0
F00003C0
F00003C0
F00003C0
F00003C0
F00003C0
F00003C0
F00003C0
F00003C0
F80003C0
F80007C0
F80007C0
F80007C0
78000780
7C000F80
7C000F80
3E001F00
3F003F00
1FC0FE00
0FFFFC00
07FFF800
03FFF000
007F8000
ENDCHAR
STARTCHAR 01D8
ENCODING 472
SWIDTH 540 0
DWIDTH 30 0
BBX 22 47 4 0
BITMAP
000400
000F00
001E00
001C00
003C00
007800
007000
000000
000000
0E01C0
1F03E0
1F03E0
1F03E0
0E01C0
000000
000000
000000
000000
000000
000000
F8007C
F8007C
F8007C
F8007C
F8007C
F8007C
F8007C
F8007C
F8007C
F8007C
F8007C
F8007C
F8007C
F8007C
F8007C
F8007C
F8007C
F8007C
F8007C
F800FC
7C01FC
7C03FC
7E07BC
3FFF3C
3FFE3C
1FFC3C
07E03C
ENDCHAR
STARTCHAR 01D9
ENCODING 473
SWIDTH 648 0
DWIDTH 36 0
BBX 26 54 5 0
BITMAP
03002000
0380F000
01E1E000
00F3C000
007F8000
003F0000
001E0000
00000000
00000000
03807000
07C0F800
07C0F800
07C0F800
03807000
00000000
00000000
00000000
F00003C0
F00003C0
F00003C0
F00003C0
F00003C0
F00003C0
F00003C0
F00003C0
F00003C0
F00003C0
F00003C0
F00003C0
F00003C0
F00003C0
F00003C0
F00003C0
F00003C0
F00003C0
F00003C0
F00003C0
F00003C0
F00003C0
F00003C0
F80003C0
F80007C0
F80007C0
F80007C0
78000780
7C000F80
7C000F80
3E001F00
3F003F00
1FC0FE00
0FFFFC00
07FFF800
03FFF000
007F8000
ENDCHAR
STARTCHAR 01DA
ENCODING 474
SWIDTH 540 0
DWIDTH 30 0
BBX 22 47 4 0
BITMAP
040080
0E01C0
0783C0
03CF80
01FF00
00FE00
007C00
000000
000000
0E01C0
1F03E0
1F03E0
1F03E0
0E01C0
000000
000000
000000
000000
000000
000000
F8007C
F8007C
F8007C
F8007C
F8007C
F8007C
F8007C
F8007C
F8007C
F8007C
F8007C
F8007C
F8007C
F8007C
F8007C
F8007C
F8007C
F8007C
F8007C
F800FC
7C01FC
7C03FC
7E07BC
3FFF3C
3FFE3C
1FFC3C
07E03C
ENDCHAR
STARTCHAR 01DB
ENCODING 475
SWIDTH 648 0
DWIDTH 36 0
BBX 26 54 5 0
BITMAP
00400000
01E00000
01F00000
00F80000
00780000
003C0000
001E0000
000C0000
00000000
03807000
07C0F800
07C0F800
07C0F800
03807000
00000000
00000000
00000000
F00003C0
F00003C0
F00003C0
F00003C0
F00003C0
F00003C0
F00003C0
F00003C0
F00003C0
F00003C0
F00003C0
F00003C0
F00003C0
F00003C0
F00003C0
F00003C0
F00003C0
F00003C0
F00003C0
F00003C0
F00003C0
F00003C0
F00003C0
F80003C0
F80007C0
F80007C0
F80007C0
78000780
7C000F80
7C000F80
3E001F00
3F003F00
1FC0FE00
0FFFFC00
07FFF800
03FFF000
007F8000
ENDCHAR
STARTCHAR 01DC
ENCODING 476
SWIDTH 540 0
DWIDTH 30 0
BBX 22 47 4 0
BITMAP
008000
03C000
01E000
00E000
007000
003800
001800
001000
000000
0E01C0
1F03E0
1F03E0
1F03E0
0E01C0
000000
000000
000000
000000
000000
000000
F8007C
F8007C
F8007C
F8007C
F8007C
F8007C
F8007C
F8007C
F8007C
F8007C
F8007C
F8007C
F8007C
F8007C
F8007C
F8007C
F8007C
F8007C
F8007C
F800FC
7C01FC
7C03FC
7E07BC
3FFF3C
3FFE3C
1FFC3C
07E03C
ENDCHAR
STARTCHAR 01E2
ENCODING 482
SWIDTH 828 0
DWIDTH 46 0
BBX 42 45 1 0
BITMAP
000001FFFC00
000001FFFC00
000001FFFC00
000000000000
000000000000
000000000000
000000000000
000000000000
00003FFFFF80
00003FFFFF80
00007FFFFF80
00007FFFFF80
0000FFC00000
0000F7C00000
0001F7C00000
0001E7C00000
0003E7C00000
0003C7C00000
0007C7C00000
000787C00000
000F87C00000
000F07C00000
001F07C00000
001E07C00000
003E07FFFE00
003C07FFFE00
007C07FFFE00
00F807FFFE00
00F807C00000
01F007C00000
01FFFFC00000
03FFFFC00000
03FFFFC00000
07FFFFC00000
07C007C00000
0F8007C00000
0F8007C00000
1F0007C00000
1F0007C00000
3E0007C00000
3E0007C00000
7C0007FFFFC0
7C0007FFFFC0
F80007FFFFC0
F80007FFFFC0
ENDCHAR
STARTCHAR 01E3
ENCODING 483
SWIDTH 792 0
DWIDTH 44 0
BBX 39 37 3 0
BITMAP
0007FFE000
0007FFE000
0007FFE000
0000000000
0000000000
0000000000
0000000000
0000000000
0000000000
0000000000
00FE007F00
07FF81FFC0
1FFFC3FFE0
7FFFC7FFF0
3E03EF81F8
1801FF0078
0000FE007C
0000FC003C
0000FC003C
000078003C
0001F8003C
003FF8003E
01FFFFFFFE
0FFE7FFFFE
1FC07FFFFC
3F00780000
7C00780000
7800780000
F8007C0000
F8003C0000
F8007E0000
F801FF0010
7C07FFC070
7FFF8FFFF8
3FFF03FFF8
1FFC01FFE0
07E0007F00
ENDCHAR
STARTCHAR 01E6
ENCODING 486
SWIDTH 612 0
DWIDTH 34 0
BBX 28 47 3 0
BITMAP
00200000
00700780
00780F00
003C1E00
001E3C00
000FF800
0007F000
0003F000
00000000
00000000
0007F800
003FFE00
00FFFF80
03FFFFC0
07F80FE0
0FE003C0
1F800180
1F000000
3F000000
3E000000
7C000000
7C000000
7C000000
F8000000
F8000000
F8000000
F8000000
F8000000
F800FFF0
F800FFF0
F800FFF0
F800FFF0
F80001F0
F80001F0
780001F0
7C0001F0
7C0001F0
3E0001F0
3E0001F0
1F0001F0
1F8001F0
0FE001F0
07F80FF0
03FFFFE0
01FFFF80
007FFF00
000FF800
ENDCHAR
STARTCHAR 01E7
ENCODING 487
SWIDTH 504 0
DWIDTH 28 0
BBX 24 54 3 -12
BITMAP
040020
0E0070
0F00F0
0F81E0
07C3E0
03E7C0
01FF80
00FF00
00FE00
007E00
000000
000000
000000
000000
000000
01FFFF
07FFFF
0FFFFF
1FCFFF
3E03E0
7C01F0
7800F0
7800F0
7800F8
7800F8
7800F0
7800F0
7C01F0
3E01E0
1F07E0
0FFFC0
1FFF00
3DFC00
380000
780000
780000
780000
7C0000
3FFFC0
3FFFFC
1FFFFE
3FFFFF
7C003F
78001F
F0000F
F0000F
F0000F
F0001F
F0003E
F8007E
7F03FC
3FFFF0
1FFFC0
03FE00
ENDCHAR
STARTCHAR 01EA
ENCODING 490
SWIDTH 666 0
DWIDTH 37 0
BBX 31 48 3 -11
BITMAP
000FF000
007FFC00
01FFFF00
03FFFF80
07F03FC0
0FC007E0
1F8003F0
3F0001F8
3E0000F8
3E0000FC
7C00007C
7C00007C
7800007C
F800003E
F800003E
F800003E
F800003E
F800003E
F800003E
F800003E
F800003E
F800003E
F800003E
F800003E
7C00007C
7C00007C
7C00007C
3E0000F8
3E0000F8
3F0001F0
1F8003F0
0FC007E0
07F01FC0
03FFFF80
01FFFF00
007FFC00
001FF000
0001C000
00038000
00070000
000F0000
000E0000
000E0000
000F0000
000F9800
000FF800
0007F800
0003F000
ENDCHAR
STARTCHAR 01EB
ENCODING 491
SWIDTH 540 0
DWIDTH 30 0
BBX 25 38 3 -11
BITMAP
007F0000
03FFC000
07FFF000
1FFFF800
1F81FC00
3E007C00
7C003E00
7C003E00
F8001F00
F8001F00
F8000F00
F0000F00
F0000F80
F0000F80
F0000F80
F0000F00
F8000F00
F8001F00
F8001F00
7C003E00
7C003E00
3E007C00
3F81FC00
1FFFF800
07FFE000
03FFC000
007F0000
001C0000
00380000
00780000
00700000
00700000
00F00000
00F00000
00788000
007F8000
003FC000
001F0000
ENDCHAR
STARTCHAR 01F4
ENCODING 500
SWIDTH 612 0
DWIDTH 34 0
BBX 28 48 3 0
BITMAP
00000400
00000E00
00001F00
00003E00
0000FC00
0001F800
0003E000
0003C000
00018000
00000000
00000000
0007F800
003FFE00
00FFFF80
03FFFFC0
07F80FE0
0FE003C0
1F800180
1F000000
3F000000
3E000000
7C000000
7C000000
7C000000
F8000000
F8000000
F8000000
F8000000
F8000000
F800FFF0
F800FFF0
F800FFF0
F800FFF0
F80001F0
F80001F0
780001F0
7C0001F0
7C0001F0
3E0001F0
3E0001F0
1F0001F0
1F8001F0
0FE001F0
07F80FF0
03FFFFE0
01FFFF80
007FFF00
000FF800
ENDCHAR
STARTCHAR 01F5
ENCODING 501
SWIDTH 504 0
DWIDTH 28 0
BBX 24 55 3 -12
BITMAP
0000C0
0001E0
0003F0
0007E0
000FC0
000F80
001F00
003E00
007C00
007800
003000
000000
000000
000000
000000
000000
01FFFF
07FFFF
0FFFFF
1FCFFF
3E03E0
7C01F0
7800F0
7800F0
7800F8
7800F8
7800F0
7800F0
7C01F0
3E01E0
1F07E0
0FFFC0
1FFF00
3DFC00
380000
780000
780000
780000
7C0000
3FFFC0
3FFFFC
1FFFFE
3FFFFF
7C003F
78001F
F0000F
F0000F
F0000F
F0001F
F0003E
F8007E
7F03FC
3FFFF0
1FFFC0
03FE00
ENDCHAR
STARTCHAR 01F8
ENCODING 504
SWIDTH 648 0
DWIDTH 36 0
BBX 26 49 5 0
BITMAP
00800000
01C00000
03E00000
03F00000
01F80000
00FC0000
003E0000
001F0000
000E0000
00000000
00000000
00000000
F80003C0
FC0003C0
FC0003C0
FE0003C0
FE0003C0
FF0003C0
FF0003C0
F78003C0
F7C003C0
F3C003C0
F3E003C0
F1E003C0
F1F003C0
F0F003C0
F0F803C0
F07C03C0
F03C03C0
F03E03C0
F01E03C0
F01F03C0
F00F03C0
F00F83C0
F00783C0
F007C3C0
F003E3C0
F001E3C0
F001F3C0
F000F3C0
F000FBC0
F0007BC0
F0007FC0
F0003FC0
F0001FC0
F0001FC0
F0000FC0
F0000FC0
F00007C0
ENDCHAR
STARTCHAR 01F9
ENCODING 505
SWIDTH 540 0
DWIDTH 30 0
BBX 21 43 5 0
BITMAP
020000
0F0000
1F8000
0FC000
07E000
03E000
01F000
00F800
007C00
003C00
001800
000000
000000
000000
000000
000000
E03F00
E0FFC0
F3FFE0
F7FFF0
FF83F0
FE01F8
FC00F8
F800F8
F000F8
F00078
F00078
F00078
F00078
F00078
F00078
F00078
F00078
F00078
F00078
F00078
F00078
F00078
F00078
F00078
F00078
F00078
F00078
ENDCHAR
STARTCHAR 01FC
ENCODING 508
SWIDTH 828 0
DWIDTH 46 0
BBX 42 49 1 0
BITMAP
000000003000
000000007800
00000000FC00
00000001F800
00000003F000
00000007C000
0000000F8000
0000000F0000
000000040000
000000000000
000000000000
000000000000
00003FFFFF80
00003FFFFF80
00007FFFFF80
00007FFFFF80
0000FFC00000
0000F7C00000
0001F7C00000
0001E7C00000
0003E7C00000
0003C7C00000
0007C7C00000
000787C00000
000F87C00000
000F07C00000
001F07C00000
001E07C00000
003E07FFFE00
003C07FFFE00
007C07FFFE00
00F807FFFE00
00F807C00000
01F007C00000
01FFFFC00000
03FFFFC00000
03FFFFC00000
07FFFFC00000
07C007C00000
0F8007C00000
0F8007C00000
1F0007C00000
1F0007C00000
3E0007C00000
3E0007C00000
7C0007FFFFC0
7C0007FFFFC0
F80007FFFFC0
F80007FFFFC0
ENDCHAR
STARTCHAR 01FD
ENCODING 509
SWIDTH 792 0
DWIDTH 44 0
BBX 39 43 3 0
BITMAP
0000008000
000000C000
000001E000
000003F000
000007E000
00000FC000
00001F8000
00001F0000
00003E0000
00007C0000
0000380000
0000100000
0000000000
0000000000
0000000000
0000000000
00FE007F00
07FF81FFC0
1FFFC3FFE0
7FFFC7FFF0
3E03EF81F8
1801FF0078
0000FE007C
0000FC003C
0000FC003C
000078003C
0001F8003C
003FF8003E
01FFFFFFFE
0FFE7FFFFE
1FC07FFFFC
3F00780000
7C00780000
7800780000
F8007C0000
F8003C0000
F8007E0000
F801FF0010
7C07FFC070
7FFF8FFFF8
3FFF03FFF8
1FFC01FFE0
07E0007F00
ENDCHAR
STARTCHAR 0218
ENCODING 536
SWIDTH 540 0
DWIDTH 30 0
BBX 26 49 2 -12
BITMAP
003F8000
01FFF000
03FFFC00
07FFFE00
0FE07F00
1F801E00
1F000600
3E000000
3E000000
3E000000
3E000000
3E000000
1F000000
1F800000
0FE00000
0FFC0000
03FF0000
01FFC000
007FF800
001FFC00
0003FE00
0000FF00
00003F80
00001F80
00000F80
00000780
000007C0
000007C0
00000780
30000F80
7C000F80
FE001F00
7FC07F00
3FFFFE00
0FFFFC00
03FFF000
007F8000
00000000
00000000
00000000
001C0000
003F0000
000F8000
00038000
00038000
00078000
001F8000
00FE0000
00F00000
ENDCHAR
STARTCHAR 0219
ENCODING 537
SWIDTH 414 0
DWIDTH 23 0
BBX 20 39 2 -12
BITMAP
01FC00
0FFF00
1FFFC0
3FFFC0
3E0380
7C0080
780000
780000
7C0000
7E0000
3F0000
1FE000
0FFC00
03FF00
00FF80
001FC0
0007E0
0003E0
0001E0
0001F0
0001E0
6001E0
F807E0
FFFFC0
7FFF80
1FFF00
03F800
000000
000000
000000
00F000
01FC00
003C00
001E00
001E00
001C00
00FC00
07F800
07C000
ENDCHAR
STARTCHAR 021A
ENCODING 538
SWIDTH 540 0
DWIDTH 30 0
BBX 26 49 2 -12
BITMAP
FFFFFFC0
FFFFFFC0
FFFFFFC0
FFFFFFC0
001E0000
001E0000
001E0000
001E0000
001E0000
001E0000
001E0000
001E0000
001E0000
001E0000
001E0000
001E0000
001E0000
001E0000
001E0000
001E0000
001E0000
001E0000
001E0000
001E0000
001E0000
001E0000
001E0000
001E0000
001E0000
001E0000
001E0000
001E0000
001E0000
001E0000
001E0000
001E0000
001E0000
00000000
00000000
00000000
001C0000
003F0000
000F8000
00078000
00038000
00078000
001F8000
00FE0000
00F80000
ENDCHAR
STARTCHAR 021B
ENCODING 539
SWIDTH 342 0
DWIDTH 19 0
BBX 17 47 1 -12
BITMAP
078000
078000
078000
078000
078000
078000
078000
078000
FFFF00
FFFF00
FFFF00
FFFF00
0F8000
0F8000
0F8000
0F8000
0F8000
0F8000
0F8000
0F8000
0F8000
0F8000
0F8000
0F8000
0F8000
0F8000
0F8000
0F8000
0F8000
07C000
07C000
07FF00
03FF80
01FF80
007E00
000000
000000
000000
00F000
00FC00
003E00
001E00
000E00
001E00
00FC00
03F800
03C000
ENDCHAR
STARTCHAR 0237
ENCODING 567
SWIDTH 252 0
DWIDTH 14 0
BBX 11 38 -2 -11
BITMAP
01E0
01E0
01E0
01E0
01E0
01E0
01E0
01E0
01E0
01E0
01E0
01E0
01E0
01E0
01E0
01E0
01E0
01E0
01E0
01E0
01E0
01E0
01E0
01E0
01E0
01E0
01E0
01E0
01E0
01E0
01E0
03E0
03E0
03E0
7FC0
FFC0
FF80
FE00
ENDCHAR
STARTCHAR 0243
ENCODING 579
SWIDTH 612 0
DWIDTH 34 0
BBX 29 37 2 0
BITMAP
0FFFF000
0FFFFE00
0FFFFF00
0F81FF80
0F800FC0
0F8007E0
0F8003E0
0F8001E0
0F8001E0
0F8001E0
0F8001E0
0F8001E0
0F8003E0
0F8003C0
0F800F80
0F803F00
0FFFFE00
0FFFFC00
0FFFFF80
0F801FE0
0F8003F0
0F8001F0
0F8000F8
0F800078
3FFF8078
FFFF8078
FFFF8078
0F800078
0F800078
0F8000F8
0F8001F8
0F8003F0
0F8007E0
0F81FFC0
0FFFFF80
0FFFFE00
0FFFF000
ENDCHAR
STARTCHAR 0250
ENCODING 592
SWIDTH 504 0
DWIDTH 28 0
BBX 21 27 4 0
BITMAP
001F80
F0FFE0
F1FFF0
F7FFF8
FF81F8
FE00F8
FC0078
F80078
F80078
F800F8
F800F0
F803F0
F80FE0
F8FF80
FFFE00
FFF000
FF0000
F80000
F80000
780000
7C0000
7E0030
3F00F0
3FFFF8
1FFFE0
07FF80
01FE00
ENDCHAR
STARTCHAR 0251
ENCODING 593
SWIDTH 558 0
DWIDTH 31 0
BBX 23 27 3 0
BITMAP
00FE00
03FF9E
07FFDE
1FFFFE
1F81FE
3F007E
7E001E
7C001E
F8001E
F8001E
F8001E
F0001E
F0001E
F0001E
F0001E
F0001E
F8001E
F8001E
F8001E
7C001E
7C003E
7E007E
3F81FE
1FFFFE
0FFF9E
07FF1E
01FC00
ENDCHAR
STARTCHAR 0252
ENCODING 594
SWIDTH 558 0
DWIDTH 31 0
BBX 23 27 5 0
BITMAP
003F00
E1FFC0
F3FFE0
FFFFF0
FF01F8
FC00FC
F8007C
F0007C
F0003E
F0003E
F0003E
F0003E
F0003E
F0003E
F0003E
F0003E
F0003E
F0003E
F0007C
F0007C
F000FC
FC01F8
FF03F0
FFFFE0
F7FFC0
E3FF80
007E00
ENDCHAR
STARTCHAR 0253
ENCODING 595
SWIDTH 558 0
DWIDTH 31 0
BBX 23 40 5 0
BITMAP
03F000
0FF800
3FF800
7FF800
7E0000
F80000
F80000
F80000
F00000
F00000
F00000
F00000
F00000
F03F00
F1FFC0
F3FFE0
FFFFF0
FF03F8
FC00FC
F8007C
F0007C
F0003E
F0003E
F0003E
F0003E
F0003E
F0003E
F0003E
F0003E
F0003E
F0003E
F0007C
F0007C
F000FC
FC01F8
FF03F0
FFFFE0
F7FFC0
E3FF80
E07E00
ENDCHAR
STARTCHAR 0254
ENCODING 596
SWIDTH 450 0
DWIDTH 25 0
BBX 22 27 1 0
BITMAP
03F800
1FFF00
3FFF80
7FFFC0
380FE0
1003F0
0001F0
0001F8
0000F8
0000F8
00007C
00007C
00007C
00007C
00007C
00007C
00007C
0000F8
0000F8
0000F8
0001F0
3003F0
780FE0
FFFFC0
3FFF80
1FFE00
03F800
ENDCHAR
STARTCHAR 0255
ENCODING 597
SWIDTH 450 0
DWIDTH 25 0
BBX 21 30 3 -3
BITMAP
007F00
03FFC0
07FFF0
0FFFF0
1F80E0
3E0020
7C0000
7C0000
F80000
F80000
F00000
F00000
F00000
F00000
F00000
F00FC0
F03FE0
F8FFF0
F9F8F8
7FE078
7FC078
3F8078
1F80F8
1FFFF0
3FFFE0
3FFFC0
787F00
780000
F00000
300000
ENDCHAR
STARTCHAR 0256
ENCODING 598
SWIDTH 558 0
DWIDTH 31 0
BBX 29 50 3 -10
BITMAP
00001E00
00001E00
00001E00
00001E00
00001E00
00001E00
00001E00
00001E00
00001E00
00001E00
00001E00
00001E00
00001E00
00FE1E00
03FF9E00
07FFDE00
1FFFFE00
1F81FE00
3F007E00
7E001E00
7C001E00
F8001E00
F8001E00
F8001E00
F0001E00
F0001E00
F0001E00
F0001E00
F0001E00
F8001E00
F8001E00
F8001E00
7C001E00
7C003E00
7E007E00
3F81FE00
1FFFFE00
0FFF9E00
07FF1E00
01FC1E00
00001E00
00001E00
00001E00
00001F00
00001F00
00001F80
00000FF0
00000FF8
000007F8
000000E0
ENDCHAR
STARTCHAR 0257
ENCODING 599
SWIDTH 558 0
DWIDTH 31 0
BBX 29 41 3 0
BITMAP
00000020
000003F8
000007F8
00000FF8
00000F80
00001F00
00001F00
00001E00
00001E00
00001E00
00001E00
00001E00
00001E00
00001E00
00FE1E00
03FF9E00
07FFDE00
1FFFFE00
1F81FE00
3F007E00
7E001E00
7C001E00
F8001E00
F8001E00
F8001E00
F0001E00
F0001E00
F0001E00
F0001E00
F0001E00
F8001E00
F8001E00
F8001E00
7C001E00
7C003E00
7E007E00
3F81FE00
1FFFFE00
0FFF9E00
07FF1E00
01FC1E00
ENDCHAR
STARTCHAR 0258
ENCODING 600
SWIDTH 504 0
DWIDTH 28 0
BBX 23 27 2 0
BITMAP
00FE00
03FF80
0FFFC0
1FFFE0
3F01F0
3C00F8
780078
78007C
78003C
F0003E
F0003E
F0003E
FFFFFE
FFFFFE
FFFFFE
00003E
00003E
00003E
00003C
00007C
00007C
0000F8
3803F0
3FFFE0
3FFFC0
1FFF80
03FC00
ENDCHAR
STARTCHAR 0259
ENCODING 601
SWIDTH 504 0
DWIDTH 28 0
BBX 23 27 2 0
BITMAP
01FE00
0FFF80
3FFFE0
3FFFF0
1C03F0
1000F8
00007C
00007C
00003C
00003E
00003E
00003E
FFFFFE
FFFFFE
FFFFFE
F0003E
F0003E
F0003E
F8003C
78007C
780078
3C00F8
3F01F0
1FFFE0
0FFFC0
07FF80
00FE00
ENDCHAR
STARTCHAR 025A
ENCODING 602
SWIDTH 648 0
DWIDTH 36 0
BBX 35 27 2 0
BITMAP
01FE000000
0FFF800000
3FFFC00000
3FFFF00000
1C03F00000
1000F80000
00007CF800
00007FF800
00003FF800
0000FFB800
0003FE1C00
001FFE1FE0
00FF9E0FE0
03FC1E07C0
1FF01E0000
7F801E0000
FE001E0000
F0003E0000
78003C0000
78003C0000
7C007C0000
3E00F80000
3F01F00000
1FFFF00000
0FFFE00000
03FF800000
00FE000000
ENDCHAR
STARTCHAR 025B
ENCODING 603
SWIDTH 432 0
DWIDTH 24 0
BBX 20 27 3 0
BITMAP
01FE00
07FF80
1FFFE0
3FFFE0
3F01C0
7C0000
7C0000
7C0000
7C0000
3C0000
3E0000
1FC000
07FE00
07FE00
1FFE00
7E0000
780000
F80000
F00000
F00000
F80000
F80020
7E00E0
7FFFF0
3FFFE0
0FFFC0
01FE00
ENDCHAR
STARTCHAR 025C
ENCODING 604
SWIDTH 450 0
DWIDTH 25 0
BBX 21 27 2 0
BITMAP
03FC00
1FFF00
7FFF80
3FFFC0
3807E0
0003E0
0003E0
0001E0
0003E0
0003E0
0007C0
001F80
07FF00
07FF00
07FFC0
0007E0
0001F0
0000F0
0000F8
0000F8
0000F0
2001F0
7803F0
FFFFE0
7FFFC0
1FFF00
07FC00
ENDCHAR
STARTCHAR 025E
ENCODING 606
SWIDTH 540 0
DWIDTH 30 0
BBX 25 27 3 0
BITMAP
01FE0000
07FFC000
1FFFF000
3FFFF800
3F01FC00
7C007E00
7C003E00
7C001F00
7C001F00
3C001F00
3E000F80
1FC00F80
07F80F80
07F80F80
1FF80F80
7E000F80
78000F80
F8000F00
F0001F00
F0001F00
F8003E00
F8007E00
7E00FC00
7FFFF800
1FFFF000
0FFFC000
01FE0000
ENDCHAR
STARTCHAR 025F
ENCODING 607
SWIDTH 270 0
DWIDTH 15 0
BBX 15 38 -1 -11
BITMAP
03E0
03E0
03E0
03E0
03E0
03E0
03E0
03E0
03E0
03E0
03E0
7FFE
7FFE
7FFE
03E0
03E0
03E0
03E0
03E0
03E0
03E0
03E0
03E0
03E0
03E0
03E0
03E0
03E0
03E0
03E0
03E0
03E0
03C0
07C0
FFC0
FF80
FF00
FC00
ENDCHAR
STARTCHAR 0260
ENCODING 608
SWIDTH 558 0
DWIDTH 31 0
BBX 29 45 3 -11
BITMAP
000001F8
000007F8
00000FF8
00000FF8
00001F80
00001F00
00001F00
00FE1E00
03FF9E00
07FFDE00
1FFFFE00
1F80FE00
3F007E00
7E001E00
7C001E00
78001E00
F8001E00
F8001E00
F8001E00
F0001E00
F0001E00
F8001E00
F8001E00
F8001E00
F8001E00
7C001E00
7C003E00
7E007E00
3F81FE00
1FFFFE00
0FFFDE00
07FF1E00
01FC1E00
00001E00
00001E00
00001E00
00001E00
00003E00
00003E00
10007C00
1E00FC00
3FFFF800
3FFFF000
0FFFC000
01FF0000
ENDCHAR
STARTCHAR 0261
ENCODING 609
SWIDTH 558 0
DWIDTH 31 0
BBX 23 38 3 -11
BITMAP
00FE1E
03FF9E
07FFDE
1FFFFE
1F80FE
3F007E
7E001E
7C001E
78001E
F8001E
F8001E
F8001E
F0001E
F0001E
F8001E
F8001E
F8001E
F8001E
7C001E
7C003E
7E007E
3F81FE
1FFFFE
0FFFDE
07FF1E
01FC1E
00001E
00001E
00001E
00001E
00003E
00003E
10007C
1E00FC
3FFFF8
3FFFF0
0FFFC0
01FF00
ENDCHAR
STARTCHAR 0262
ENCODING 610
SWIDTH 504 0
DWIDTH 28 0
BBX 22 27 3 0
BITMAP
007F80
01FFE0
07FFF8
0FFFF8
1F8070
3F0030
7E0000
7C0000
F80000
F80000
F80000
F00000
F00000
F00FFC
F00FFC
F00FFC
F0003C
F8003C
F8003C
7C003C
7C003C
3E003C
3F807C
1FFFFC
0FFFF8
03FFE0
007F00
ENDCHAR
STARTCHAR 0263
ENCODING 611
SWIDTH 468 0
DWIDTH 26 0
BBX 24 39 1 -12
BITMAP
F8001F
F8001F
78001E
7C003E
7C003C
3C003C
3E007C
1E0078
1F0078
1F00F8
0F00F0
0F80F0
0781E0
0781E0
07C1E0
03C3C0
03C3C0
01E780
01E780
01F780
00FF00
00FF00
007F00
007E00
007E00
00FF00
00FF00
01E780
01E780
01E3C0
03C3C0
03C3C0
03C3C0
03C3C0
03C3C0
03E7C0
01FF80
00FF80
007E00
ENDCHAR
STARTCHAR 0264
ENCODING 612
SWIDTH 504 0
DWIDTH 28 0
BBX 26 27 1 0
BITMAP
3E001F80
FF807FC0
FFE0FFC0
7FF1FF80
01FBF000
00FFC000
007F8000
003F8000
007FC000
00FFE000
01F3F000
03E1F000
07C0F800
07807C00
0F803C00
0F803C00
0F003E00
0F003E00
0F003E00
0F003E00
0F803E00
0F807C00
07C0FC00
07FFF800
03FFF000
01FFE000
003F8000
ENDCHAR
STARTCHAR 0265
ENCODING 613
SWIDTH 540 0
DWIDTH 30 0
BBX 22 39 4 -11
BITMAP
F8007C
F8007C
F8007C
F8007C
F8007C
F8007C
F8007C
F8007C
F8007C
F8007C
F8007C
F8007C
F8007C
F8007C
F8007C
F8007C
F8007C
F8007C
F8007C
F8007C
F800FC
7C01FC
7C03FC
7E07FC
3FFF7C
3FFE7C
1FFC7C
07E07C
00007C
00007C
00007C
00007C
00007C
00007C
00007C
00007C
00007C
00007C
00007C
ENDCHAR
STARTCHAR 0266
ENCODING 614
SWIDTH 540 0
DWIDTH 30 0
BBX 21 40 5 0
BITMAP
03F000
0FF800
3FF800
7FF800
7E0000
F80000
F80000
F80000
F00000
F00000
F00000
F00000
F00000
F03F00
F0FFC0
F3FFE0
F7FFF0
FF83F0
FE01F8
FC00F8
F800F8
F000F8
F00078
F00078
F00078
F00078
F00078
F00078
F00078
F00078
F00078
F00078
F00078
F00078
F00078
F00078
F00078
F00078
F00078
F00078
ENDCHAR
STARTCHAR 0267
ENCODING 615
SWIDTH 540 0
DWIDTH 30 0
BBX 21 50 5 -10
BITMAP
03F000
0FF800
3FF800
7FF800
7E0000
F80000
F80000
F80000
F00000
F00000
F00000
F00000
F00000
F03F00
F0FFC0
F3FFE0
F7FFF0
FF83F0
FE01F8
FC00F8
F800F8
F000F8
F00078
F00078
F00078
F00078
F00078
F00078
F00078
F00078
F00078
F00078
F00078
F00078
F00078
F00078
F00078
F00078
F00078
F00078
000078
000078
000078
0000F8
0000F8
0000F8
001FF0
003FF0
003FE0
003F80
ENDCHAR
STARTCHAR 0268
ENCODING 616
SWIDTH 270 0
DWIDTH 15 0
BBX 14 39 0 0
BITMAP
0380
07C0
0FE0
0FE0
07C0
0380
0000
0000
0000
0000
0000
0000
07C0
07C0
07C0
07C0
07C0
07C0
07C0
07C0
07C0
07C0
07C0
1FFC
FFFC
FFFC
07C0
07C0
07C0
07C0
07C0
07C0
07C0
07C0
07C0
07C0
07C0
07C0
07C0
ENDCHAR
STARTCHAR 026A
ENCODING 618
SWIDTH 342 0
DWIDTH 19 0
BBX 13 27 3 0
BITMAP
FFF8
FFF8
FFF8
FFF8
0F80
0F80
0F80
0F80
0F80
0F80
0F80
0F80
0F80
0F80
0F80
0F80
0F80
0F80
0F80
0F80
0F80
0F80
0F80
FFF8
FFF8
FFF8
FFF8
ENDCHAR
STARTCHAR 026C
ENCODING 620
SWIDTH 306 0
DWIDTH 17 0
BBX 16 40 0 0
BITMAP
01F0
01F0
01F0
01F0
01F0
01F0
01F0
01F0
01F0
01F0
01F0
01F0
09F0
7FF0
FFF0
E3F0
E1F0
E1F0
F1F0
7FFF
3FFF
03FF
01F0
01F0
01F0
01F0
01F0
01F0
01F0
01F0
01F0
01F0
01F0
01F0
01F0
01F0
00FC
00FC
00FE
003E
ENDCHAR
STARTCHAR 026D
ENCODING 621
SWIDTH 252 0
DWIDTH 14 0
BBX 10 50 5 -10
BITMAP
F000
F000
F000
F000
F000
F000
F000
F000
F000
F000
F000
F000
F000
F000
F000
F000
F000
F000
F000
F000
F000
F000
F000
F000
F000
F000
F000
F000
F000
F000
F000
F000
F000
F000
F000
F000
F000
F000
F000
F000
F000
F000
F000
F000
F800
F800
FF80
7F80
3FC0
1F80
ENDCHAR
STARTCHAR 026E
ENCODING 622
SWIDTH 576 0
DWIDTH 32 0
BBX 26 51 5 -11
BITMAP
F0000000
F0000000
F0000000
F0000000
F0000000
F0000000
F0000000
F0000000
F0000000
F0000000
F0000000
F0000000
F0000000
FFFFFF80
FFFFFF80
FFFFFF80
FFFFFF00
F0001E00
F0003C00
F0007C00
F000F800
F000F000
F001E000
F003E000
F007C000
F0078000
F00F0000
F01F0000
F03E0000
F07FE000
F07FFC00
F07FFE00
F0307F00
F0001F80
F0000F80
F00007C0
F00007C0
F00007C0
F00007C0
000007C0
000007C0
000007C0
000007C0
00000F80
06000F80
07001F00
0FC07F00
0FFFFE00
03FFFC00
00FFF000
003FC000
ENDCHAR
STARTCHAR 026F
ENCODING 623
SWIDTH 828 0
DWIDTH 46 0
BBX 38 28 4 0
BITMAP
F80078007C
F80078007C
F80078007C
F80078007C
F80078007C
F80078007C
F80078007C
F80078007C
F80078007C
F80078007C
F80078007C
F80078007C
F80078007C
F80078007C
F80078007C
F80078007C
F80078007C
F80078007C
F80078007C
F80078007C
F800FC00FC
7C01FC01FC
7C03FE03FC
7E0FBF07FC
3FFF3FFF7C
3FFE1FFE3C
1FF80FFC3C
07E003F000
ENDCHAR
STARTCHAR 0270
ENCODING 624
SWIDTH 828 0
DWIDTH 46 0
BBX 38 39 4 -11
BITMAP
F80078007C
F80078007C
F80078007C
F80078007C
F80078007C
F80078007C
F80078007C
F80078007C
F80078007C
F80078007C
F80078007C
F80078007C
F80078007C
F80078007C
F80078007C
F80078007C
F80078007C
F80078007C
F80078007C
F80078007C
F800FC00FC
7C01FC01FC
7C03FE03FC
7E0FBF07FC
3FFF3FFF7C
3FFE1FFE7C
1FF80FFC7C
07E003F07C
000000007C
000000007C
000000007C
000000007C
000000007C
000000007C
000000007C
000000007C
000000007C
000000007C
000000007C
ENDCHAR
STARTCHAR 0271
ENCODING 625
SWIDTH 828 0
DWIDTH 46 0
BBX 37 37 5 -10
BITMAP
E03E003F00
E0FF80FFC0
F3FFC1FFE0
F7FFE7FFE0
FF87FF83F0
FE01FE01F0
FC01FC00F8
F800F800F8
F000F800F8
F000F800F8
F000F800F8
F000F800F8
F000F800F8
F000F800F8
F000F800F8
F000F800F8
F000F800F8
F000F800F8
F000F800F8
F000F800F8
F000F800F8
F000F800F8
F000F800F8
F000F800F8
F000F800F8
F000F800F8
F000F800F8
00000000F8
00000000F8
00000000F8
00000000F8
00000000F8
00000001F0
0000001FF0
0000003FE0
0000003FC0
0000003F80
ENDCHAR
STARTCHAR 0272
ENCODING 626
SWIDTH 540 0
DWIDTH 30 0
BBX 27 37 -1 -10
BITMAP
0000FC00
03C3FF00
03CFFF80
03DFFFC0
03FE0FC0
03F807E0
03F003E0
03E003E0
03C003E0
03C001E0
03C001E0
03C001E0
03C001E0
03C001E0
03C001E0
03C001E0
03C001E0
03C001E0
03C001E0
03C001E0
03C001E0
03C001E0
03C001E0
03C001E0
03C001E0
03C001E0
03C001E0
03C00000
03C00000
03C00000
07C00000
07C00000
07C00000
7F800000
FF800000
FF000000
FC000000
ENDCHAR
STARTCHAR 0273
ENCODING 627
SWIDTH 540 0
DWIDTH 30 0
BBX 27 37 5 -10
BITMAP
003F0000
E0FFC000
F3FFE000
F7FFF000
FF83F000
FE01F800
FC00F800
F800F800
F000F800
F0007800
F0007800
F0007800
F0007800
F0007800
F0007800
F0007800
F0007800
F0007800
F0007800
F0007800
F0007800
F0007800
F0007800
F0007800
F0007800
F0007800
F0007800
00007800
00007800
00007800
00007800
00007C00
00007C00
00007FC0
00003FC0
00001FE0
000007C0
ENDCHAR
STARTCHAR 0274
ENCODING 628
SWIDTH 540 0
DWIDTH 30 0
BBX 21 27 5 0
BITMAP
F000F8
F800F8
F800F8
FC00F8
FE00F8
FE00F8
EF00F8
F700F8
F780F8
F3C0F8
F3C0F8
F1E0F8
F1F0F8
F0F0F8
F078F8
F078F8
F03CF8
F03E78
F01E78
F00F78
F00F78
F007F8
F003F8
F003F8
F001F8
F001F8
F000F8
ENDCHAR
STARTCHAR 0275
ENCODING 629
SWIDTH 540 0
DWIDTH 30 0
BBX 25 27 3 0
BITMAP
007F0000
03FFC000
07FFF000
1FFFF800
3F00FC00
3E007C00
7C003E00
78001E00
F8001F00
F8000F00
F0000F00
F0000F00
FFFFFF80
FFFFFF80
FFFFFF80
F0000F00
F0000F00
F0000F00
F8001F00
78001F00
7C003E00
3E007E00
3F00FC00
1FFFF800
0FFFF000
03FFC000
00FF0000
ENDCHAR
STARTCHAR 0276
ENCODING 630
SWIDTH 702 0
DWIDTH 39 0
BBX 35 27 3 -1
BITMAP
007FFFFFC0
03FFFFFFC0
07FFFFFFC0
1FFFFFFFC0
1F80780000
3F00780000
7E00780000
7C00780000
F800780000
F800780000
F800780000
F0007FFF00
F0007FFF00
F0007FFF00
F000780000
F800780000
F800780000
F800780000
F800780000
7C00780000
7E00780000
3F00780000
1F80780000
0FFFF80000
07FFFFFFE0
03FFFFFFE0
007FFFFFE0
ENDCHAR
STARTCHAR 0278
ENCODING 632
SWIDTH 684 0
DWIDTH 38 0
BBX 32 50 3 -11
BITMAP
0003C000
0003C000
0003C000
0003C000
0003C000
0003C000
0003C000
0003C000
0003C000
0003C000
0003C000
0003C000
003FFC00
01FFFF80
03FFFFC0
0FFFFFF0
1FC3C3F8
3F03C0FC
3E03C07C
7C03C03E
7803C03E
F803C01F
F803C01F
F003C01F
F003C01F
F003C01F
F003C01F
F003C01F
F803C01F
F803C01F
FC03C03E
7C03C03E
3E03C07C
3F03C0FC
1FC3C3F8
0FFFFFF0
07FFFFC0
01FFFF00
003FF800
0003C000
0003C000
0003C000
0003C000
0003C000
0003C000
0003C000
0003C000
0003C000
0003C000
0003C000
ENDCHAR
STARTCHAR 0279
ENCODING 633
SWIDTH 342 0
DWIDTH 19 0
BBX 15 28 0 0
BITMAP
003E
003E
003E
003E
003E
003E
003E
003E
003E
003E
003E
003E
003E
003E
003E
003E
003E
003E
003E
007E
007E
00FE
01DE
07DE
FF9E
FF1E
FE1E
F800
ENDCHAR
STARTCHAR 027A
ENCODING 634
SWIDTH 342 0
DWIDTH 19 0
BBX 15 40 0 0
BITMAP
003E
003E
003E
003E
003E
003E
003E
003E
003E
003E
003E
003E
003E
003E
003E
003E
003E
003E
003E
003E
003E
003E
003E
003E
003E
003E
003E
003E
003E
003E
003E
007E
007E
00FE
01DE
07DE
FF9E
FF1E
FE1E
F800
ENDCHAR
STARTCHAR 027B
ENCODING 635
SWIDTH 342 0
DWIDTH 19 0
BBX 20 38 0 -10
BITMAP
003E00
003E00
003E00
003E00
003E00
003E00
003E00
003E00
003E00
003E00
003E00
003E00
003E00
003E00
003E00
003E00
003E00
003E00
003E00
007E00
007E00
00FE00
01DE00
07DE00
FF9E00
FF1E00
FE1E00
F81E00
001E00
001E00
001E00
001E00
001E00
001F10
001FF0
000FF0
0007F0
0001E0
ENDCHAR
STARTCHAR 027D
ENCODING 637
SWIDTH 342 0
DWIDTH 19 0
BBX 14 37 5 -10
BITMAP
E07C
E1FC
F3FC
F7FC
F784
FE00
FC00
FC00
F800
F000
F000
F000
F000
F000
F000
F000
F000
F000
F000
F000
F000
F000
F000
F000
F000
F000
F000
F000
F000
F000
F000
F800
F800
FF80
7F80
3FC0
1F80
ENDCHAR
STARTCHAR 027E
ENCODING 638
SWIDTH 342 0
DWIDTH 19 0
BBX 14 28 5 -1
BITMAP
03F8
0FFC
3FF8
7FF8
7E08
FC00
F800
F800
F000
F000
F000
F000
F000
F000
F000
F000
F000
F000
F000
F000
F000
F000
F000
F000
F000
F000
F000
F000
ENDCHAR
STARTCHAR 0280
ENCODING 640
SWIDTH 504 0
DWIDTH 28 0
BBX 20 27 5 0
BITMAP
FFFC00
FFFF00
FFFF80
FFFFC0
F007E0
F003E0
F001E0
F001E0
F001E0
F001E0
F003E0
F007E0
F00FC0
FFFF80
FFFF00
FFFC00
F07C00
F03E00
F03E00
F01F00
F00F80
F00F80
F007C0
F007C0
F003E0
F001F0
F001F0
ENDCHAR
STARTCHAR 0281
ENCODING 641
SWIDTH 504 0
DWIDTH 28 0
BBX 21 27 2 0
BITMAP
F800F8
7C00F8
7C00F8
3E00F8
1F00F8
1F00F8
0F80F8
0780F8
07C0F8
03E0F8
01E0F8
01FFF8
07FFF8
1FFFF8
3F80F8
3E00F8
3C00F8
7C00F8
7C00F8
7C00F8
7C00F8
7E00F8
3F00F8
3FFFF8
1FFFF8
07FFF8
01FFF8
ENDCHAR
STARTCHAR 0282
ENCODING 642
SWIDTH 414 0
DWIDTH 23 0
BBX 20 37 2 -10
BITMAP
01FC00
0FFF00
1FFFC0
3FFFC0
3E0380
7C0080
780000
780000
7C0000
7E0000
3F0000
1FE000
0FFC00
03FF00
00FF80
001FC0
0007E0
0003E0
0001E0
0001F0
0001E0
6001E0
F807E0
FFFFC0
FFFF80
FFFF00
F3F800
F00000
F00000
F00000
F00000
F00000
F80000
7FC000
7FC000
3FC000
070000
ENDCHAR
STARTCHAR 0283
ENCODING 643
SWIDTH 252 0
DWIDTH 14 0
BBX 18 51 -2 -11
BITMAP
001F80
007FC0
00FF80
00FF80
01F000
01F000
01E000
01E000
01E000
01E000
01E000
01E000
01E000
01E000
01E000
01E000
01E000
01E000
01E000
01E000
01E000
01E000
01E000
01E000
01E000
01E000
01E000
01E000
01E000
01E000
01E000
01E000
01E000
01E000
01E000
01E000
01E000
01E000
01E000
01E000
01E000
01E000
01E000
01E000
03E000
03E000
03E000
7FC000
FFC000
FF8000
FE0000
ENDCHAR
STARTCHAR 0284
ENCODING 644
SWIDTH 270 0
DWIDTH 15 0
BBX 17 51 -1 -11
BITMAP
001F80
007F80
00FF80
01FF80
01F000
01E000
03E000
03E000
03E000
03E000
03E000
03E000
03E000
03E000
03E000
03E000
03E000
03E000
03E000
03E000
03E000
03E000
03E000
03E000
0FFE00
7FFE00
7FFE00
03E000
03E000
03E000
03E000
03E000
03E000
03E000
03E000
03E000
03E000
03E000
03E000
03E000
03E000
03E000
03E000
03E000
03E000
03C000
07C000
FFC000
FF8000
FF0000
FC0000
ENDCHAR
STARTCHAR 0288
ENCODING 648
SWIDTH 342 0
DWIDTH 19 0
BBX 17 45 1 -10
BITMAP
078000
078000
078000
078000
078000
078000
078000
078000
FFFF00
FFFF00
FFFF00
FFFF00
0F8000
0F8000
0F8000
0F8000
0F8000
0F8000
0F8000
0F8000
0F8000
0F8000
0F8000
0F8000
0F8000
0F8000
0F8000
0F8000
0F8000
0F8000
0F8000
0F8000
0F8000
0F8000
0F8000
0F8000
0F8000
0F8000
078000
07C000
07C000
07FF00
03FF80
01FF80
007E00
ENDCHAR
STARTCHAR 0289
ENCODING 649
SWIDTH 576 0
DWIDTH 32 0
BBX 31 27 0 0
BITMAP
07C003E0
07C003E0
07C003E0
07C003E0
07C003E0
07C003E0
07C003E0
07C003E0
07C003E0
07C003E0
FFFFFFFE
FFFFFFFE
FFFFFFFE
07C003E0
07C003E0
07C003E0
07C003E0
07C003E0
07C003E0
07C003E0
03E007E0
03E01FE0
03F03DE0
01FFF9E0
01FFF1E0
00FFE1E0
003F81E0
ENDCHAR
STARTCHAR 028A
ENCODING 650
SWIDTH 540 0
DWIDTH 30 0
BBX 26 27 2 0
BITMAP
FFC0FFC0
FFC0FFC0
FFC0FFC0
FFC0FFC0
07807800
0F003C00
1E001E00
1E001F00
3C000F00
3C000F00
7C000F80
7C000780
78000780
78000780
78000780
78000780
7C000780
7C000F80
7C000F80
3E001F80
3E001F00
1F003F00
1FC0FE00
0FFFFC00
07FFF800
01FFE000
007F8000
ENDCHAR
STARTCHAR 028B
ENCODING 651
SWIDTH 522 0
DWIDTH 29 0
BBX 23 27 4 0
BITMAP
F81F80
F81FE0
F80FF0
F80FF8
F800FC
F8007C
F8007C
F8007C
F8003E
F8003E
F8003E
F8003E
F8003E
F8003E
F8003C
F8003C
F8007C
F8007C
F8007C
7800F8
7C00F8
7E01F0
3F03F0
1FFFE0
1FFFC0
07FF00
01FC00
ENDCHAR
STARTCHAR 028C
ENCODING 652
SWIDTH 468 0
DWIDTH 26 0
BBX 24 27 1 0
BITMAP
007E00
007E00
00FE00
00FF00
00EF00
01E780
01E780
01E780
03C7C0
03C3C0
03C3C0
0783E0
0781E0
0F81E0
0F01F0
0F00F0
1F00F0
1E00F8
1E0078
3E007C
3C007C
3C003C
7C003E
78003E
78001E
F8001F
F0001F
ENDCHAR
STARTCHAR 028D
ENCODING 653
SWIDTH 720 0
DWIDTH 40 0
BBX 37 27 1 0
BITMAP
01F8007C00
01FC00FC00
01FC00FE00
01FC00FE00
03DC00FE00
03DE01EF00
03DE01CF00
03DE01CF00
078E01CF00
078F03CF80
078F038780
0F8F038780
0F078787C0
0F078787C0
0F078703C0
1F078703C0
1E03CF03E0
1E03CF03E0
1E03CE01E0
3E01CE01E0
3C01EE01F0
3C01FE01F0
3C01FC00F0
7C00FC00F8
7800FC00F8
7800F800F8
F800F80078
ENDCHAR
STARTCHAR 028E
ENCODING 654
SWIDTH 468 0
DWIDTH 26 0
BBX 24 40 1 0
BITMAP
00003F
0000FE
0003FE
0003FE
0007C0
000F80
000F00
001F00
001E00
003E00
003C00
003C00
007C00
007C00
007C00
00FC00
00FE00
00FE00
01EF00
01EF00
01CF00
03C780
03C780
0387C0
0783C0
0783C0
0F83E0
0F01E0
0F01F0
1F00F0
1E00F0
1E00F8
3E0078
3C007C
3C007C
7C003C
78003E
78001E
F8001F
F0001F
ENDCHAR
STARTCHAR 028F
ENCODING 655
SWIDTH 414 0
DWIDTH 23 0
BBX 23 27 0 0
BITMAP
F8003E
7C003C
7C007C
3E0078
3E00F8
1E00F0
1F01F0
0F01E0
0F83E0
0783C0
07C7C0
03C780
03EF80
01EF00
01FF00
00FE00
007E00
007C00
007C00
007C00
007C00
007C00
007C00
007C00
007C00
007C00
007C00
ENDCHAR
STARTCHAR 0290
ENCODING 656
SWIDTH 432 0
DWIDTH 24 0
BBX 25 37 2 -10
BITMAP
7FFFF000
7FFFF000
7FFFF000
7FFFE000
0007C000
0007C000
000F8000
001F0000
001F0000
003E0000
007C0000
007C0000
00F80000
01F00000
01E00000
03E00000
07C00000
07800000
0F800000
1F000000
3E000000
3E000000
7C000000
FFFFF000
FFFFF000
FFFFF000
FFFFF000
0001F000
0001F000
0001F000
0001F000
0001F000
0000F800
0000FF80
0000FF80
00007F80
00001F80
ENDCHAR
STARTCHAR 0291
ENCODING 657
SWIDTH 450 0
DWIDTH 25 0
BBX 24 31 2 -5
BITMAP
7FFFE0
7FFFE0
7FFFE0
7FFFE0
0007C0
000780
000F80
001F00
001E00
003E00
007C00
007800
00F800
01F000
01E000
03E070
07C1FC
0783FE
0F878F
1F0707
3E0E07
3C0C07
7C1C0E
FFFCFE
FFFFFC
FFFFF8
FFFFE0
007000
007000
007000
006000
ENDCHAR
STARTCHAR 0292
ENCODING 658
SWIDTH 432 0
DWIDTH 24 0
BBX 23 38 0 -11
BITMAP
3FFFF8
3FFFF8
3FFFF8
3FFFF8
0001F0
0003E0
0003C0
0007C0
000F80
001F00
001E00
003C00
007C00
00F800
00F000
01E000
03FF00
07FFC0
03FFF0
0107F8
0001F8
0000FC
00007C
00003C
00003C
00003E
00003E
00003C
00003C
00007C
00007C
2000F8
7801F8
FE03F0
7FFFE0
3FFFC0
0FFF80
01FC00
ENDCHAR
STARTCHAR 0294
ENCODING 660
SWIDTH 414 0
DWIDTH 23 0
BBX 22 40 0 0
BITMAP
01FE00
0FFF80
1FFFE0
7FFFF0
FE03F0
F801F8
7000F8
20007C
00007C
00007C
00007C
00007C
00007C
00007C
00007C
0000F8
0000F8
0001F0
0003E0
000FE0
001FC0
007F00
00FE00
00FC00
00F800
00F800
00F800
00F800
00F800
00F800
00F800
00F800
00F800
00F800
00F800
00F800
00F800
00F800
00F800
00F800
ENDCHAR
STARTCHAR 0295
ENCODING 661
SWIDTH 450 0
DWIDTH 25 0
BBX 22 40 2 0
BITMAP
00FE00
07FFC0
1FFFE0
3FFFF8
3F01FC
7E0078
7C0038
F80010
F80000
F00000
F00000
F00000
F00000
F80000
F80000
7C0000
7C0000
3E0000
3F0000
1F8000
0FE000
07F000
01FC00
00FC00
007C00
007C00
007C00
007C00
007C00
007C00
007C00
007C00
007C00
007C00
007C00
007C00
007C00
007C00
007C00
007C00
ENDCHAR
STARTCHAR 0298
ENCODING 664
SWIDTH 522 0
DWIDTH 29 0
BBX 23 40 3 0
BITMAP
007E00
01FF80
07FFC0
0FFFE0
0F83F0
1F01F0
1E00F8
3E00F8
3C0078
3C007C
7C003C
78003C
78003C
78003E
78003E
F8003E
F8003E
F8381E
F87C1E
F87C1E
F87C1E
F8381E
F8001E
F8003E
F8003E
78003E
78003C
78003C
78003C
7C003C
7C007C
3C0078
3E0078
1E00F8
1F01F0
0F83F0
0FFFE0
07FFC0
03FF80
00FE00
ENDCHAR
STARTCHAR 0299
ENCODING 665
SWIDTH 504 0
DWIDTH 28 0
BBX 21 27 5 0
BITMAP
FFFE00
FFFF80
FFFFC0
F00FE0
F003F0
F001F0
F001F0
F001F0
F001F0
F001E0
F007C0
FFFF80
FFFF00
FFFFC0
F00FE0
F001F0
F000F8
F000F8
F000F8
F000F8
F000F8
F000F8
F001F0
F00FF0
FFFFE0
FFFF80
FFFE00
ENDCHAR
STARTCHAR 029C
ENCODING 668
SWIDTH 558 0
DWIDTH 31 0
BBX 22 27 5 0
BITMAP
F0007C
F0007C
F0007C
F0007C
F0007C
F0007C
F0007C
F0007C
F0007C
F0007C
F0007C
FFFFFC
FFFFFC
FFFFFC
FFFFFC
F0007C
F0007C
F0007C
F0007C
F0007C
F0007C
F0007C
F0007C
F0007C
F0007C
F0007C
F0007C
ENDCHAR
STARTCHAR 029D
ENCODING 669
SWIDTH 288 0
DWIDTH 16 0
BBX 22 53 -5 -14
BITMAP
000F00
001F80
001F80
001F80
001F80
000F00
000000
000000
000000
000000
000000
000000
000F00
000F00
000F00
000F00
000F00
000F00
000F00
000F00
000F00
000F00
000F00
000F00
000F00
000F00
000F00
000F00
000F00
000F00
000F00
000F00
000F00
000F00
000F00
000F00
000F00
000F00
000F00
0FCF00
3FFF00
7FFF00
7CFF00
F01F00
F01F80
783FC0
7FFFE0
7FFDF0
3FF0F0
0FC0F8
000078
00007C
000030
ENDCHAR
STARTCHAR 029F
ENCODING 671
SWIDTH 414 0
DWIDTH 23 0
BBX 16 27 5 0
BITMAP
F000
F000
F000
F000
F000
F000
F000
F000
F000
F000
F000
F000
F000
F000
F000
F000
F000
F000
F000
F000
F000
F000
F000
FFFF
FFFF
FFFF
FFFF
ENDCHAR
STARTCHAR 02A1
ENCODING 673
SWIDTH 450 0
DWIDTH 25 0
BBX 23 40 0 0
BITMAP
00FF00
07FFC0
1FFFE0
3FFFF0
7E01F8
7C00FC
30007C
00003E
00003E
00003E
00003E
00003E
00003E
00003C
00007C
00007C
0000F8
0001F0
0003E0
0007C0
000F80
003F00
FFFFFE
FFFFFE
FFFFFE
FFFFFE
007800
007800
007800
007800
007800
007800
007800
007800
007800
007800
007800
007800
007800
007800
ENDCHAR
STARTCHAR 02A2
ENCODING 674
SWIDTH 450 0
DWIDTH 25 0
BBX 23 40 1 0
BITMAP
007F00
03FFE0
0FFFF0
1FFFFC
3F80FC
3E003C
7C0018
7C0008
7C0000
780000
780000
780000
780000
7C0000
7C0000
3E0000
3E0000
1F0000
0F8000
07C000
03F000
01F800
FFFFFE
FFFFFE
FFFFFE
FFFFFE
003E00
003E00
003E00
003E00
003E00
003E00
003E00
003E00
003E00
003E00
003E00
003E00
003E00
003E00
ENDCHAR
STARTCHAR 02B0
ENCODING 688
SWIDTH 360 0
DWIDTH 20 0
BBX 15 26 3 22
BITMAP
E000
E000
E000
E000
E000
E000
E000
E000
E1F0
E7F8
EFFC
FC3C
F01E
E01E
E01E
E01E
E01E
E01E
E01E
E01E
E01E
E01E
E01E
E01E
E01E
E01E
ENDCHAR
STARTCHAR 02B2
ENCODING 690
SWIDTH 162 0
DWIDTH 9 0
BBX 8 33 -1 14
BITMAP
0F
1F
0F
0E
00
00
00
0E
0E
0E
0E
0E
0E
0E
0E
0E
0E
0E
0E
0E
0E
0E
0E
0E
0E
0E
0E
0E
0E
1E
FE
FC
F8
ENDCHAR
STARTCHAR 02B3
ENCODING 691
SWIDTH 234 0
DWIDTH 13 0
BBX 10 18 3 22
BITMAP
E3C0
E7C0
EFC0
FC00
F800
F000
F000
E000
E000
E000
E000
E000
E000
E000
E000
E000
E000
E000
ENDCHAR
STARTCHAR 02B7
ENCODING 695
SWIDTH 486 0
DWIDTH 27 0
BBX 25 18 1 22
BITMAP
F01C0380
F01E0380
703E0700
703E0700
78360700
78370700
38770E00
38770E00
3C630E00
3C638E00
1CE39C00
1CE39C00
1CC1DC00
0EC1DC00
0FC1F800
0FC0F800
0F80F800
0780F000
ENDCHAR
STARTCHAR 02B8
ENCODING 696
SWIDTH 324 0
DWIDTH 18 0
BBX 17 26 0 14
BITMAP
F00380
700380
780780
380700
380700
3C0F00
1C0E00
1E0E00
0E1C00
0E1C00
071C00
071800
073800
03B800
03B000
01F000
01F000
01E000
00E000
01E000
01C000
03C000
078000
3F0000
3E0000
380000
ENDCHAR
STARTCHAR 02B9
ENCODING 697
SWIDTH 252 0
DWIDTH 14 0
BBX 5 13 5 25
BITMAP
78
78
78
F8
F0
F0
F0
F0
F0
E0
E0
E0
E0
ENDCHAR
STARTCHAR 02BB
ENCODING 699
SWIDTH 252 0
DWIDTH 14 0
BBX 7 15 3 24
BITMAP
04
0E
1E
3C
38
70
70
E0
E0
F8
FC
FE
FE
7C
38
ENDCHAR
STARTCHAR 02BC
ENCODING 700
SWIDTH 252 0
DWIDTH 14 0
BBX 7 15 4 24
BITMAP
38
7C
FC
FE
7E
7E
0E
0E
1C
1C
38
78
F0
E0
C0
ENDCHAR
STARTCHAR 02BE
ENCODING 702
SWIDTH 162 0
DWIDTH 9 0
BBX 6 11 2 30
BITMAP
E0
F8
3C
1C
0C
0C
0C
1C
3C
F8
E0
ENDCHAR
STARTCHAR 02BF
ENCODING 703
SWIDTH 162 0
DWIDTH 9 0
BBX 7 11 1 30
BITMAP
1E
7E
70
E0
E0
E0
E0
E0
70
7E
1E
ENDCHAR
STARTCHAR 02C1
ENCODING 705
SWIDTH 306 0
DWIDTH 17 0
BBX 15 27 1 22
BITMAP
03E0
1FF8
3FFC
7C1E
780C
F004
F000
F000
F000
F000
7800
7800
3C00
1F00
0F80
07C0
03C0
03C0
03C0
03C0
03C0
03C0
03C0
03C0
03C0
03C0
03C0
ENDCHAR
STARTCHAR 02C6
ENCODING 710
SWIDTH 540 0
DWIDTH 30 0
BBX 16 9 7 31
BITMAP
07E0
07F0
0FF0
1FF8
3E7C
7C3E
F80F
F007
C003
ENDCHAR
STARTCHAR 02C7
ENCODING 711
SWIDTH 540 0
DWIDTH 30 0
BBX 16 9 7 33
BITMAP
C003
F007
F80F
7C3E
3E7C
1FF8
0FF0
07F0
07E0
ENDCHAR
STARTCHAR 02C8
ENCODING 712
SWIDTH 108 0
DWIDTH 6 0
BBX 4 11 1 30
BITMAP
F0
F0
F0
F0
F0
F0
F0
F0
F0
F0
70
ENDCHAR
STARTCHAR 02C9
ENCODING 713
SWIDTH 270 0
DWIDTH 15 0
BBX 15 3 0 34
BITMAP
FFFE
FFFE
FFFE
ENDCHAR
STARTCHAR 02CA
ENCODING 714
SWIDTH 234 0
DWIDTH 13 0
BBX 11 11 3 33
BITMAP
0180
03C0
07E0
0FC0
0F80
1F00
3E00
7C00
F800
7000
2000
ENDCHAR
STARTCHAR 02CB
ENCODING 715
SWIDTH 234 0
DWIDTH 13 0
BBX 11 11 -2 33
BITMAP
3000
7800
FC00
7E00
3F00
1F80
0F80
07C0
03E0
01C0
0080
ENDCHAR
STARTCHAR 02CC
ENCODING 716
SWIDTH 108 0
DWIDTH 6 0
BBX 4 11 1 -15
BITMAP
70
70
F0
F0
F0
F0
F0
F0
F0
F0
F0
ENDCHAR
STARTCHAR 02D0
ENCODING 720
SWIDTH 252 0
DWIDTH 14 0
BBX 8 26 3 0
BITMAP
FF
FF
7E
7C
3C
38
18
10
00
00
00
00
00
00
00
00
00
00
00
18
18
3C
3C
7E
7E
FF
ENDCHAR
STARTCHAR 02D1
ENCODING 721
SWIDTH 252 0
DWIDTH 14 0
BBX 8 8 3 15
BITMAP
FF
FF
7E
7C
3C
38
18
10
ENDCHAR
STARTCHAR 02D8
ENCODING 728
SWIDTH 540 0
DWIDTH 30 0
BBX 18 9 6 32
BITMAP
600180
F001C0
700380
700380
780780
3E1F00
1FFE00
0FFC00
03F000
ENDCHAR
STARTCHAR 02D9
ENCODING 729
SWIDTH 540 0
DWIDTH 30 0
BBX 6 6 12 33
BITMAP
78
FC
FC
FC
FC
78
ENDCHAR
STARTCHAR 02DA
ENCODING 730
SWIDTH 540 0
DWIDTH 30 0
BBX 12 11 9 31
BITMAP
1F80
3FC0
70E0
E070
E070
E070
E070
E070
70E0
3FC0
1F80
ENDCHAR
STARTCHAR 02DB
ENCODING 731
SWIDTH 540 0
DWIDTH 30 0
BBX 10 12 11 -11
BITMAP
0E00
1C00
3800
3800
7000
7000
F000
F000
7880
7F80
3FC0
1F00
ENDCHAR
STARTCHAR 02DC
ENCODING 732
SWIDTH 540 0
DWIDTH 30 0
BBX 20 8 5 32
BITMAP
0F0060
3FC070
3FE0E0
7DF0E0
70F9E0
707FC0
703FC0
F00F00
ENDCHAR
STARTCHAR 02DD
ENCODING 733
SWIDTH 540 0
DWIDTH 30 0
BBX 16 11 10 31
BITMAP
0C04
0F0F
1E0F
1E1E
3C1C
383C
7838
7078
F070
E0E0
0020
ENDCHAR
STARTCHAR 02DE
ENCODING 734
SWIDTH 144 0
DWIDTH 8 0
BBX 14 10 -5 13
BITMAP
0100
0700
3F00
FF00
FF80
E380
83C0
01FC
01FC
0078
ENDCHAR
STARTCHAR 02E0
ENCODING 736
SWIDTH 324 0
DWIDTH 18 0
BBX 16 26 1 14
BITMAP
E007
E00F
F00E
700E
701E
781C
381C
3C38
1C38
1C38
1E70
0E70
0E60
07E0
07E0
07C0
07C0
07E0
0EE0
0E70
0E70
0E70
0E70
0E70
0FF0
07E0
ENDCHAR
STARTCHAR 02E1
ENCODING 737
SWIDTH 180 0
DWIDTH 10 0
BBX 6 27 3 21
BITMAP
E0
E0
E0
E0
E0
E0
E0
E0
E0
E0
E0
E0
E0
E0
E0
E0
E0
E0
E0
E0
E0
E0
E0
F0
F8
78
3C
ENDCHAR
STARTCHAR 02E2
ENCODING 738
SWIDTH 288 0
DWIDTH 16 0
BBX 14 19 1 21
BITMAP
0FC0
1FF0
3FF8
7830
7000
7000
7800
3E00
1FC0
0FF0
01F8
0078
003C
003C
6038
7878
FFF0
3FE0
0700
ENDCHAR
STARTCHAR 02E3
ENCODING 739
SWIDTH 306 0
DWIDTH 17 0
BBX 15 18 1 22
BITMAP
F01E
781C
383C
3C38
1E70
1EF0
0FE0
07E0
07C0
07C0
0FE0
0EE0
1CF0
3C78
3838
703C
F01E
E00E
ENDCHAR
STARTCHAR 0300
ENCODING 768
SWIDTH 0 0
DWIDTH 0 0
BBX 11 11 -8 33
BITMAP
3000
7800
FC00
7E00
3F00
1F00
0F80
07C0
03E0
01C0
0080
ENDCHAR
STARTCHAR 0301
ENCODING 769
SWIDTH 0 0
DWIDTH 0 0
BBX 11 11 -3 33
BITMAP
0180
03C0
07E0
0FC0
1F80
1F00
3E00
7C00
F800
7000
2000
ENDCHAR
STARTCHAR 0302
ENCODING 770
SWIDTH 0 0
DWIDTH 0 0
BBX 16 9 -8 31
BITMAP
07E0
0FE0
0FF0
1FF8
3E7C
7C3E
F81F
E00F
C003
ENDCHAR
STARTCHAR 0303
ENCODING 771
SWIDTH 0 0
DWIDTH 0 0
BBX 20 8 -10 32
BITMAP
0F0070
3FC0F0
3FE0E0
7DF0E0
70F9E0
707FC0
F03FC0
E00F00
ENDCHAR
STARTCHAR 0304
ENCODING 772
SWIDTH 0 0
DWIDTH 0 0
BBX 14 3 -7 34
BITMAP
FFFC
FFFC
FFFC
ENDCHAR
STARTCHAR 0305
ENCODING 773
SWIDTH 0 0
DWIDTH 0 0
BBX 14 3 -7 34
BITMAP
FFFC
FFFC
FFFC
ENDCHAR
STARTCHAR 0306
ENCODING 774
SWIDTH 0 0
DWIDTH 0 0
BBX 18 9 -9 32
BITMAP
600180
F001C0
700380
700380
780780
3E1F00
1FFE00
0FFC00
03F000
ENDCHAR
STARTCHAR 0307
ENCODING 775
SWIDTH 0 0
DWIDTH 0 0
BBX 6 6 -3 33
BITMAP
78
FC
FC
FC
FC
78
ENDCHAR
STARTCHAR 0308
ENCODING 776
SWIDTH 0 0
DWIDTH 0 0
BBX 16 6 -8 32
BITMAP
700E
F81F
F81F
F81F
F81F
2004
ENDCHAR
STARTCHAR 0309
ENCODING 777
SWIDTH 0 0
DWIDTH 0 0
BBX 8 10 -4 32
BITMAP
F0
FE
FF
1F
0F
07
07
0F
3E
38
ENDCHAR
STARTCHAR 030A
ENCODING 778
SWIDTH 0 0
DWIDTH 0 0
BBX 12 11 -6 31
BITMAP
1F80
3FC0
70E0
E070
E070
E070
E070
E070
70E0
3FC0
1F80
ENDCHAR
STARTCHAR 030B
ENCODING 779
SWIDTH 0 0
DWIDTH 0 0
BBX 16 11 -5 31
BITMAP
0C04
0F0F
1E0E
1E1E
3C1C
383C
7838
7070
F070
E0E0
0020
ENDCHAR
STARTCHAR 030C
ENCODING 780
SWIDTH 0 0
DWIDTH 0 0
BBX 16 9 -8 33
BITMAP
C003
E007
F81F
7C3E
3E7C
1FF8
0FF0
0FE0
07E0
ENDCHAR
STARTCHAR 030F
ENCODING 783
SWIDTH 0 0
DWIDTH 0 0
BBX 16 11 -11 31
BITMAP
2030
F0F0
F078
7878
383C
3C1C
1C1E
1E0E
0E0F
0707
0400
ENDCHAR
STARTCHAR 0311
ENCODING 785
SWIDTH 0 0
DWIDTH 0 0
BBX 18 9 -9 31
BITMAP
03F000
0FFC00
1FFE00
3E1F00
780780
700380
700380
E001C0
600180
ENDCHAR
STARTCHAR 0312
ENCODING 786
SWIDTH 0 0
DWIDTH 0 0
BBX 5 11 -3 31
BITMAP
08
18
38
70
60
C0
F0
F8
F8
78
30
ENDCHAR
STARTCHAR 0313
ENCODING 787
SWIDTH 0 0
DWIDTH 0 0
BBX 5 11 -2 31
BITMAP
60
F0
F8
F8
78
18
30
70
E0
C0
80
ENDCHAR
STARTCHAR 0318
ENCODING 792
SWIDTH 0 0
DWIDTH 0 0
BBX 9 11 -4 -14
BITMAP
0380
0380
0380
0380
FF80
FF80
FF80
0380
0380
0380
0380
ENDCHAR
STARTCHAR 0319
ENCODING 793
SWIDTH 0 0
DWIDTH 0 0
BBX 9 11 -5 -14
BITMAP
E000
E000
E000
E000
FF80
FF80
FF80
E000
E000
E000
E000
ENDCHAR
STARTCHAR 031A
ENCODING 794
SWIDTH 0 0
DWIDTH 0 0
BBX 9 8 -4 32
BITMAP
FF80
FF80
FF80
0380
0380
0380
0380
0380
ENDCHAR
STARTCHAR 031B
ENCODING 795
SWIDTH 0 0
DWIDTH 0 0
BBX 8 12 0 24
BITMAP
02
0F
0F
0F
0F
0F
0F
1F
3E
FC
F0
80
ENDCHAR
STARTCHAR 031C
ENCODING 796
SWIDTH 0 0
DWIDTH 0 0
BBX 7 10 -4 -14
BITMAP
0E
3E
70
60
E0
E0
60
70
3E
0E
ENDCHAR
STARTCHAR 031D
ENCODING 797
SWIDTH 0 0
DWIDTH 0 0
BBX 10 9 -5 -11
BITMAP
0C00
0C00
0C00
0C00
0C00
0C00
FFC0
FFC0
FFC0
ENDCHAR
STARTCHAR 031E
ENCODING 798
SWIDTH 0 0
DWIDTH 0 0
BBX 10 9 -5 -14
BITMAP
FFC0
FFC0
FFC0
0C00
0C00
0C00
0C00
0C00
0C00
ENDCHAR
STARTCHAR 031F
ENCODING 799
SWIDTH 0 0
DWIDTH 0 0
BBX 10 11 -5 -14
BITMAP
0C00
0C00
0C00
0C00
FFC0
FFC0
FFC0
0C00
0C00
0C00
0C00
ENDCHAR
STARTCHAR 0320
ENCODING 800
SWIDTH 0 0
DWIDTH 0 0
BBX 10 3 -5 -10
BITMAP
FFC0
FFC0
FFC0
ENDCHAR
STARTCHAR 0323
ENCODING 803
SWIDTH 0 0
DWIDTH 0 0
BBX 6 6 -3 -11
BITMAP
78
FC
FC
FC
FC
78
ENDCHAR
STARTCHAR 0324
ENCODING 804
SWIDTH 0 0
DWIDTH 0 0
BBX 16 6 -8 -11
BITMAP
2004
F81F
F81F
F81F
F81F
700E
ENDCHAR
STARTCHAR 0325
ENCODING 805
SWIDTH 0 0
DWIDTH 0 0
BBX 12 11 -6 -14
BITMAP
1F80
3FC0
70E0
E070
E070
E070
E070
E070
70E0
3FC0
1F80
ENDCHAR
STARTCHAR 0326
ENCODING 806
SWIDTH 0 0
DWIDTH 0 0
BBX 9 9 -5 -12
BITMAP
1C00
3F00
0F80
0380
0380
0780
1F80
FE00
F800
ENDCHAR
STARTCHAR 0327
ENCODING 807
SWIDTH 0 0
DWIDTH 0 0
BBX 9 13 -5 -12
BITMAP
0E00
1C00
1C00
3C00
3C00
3F00
0780
0380
0380
0780
1F80
FE00
F800
ENDCHAR
STARTCHAR 0328
ENCODING 808
SWIDTH 0 0
DWIDTH 0 0
BBX 10 12 -4 -11
BITMAP
0E00
1C00
3800
7800
7000
7000
F000
F000
F880
7F80
7FC0
1F00
ENDCHAR
STARTCHAR 0329
ENCODING 809
SWIDTH 0 0
DWIDTH 0 0
BBX 4 11 -2 -15
BITMAP
F0
F0
F0
F0
F0
F0
F0
F0
F0
F0
F0
ENDCHAR
STARTCHAR 032A
ENCODING 810
SWIDTH 0 0
DWIDTH 0 0
BBX 14 8 -7 -12
BITMAP
FFFC
FFFC
FFFC
E01C
E01C
E01C
E01C
E01C
ENDCHAR
STARTCHAR 032C
ENCODING 812
SWIDTH 0 0
DWIDTH 0 0
BBX 18 9 -9 -12
BITMAP
600180
F003C0
780780
3C0F00
1E1E00
0F3C00
0FFC00
07F800
03F000
ENDCHAR
STARTCHAR 032E
ENCODING 814
SWIDTH 0 0
DWIDTH 0 0
BBX 18 9 -9 -13
BITMAP
600180
F001C0
700380
700380
780780
3E1F00
1FFE00
0FFC00
03F000
ENDCHAR
STARTCHAR 032F
ENCODING 815
SWIDTH 0 0
DWIDTH 0 0
BBX 18 9 -9 -13
BITMAP
03F000
0FFC00
1FFE00
3E1F00
780780
700380
700380
F001C0
600180
ENDCHAR
STARTCHAR 0330
ENCODING 816
SWIDTH 0 0
DWIDTH 0 0
BBX 20 7 -10 -12
BITMAP
1F8070
3FC0F0
7FE0E0
79F9E0
707FE0
703FC0
F01F80
ENDCHAR
STARTCHAR 0331
ENCODING 817
SWIDTH 0 0
DWIDTH 0 0
BBX 14 3 -7 -9
BITMAP
FFFC
FFFC
FFFC
ENDCHAR
STARTCHAR 0334
ENCODING 820
SWIDTH 0 0
DWIDTH 0 0
BBX 20 7 -10 11
BITMAP
1F8070
3FC0F0
7FE0E0
79F9E0
707FE0
703FC0
F01F80
ENDCHAR
STARTCHAR 0339
ENCODING 825
SWIDTH 0 0
DWIDTH 0 0
BBX 7 10 -3 -14
BITMAP
E0
F8
1C
0C
0E
0E
0C
1C
F8
E0
ENDCHAR
STARTCHAR 033A
ENCODING 826
SWIDTH 0 0
DWIDTH 0 0
BBX 14 8 -7 -13
BITMAP
E01C
E01C
E01C
E01C
E01C
FFFC
FFFC
FFFC
ENDCHAR
STARTCHAR 033B
ENCODING 827
SWIDTH 0 0
DWIDTH 0 0
BBX 14 9 -7 -13
BITMAP
FFFC
FFFC
E01C
E01C
E01C
E01C
E01C
FFFC
FFFC
ENDCHAR
STARTCHAR 033C
ENCODING 828
SWIDTH 0 0
DWIDTH 0 0
BBX 18 9 -9 -13
BITMAP
1E1E00
7F3F80
7FFF80
F3F3C0
E1E1C0
E1E1C0
C0C0C0
C0C0C0
00C000
ENDCHAR
STARTCHAR 033D
ENCODING 829
SWIDTH 0 0
DWIDTH 0 0
BBX 10 9 -5 31
BITMAP
2100
7380
7F80
3F00
1E00
3F00
7F80
F3C0
6180
ENDCHAR
STARTCHAR 0342
ENCODING 834
SWIDTH 0 0
DWIDTH 0 0
BBX 20 8 -10 32
BITMAP
0F0070
3FC0F0
3FE0E0
7DF0E0
70F9E0
707FC0
F03FC0
E00F00
ENDCHAR
STARTCHAR 0345
ENCODING 837
SWIDTH 0 0
DWIDTH 0 0
BBX 7 8 -2 -11
BITMAP
F0
F0
F0
F0
F0
7E
7E
3E
ENDCHAR
STARTCHAR 0361
ENCODING 865
SWIDTH 0 0
DWIDTH 0 0
BBX 50 9 -25 31
BITMAP
00003FFF000000
0007FFFFF80000
003FFFFFFF8000
01FFF007FFE000
07FC00000FFC00
1FC0000000FF00
7E000000001F80
F80000000007C0
60000000000180
ENDCHAR
STARTCHAR 0374
ENCODING 884
SWIDTH 252 0
DWIDTH 14 0
BBX 5 13 5 25
BITMAP
78
78
78
F8
F0
F0
F0
F0
F0
E0
E0
E0
E0
ENDCHAR
STARTCHAR 0375
ENCODING 885
SWIDTH 252 0
DWIDTH 14 0
BBX 5 13 4 0
BITMAP
38
38
38
78
78
78
78
F8
F0
F0
F0
F0
F0
ENDCHAR
STARTCHAR 037A
ENCODING 890
SWIDTH 540 0
DWIDTH 30 0
BBX 6 8 14 -11
BITMAP
E0
E0
E0
E0
E0
FC
FC
7C
ENDCHAR
STARTCHAR 037E
ENCODING 894
SWIDTH 252 0
DWIDTH 14 0
BBX 8 35 3 -9
BITMAP
3C
7E
7E
7E
7E
7E
3C
00
00
00
00
00
00
00
00
00
00
00
00
00
3E
7E
7F
7F
7F
3F
07
0F
0E
0E
1E
3C
F8
F0
C0
ENDCHAR
STARTCHAR 0384
ENCODING 900
SWIDTH 540 0
DWIDTH 30 0
BBX 7 12 13 31
BITMAP
10
3E
3E
3C
3C
7C
78
78
78
70
F0
70
ENDCHAR
STARTCHAR 0385
ENCODING 901
SWIDTH 540 0
DWIDTH 30 0
BBX 17 12 7 31
BITMAP
006000
00F000
00F000
00E000
00E000
61E300
F1C780
F1CF80
F1C780
618700
038000
018000
ENDCHAR
STARTCHAR 0386
ENCODING 902
SWIDTH 558 0
DWIDTH 31 0
BBX 31 38 0 0
BITMAP
20000000
3C03E000
3C07E000
7C07F000
7807F000
780F7000
780F7800
700E7800
701E7800
701E3C00
F01E3C00
203C3C00
003C1E00
003C1E00
00781E00
00781F00
00780F00
00F00F00
00F00F80
00F00780
01F00780
01E007C0
01E003C0
03FFFFC0
03FFFFE0
03FFFFE0
07FFFFE0
078001F0
078001F0
0F8000F0
0F0000F8
0F0000F8
1F000078
1F00007C
1E00007C
3E00003C
3E00003E
3C00003E
ENDCHAR
STARTCHAR 0387
ENCODING 903
SWIDTH 252 0
DWIDTH 14 0
BBX 6 7 4 19
BITMAP
78
FC
FC
FC
FC
FC
78
ENDCHAR
STARTCHAR 0388
ENCODING 904
SWIDTH 594 0
DWIDTH 33 0
BBX 31 37 -1 1
BITMAP
7C3FFFFE
783FFFFE
783FFFFE
783FFFFE
783C0000
703C0000
703C0000
F03C0000
F03C0000
E03C0000
E03C0000
003C0000
003C0000
003C0000
003C0000
003C0000
003FFFF0
003FFFF0
003FFFF0
003FFFF0
003C0000
003C0000
003C0000
003C0000
003C0000
003C0000
003C0000
003C0000
003C0000
003C0000
003C0000
003C0000
003C0000
003FFFFE
003FFFFE
003FFFFE
003FFFFE
ENDCHAR
STARTCHAR 0389
ENCODING 905
SWIDTH 720 0
DWIDTH 40 0
BBX 36 37 -1 1
BITMAP
7C3C0001F0
783C0001F0
783C0001F0
783C0001F0
783C0001F0
703C0001F0
703C0001F0
F03C0001F0
F03C0001F0
E03C0001F0
E03C0001F0
003C0001F0
003C0001F0
003C0001F0
003C0001F0
003C0001F0
003FFFFFF0
003FFFFFF0
003FFFFFF0
003FFFFFF0
003C0001F0
003C0001F0
003C0001F0
003C0001F0
003C0001F0
003C0001F0
003C0001F0
003C0001F0
003C0001F0
003C0001F0
003C0001F0
003C0001F0
003C0001F0
003C0001F0
003C0001F0
003C0001F0
003C0001F0
ENDCHAR
STARTCHAR 038A
ENCODING 906
SWIDTH 324 0
DWIDTH 18 0
BBX 14 37 -1 1
BITMAP
7C3C
783C
783C
783C
783C
703C
F03C
F03C
F03C
E03C
603C
003C
003C
003C
003C
003C
003C
003C
003C
003C
003C
003C
003C
003C
003C
003C
003C
003C
003C
003C
003C
003C
003C
003C
003C
003C
003C
ENDCHAR
STARTCHAR 038C
ENCODING 908
SWIDTH 720 0
DWIDTH 40 0
BBX 38 37 -1 1
BITMAP
7C003FC000
7801FFF800
7803FFFE00
780FFFFF00
781FE07F80
703F801FC0
703F0007E0
F07E0003E0
F07C0003F0
E0F80001F0
E0F80001F0
01F00000F8
01F00000F8
01F00000F8
01F0000078
01E000007C
01E000007C
01E000007C
01E000007C
01E000007C
01E000007C
01E000007C
01F0000078
01F00000F8
01F00000F8
01F00000F8
00F80001F0
00F80001F0
007C0003F0
007E0003E0
003F0007C0
003F801FC0
001FE07F80
000FFFFF00
0003FFFC00
0001FFF800
00003FC000
ENDCHAR
STARTCHAR 038E
ENCODING 910
SWIDTH 594 0
DWIDTH 33 0
BBX 34 37 -1 1
BITMAP
7CF80007C0
78780007C0
787C000F80
787C000F80
783E000F00
703E001F00
F01F001E00
F01F003E00
F00F803C00
E00F807C00
6007C07800
0007C0F800
0003C0F000
0003E0F000
0001E1E000
0001F1E000
0000F3C000
0000FBC000
00007F8000
00007F8000
00003F8000
00003F0000
00001F0000
00001E0000
00001E0000
00001E0000
00001E0000
00001E0000
00001E0000
00001E0000
00001E0000
00001E0000
00001E0000
00001E0000
00001E0000
00001E0000
00001E0000
ENDCHAR
STARTCHAR 038F
ENCODING 911
SWIDTH 720 0
DWIDTH 40 0
BBX 39 38 -1 0
BITMAP
4000000000
78001FE000
7800FFF800
7803FFFE00
7807FFFF00
700FE07F80
F01F800FC0
F03F0007E0
F07E0003F0
E07C0001F0
E0FC0001F8
E0F80000F8
00F80000F8
01F000007C
01F000007C
01F000007C
01F000007C
01F000007C
01F000007C
01F000007C
01F000007C
01F000007C
01F000007C
01F000007C
00F0000078
00F80000F8
00F80000F8
00780000F0
007C0001F0
003C0001E0
003E0003C0
001F0007C0
000F800F80
0007C01F00
03FFE03FFE
03FFE03FFE
03FFE03FFE
03FFE03FFE
ENDCHAR
STARTCHAR 0390
ENCODING 912
SWIDTH 270 0
DWIDTH 15 0
BBX 18 43 -2 0
BITMAP
006000
007800
007000
00F000
00F000
30E300
78E780
F9E7C0
F9C780
71C380
018000
008000
000000
000000
000000
000000
01E000
01E000
01E000
01E000
01E000
01E000
01E000
01E000
01E000
01E000
01E000
01E000
01E000
01E000
01E000
01E000
01E000
01E000
01E000
01E000
01E000
01E000
01E000
01FC00
01FE00
00FE00
007E00
ENDCHAR
STARTCHAR 0391
ENCODING 913
SWIDTH 540 0
DWIDTH 30 0
BBX 30 37 0 0
BITMAP
000FC000
000FC000
000FE000
001FE000
001FE000
001CF000
003CF000
003CF000
003CF800
00787800
00787800
00787C00
00F03C00
00F03C00
00F03E00
01F03E00
01E01E00
01E01F00
03E01F00
03C00F00
03C00F80
07C00F80
07FFFF80
07FFFFC0
0FFFFFC0
0FFFFFC0
0F0003E0
1F0003E0
1F0003E0
1E0001F0
3E0001F0
3E0001F0
3C0000F8
7C0000F8
7C0000F8
7800007C
F800007C
ENDCHAR
STARTCHAR 0392
ENCODING 914
SWIDTH 594 0
DWIDTH 33 0
BBX 25 37 5 0
BITMAP
FFFF0000
FFFFE000
FFFFF000
FFFFFC00
F801FC00
F8007E00
F8003E00
F8003E00
F8001E00
F8001E00
F8001E00
F8001E00
F8003E00
F8003C00
F8007C00
F803F800
FFFFF000
FFFFC000
FFFFF800
FFFFFC00
F8007F00
F8001F00
F8000F80
F8000F80
F8000780
F8000780
F8000780
F8000780
F8000780
F8000F80
F8001F80
F8003F00
F8007E00
FFFFFE00
FFFFF800
FFFFF000
FFFF0000
ENDCHAR
STARTCHAR 0393
ENCODING 915
SWIDTH 504 0
DWIDTH 28 0
BBX 21 37 5 0
BITMAP
FFFFF8
FFFFF8
FFFFF8
FFFFF8
F80000
F80000
F80000
F80000
F80000
F80000
F80000
F80000
F80000
F80000
F80000
F80000
F80000
F80000
F80000
F80000
F80000
F80000
F80000
F80000
F80000
F80000
F80000
F80000
F80000
F80000
F80000
F80000
F80000
F80000
F80000
F80000
F80000
ENDCHAR
STARTCHAR 0394
ENCODING 916
SWIDTH 594 0
DWIDTH 33 0
BBX 29 37 2 0
BITMAP
001F8000
001FC000
001FC000
003FC000
003FE000
003DE000
0079E000
0079F000
0078F000
00F0F000
00F0F800
00F07800
01E07800
01E07C00
01E03C00
03E03C00
03C03E00
03C01E00
07C01F00
07801F00
0F800F00
0F800F80
0F000F80
1F000780
1F0007C0
1E0007C0
3E0003C0
3E0003E0
3C0003E0
7C0001E0
7C0001F0
780001F0
F80000F0
FFFFFFF8
FFFFFFF8
FFFFFFF8
FFFFFFF8
ENDCHAR
STARTCHAR 0395
ENCODING 917
SWIDTH 522 0
DWIDTH 29 0
BBX 22 37 5 0
BITMAP
FFFFF8
FFFFF8
FFFFF8
FFFFF8
F80000
F80000
F80000
F80000
F80000
F80000
F80000
F80000
F80000
F80000
F80000
F80000
FFFFC0
FFFFC0
FFFFC0
FFFFC0
F80000
F80000
F80000
F80000
F80000
F80000
F80000
F80000
F80000
F80000
F80000
F80000
F80000
FFFFFC
FFFFFC
FFFFFC
FFFFFC
ENDCHAR
STARTCHAR 0396
ENCODING 918
SWIDTH 540 0
DWIDTH 30 0
BBX 25 37 3 0
BITMAP
7FFFFF00
7FFFFF00
7FFFFF00
7FFFFF00
00003E00
00003E00
00007C00
0000F800
0000F800
0001F000
0003F000
0003E000
0007C000
0007C000
000F8000
001F0000
001F0000
003E0000
007C0000
007C0000
00F80000
00F80000
01F00000
03E00000
03E00000
07C00000
0F800000
0F800000
1F000000
3E000000
3E000000
7C000000
7C000000
FFFFFF80
FFFFFF80
FFFFFF80
FFFFFF80
ENDCHAR
STARTCHAR 0397
ENCODING 919
SWIDTH 648 0
DWIDTH 36 0
BBX 26 37 5 0
BITMAP
F80003C0
F80003C0
F80003C0
F80003C0
F80003C0
F80003C0
F80003C0
F80003C0
F80003C0
F80003C0
F80003C0
F80003C0
F80003C0
F80003C0
F80003C0
F80003C0
FFFFFFC0
FFFFFFC0
FFFFFFC0
FFFFFFC0
F80003C0
F80003C0
F80003C0
F80003C0
F80003C0
F80003C0
F80003C0
F80003C0
F80003C0
F80003C0
F80003C0
F80003C0
F80003C0
F80003C0
F80003C0
F80003C0
F80003C0
ENDCHAR
STARTCHAR 0398
ENCODING 920
SWIDTH 666 0
DWIDTH 37 0
BBX 31 37 3 0
BITMAP
000FF000
007FFC00
01FFFF00
03FFFF80
07F03FC0
0FC007E0
1F8003F0
1F0001F0
3E0000F8
3E0000F8
7C00007C
7C00007C
7800007C
F800003E
F800003E
F800003E
F87FFC3E
F87FFC3E
F87FFC3E
F87FFC3E
F800003E
F800003E
F800003E
F800003E
7800007C
7C00007C
7C00007C
7E0000F8
3E0000F8
3F0001F0
1F8003F0
0FC007E0
07F81FC0
03FFFF80
01FFFF00
007FFC00
001FE000
ENDCHAR
STARTCHAR 0399
ENCODING 921
SWIDTH 270 0
DWIDTH 15 0
BBX 5 37 5 0
BITMAP
F8
F8
F8
F8
F8
F8
F8
F8
F8
F8
F8
F8
F8
F8
F8
F8
F8
F8
F8
F8
F8
F8
F8
F8
F8
F8
F8
F8
F8
F8
F8
F8
F8
F8
F8
F8
F8
ENDCHAR
STARTCHAR 039A
ENCODING 922
SWIDTH 576 0
DWIDTH 32 0
BBX 27 37 5 0
BITMAP
F8000F80
F8001F00
F8003E00
F8007C00
F800FC00
F801F800
F801F000
F803E000
F807C000
F80F8000
F81F8000
F81F0000
F83E0000
F87C0000
F8FC0000
F9FE0000
FBFE0000
FBFF0000
FFDF0000
FF8F8000
FF8F8000
FF07C000
FE03E000
FC03E000
F801F000
F801F000
F800F800
F800F800
F8007C00
F8007E00
F8003E00
F8001F00
F8001F00
F8000F80
F8000FC0
F80007C0
F80007E0
ENDCHAR
STARTCHAR 039B
ENCODING 923
SWIDTH 522 0
DWIDTH 29 0
BBX 28 37 0 0
BITMAP
001F8000
001F8000
001FC000
001FC000
003FC000
003DE000
003DE000
0079E000
0079F000
0078F000
00F0F000
00F0F800
00F07800
01F07800
01E07C00
01E07C00
03E03C00
03C03C00
03C03E00
07C01E00
07C01E00
07801F00
07801F00
0F800F00
0F000F80
0F000F80
1F000780
1E0007C0
1E0007C0
3E0003C0
3E0003E0
3C0003E0
7C0003E0
7C0001F0
780001F0
F80001F0
F80000F0
ENDCHAR
STARTCHAR 039C
ENCODING 924
SWIDTH 720 0
DWIDTH 40 0
BBX 30 37 5 0
BITMAP
FC00007C
FC0000FC
FC0000FC
FE0000FC
FE0001FC
FF0001FC
FF0003DC
FF0003DC
F78003BC
F78007BC
F78007BC
F3C0073C
F3C00F3C
F1C00F3C
F1E00E3C
F1E01E3C
F0E01E3C
F0F01C3C
F0F03C3C
F0783C3C
F078383C
F078783C
F03C703C
F03C703C
F01CF03C
F01EE03C
F01EE03C
F00FE03C
F00FC03C
F00FC03C
F007C03C
F007803C
F007803C
F000003C
F000003C
F000003C
F000003C
ENDCHAR
STARTCHAR 039D
ENCODING 925
SWIDTH 648 0
DWIDTH 36 0
BBX 26 37 5 0
BITMAP
F80003C0
FC0003C0
FC0003C0
FE0003C0
FE0003C0
FF0003C0
FF0003C0
F78003C0
F7C003C0
F3C003C0
F3E003C0
F1E003C0
F1F003C0
F0F003C0
F0F803C0
F07C03C0
F03C03C0
F03E03C0
F01E03C0
F01F03C0
F00F03C0
F00F83C0
F00783C0
F007C3C0
F003E3C0
F001E3C0
F001F3C0
F000F3C0
F000FBC0
F0007BC0
F0007FC0
F0003FC0
F0001FC0
F0001FC0
F0000FC0
F0000FC0
F00007C0
ENDCHAR
STARTCHAR 039E
ENCODING 926
SWIDTH 540 0
DWIDTH 30 0
BBX 24 37 3 0
BITMAP
FFFFFE
FFFFFE
FFFFFE
FFFFFE
000000
000000
000000
000000
000000
000000
000000
000000
000000
000000
000000
000000
0FFFF0
0FFFF0
0FFFF0
0FFFF0
000000
000000
000000
000000
000000
000000
000000
000000
000000
000000
000000
000000
000000
FFFFFF
FFFFFF
FFFFFF
FFFFFF
ENDCHAR
STARTCHAR 039F
ENCODING 927
SWIDTH 666 0
DWIDTH 37 0
BBX 31 37 3 0
BITMAP
000FF000
007FFC00
01FFFF00
03FFFF80
07F03FC0
0FC007E0
1F8003F0
3F0001F8
3E0000F8
3E0000FC
7C00007C
7C00007C
7800007C
F800003E
F800003E
F800003E
F800003E
F800003E
F800003E
F800003E
F800003E
F800003E
F800003E
F800003E
7C00007C
7C00007C
7C00007C
3E0000F8
3E0000F8
1F0001F0
1F8003F0
0FC007E0
07F81FC0
03FFFF80
01FFFF00
007FFC00
001FE000
ENDCHAR
STARTCHAR 03A0
ENCODING 928
SWIDTH 648 0
DWIDTH 36 0
BBX 26 37 5 0
BITMAP
FFFFFFC0
FFFFFFC0
FFFFFFC0
FFFFFFC0
F80007C0
F80007C0
F80007C0
F80007C0
F80007C0
F80007C0
F80007C0
F80007C0
F80007C0
F80007C0
F80007C0
F80007C0
F80007C0
F80007C0
F80007C0
F80007C0
F80007C0
F80007C0
F80007C0
F80007C0
F80007C0
F80007C0
F80007C0
F80007C0
F80007C0
F80007C0
F80007C0
F80007C0
F80007C0
F80007C0
F80007C0
F80007C0
F80007C0
ENDCHAR
STARTCHAR 03A1
ENCODING 929
SWIDTH 558 0
DWIDTH 31 0
BBX 24 37 5 0
BITMAP
FFFF00
FFFFE0
FFFFF8
FFFFFC
F801FC
F8007E
F8003E
F8001F
F8001F
F8001F
F8001F
F8001F
F8001F
F8001F
F8001F
F8003E
F8007E
F801FC
FFFFF8
FFFFF0
FFFFC0
FFFE00
F80000
F80000
F80000
F80000
F80000
F80000
F80000
F80000
F80000
F80000
F80000
F80000
F80000
F80000
F80000
ENDCHAR
STARTCHAR 03A3
ENCODING 931
SWIDTH 540 0
DWIDTH 30 0
BBX 26 37 2 0
BITMAP
7FFFFF00
7FFFFF00
7FFFFF00
7FFFFF00
3E000000
1F000000
0F800000
0F800000
07C00000
03E00000
01F00000
00F00000
00F80000
007C0000
003E0000
001F0000
000F0000
000F8000
00078000
000F8000
001F0000
003E0000
003C0000
007C0000
00F80000
01F00000
01E00000
03E00000
07C00000
0F800000
1F000000
1F000000
3E000000
7FFFFFC0
FFFFFFC0
FFFFFFC0
FFFFFFC0
ENDCHAR
STARTCHAR 03A4
ENCODING 932
SWIDTH 540 0
DWIDTH 30 0
BBX 26 37 2 0
BITMAP
FFFFFFC0
FFFFFFC0
FFFFFFC0
FFFFFFC0
001E0000
001E0000
001E0000
001E0000
001E0000
001E0000
001E0000
001E0000
001E0000
001E0000
001E0000
001E0000
001E0000
001E0000
001E0000
001E0000
001E0000
001E0000
001E0000
001E0000
001E0000
001E0000
001E0000
001E0000
001E0000
001E0000
001E0000
001E0000
001E0000
001E0000
001E0000
001E0000
001E0000
ENDCHAR
STARTCHAR 03A5
ENCODING 933
SWIDTH 468 0
DWIDTH 26 0
BBX 26 37 0 0
BITMAP
F80007C0
7C0007C0
7C000780
3C000F80
3E000F00
1E001F00
1F001E00
0F003E00
0F803C00
0F807C00
07C07800
07C07800
03E0F000
03E0F000
01E1F000
01F1E000
00F3E000
00FBC000
007FC000
007F8000
003F8000
003F0000
001F0000
001F0000
001F0000
001F0000
001F0000
001F0000
001F0000
001F0000
001F0000
001F0000
001F0000
001F0000
001F0000
001F0000
001F0000
ENDCHAR
STARTCHAR 03A6
ENCODING 934
SWIDTH 720 0
DWIDTH 40 0
BBX 34 38 3 -1
BITMAP
0001E00000
0001E00000
0001E00000
0001E00000
0001E00000
001FFE0000
00FFFFC000
03FFFFF000
0FFFFFFC00
1FE1E1FE00
3F81E07F00
3E01E01F00
7C01E00F80
7C01E00F80
F801E007C0
F801E007C0
F001E003C0
F001E003C0
F001E003C0
F001E003C0
F001E003C0
F001E003C0
F801E007C0
F801E007C0
7C01E00F80
7C01E00F80
3E01E01F00
3F81E07E00
1FE1E1FE00
0FFFFFF800
03FFFFF000
00FFFFC000
001FFE0000
0001E00000
0001E00000
0001E00000
0001E00000
0001E00000
ENDCHAR
STARTCHAR 03A7
ENCODING 935
SWIDTH 522 0
DWIDTH 29 0
BBX 26 37 1 0
BITMAP
7C0007C0
7C000F80
3E000F80
3E001F00
1F001F00
0F803E00
0F803C00
07C07C00
07C07800
03E0F800
03E0F000
01F1F000
01F1E000
00FBE000
007BC000
007F8000
003F8000
003F0000
003F0000
003F8000
007F8000
00FFC000
00F3E000
01F3E000
01E1F000
03E1F000
03C0F800
07C0F800
07807C00
0F803C00
1F003E00
1F001F00
3E001F00
3E000F80
7C000F80
7C0007C0
F80007C0
ENDCHAR
STARTCHAR 03A8
ENCODING 936
SWIDTH 702 0
DWIDTH 39 0
BBX 31 37 4 0
BITMAP
F007C01E
F007C01E
F007C01E
F007C01E
F007C01E
F007C01E
F007C01E
F007C01E
F007C01E
F007C01E
F007C01E
F007C01E
F007C03E
F807C03E
F807C03E
7C07C07C
7C07C07C
3E07C0F8
3F87C3F8
1FFFFFF0
0FFFFFC0
03FFFF80
00FFFC00
0007C000
0007C000
0007C000
0007C000
0007C000
0007C000
0007C000
0007C000
0007C000
0007C000
0007C000
0007C000
0007C000
0007C000
ENDCHAR
STARTCHAR 03A9
ENCODING 937
SWIDTH 684 0
DWIDTH 38 0
BBX 32 37 3 0
BITMAP
000FF000
007FFE00
01FFFF00
03FFFFC0
07F81FE0
0FE007F0
1F8003F0
1F0001F8
3F0000FC
3E00007C
7C00007C
7C00003E
7C00003E
7C00003E
F800003E
F800001E
F800001E
F800001E
F800001E
F800001E
F800001E
7800003E
7C00003E
7C00003E
7C00003C
3C00007C
3E00007C
1E0000F8
1F0000F0
0F8001F0
078003E0
07C003C0
03E00780
FFF01FFF
FFF01FFF
FFF01FFF
FFF01FFF
ENDCHAR
STARTCHAR 03AA
ENCODING 938
SWIDTH 270 0
DWIDTH 15 0
BBX 17 46 -1 0
BITMAP
700F00
F80F00
F81F80
F81F80
F80F00
000000
000000
000000
000000
03E000
03E000
03E000
03E000
03E000
03E000
03E000
03E000
03E000
03E000
03E000
03E000
03E000
03E000
03E000
03E000
03E000
03E000
03E000
03E000
03E000
03E000
03E000
03E000
03E000
03E000
03E000
03E000
03E000
03E000
03E000
03E000
03E000
03E000
03E000
03E000
03E000
ENDCHAR
STARTCHAR 03AB
ENCODING 939
SWIDTH 468 0
DWIDTH 26 0
BBX 26 46 0 0
BITMAP
03807800
07C07800
07C0FC00
07C0FC00
07C07800
00000000
00000000
00000000
00000000
F80007C0
7C0007C0
7C000780
3C000F80
3E000F00
1E001F00
1F001E00
0F003E00
0F803C00
0F807C00
07C07800
07C07800
03E0F000
03E0F000
01E1F000
01F1E000
00F3E000
00FBC000
007FC000
007F8000
003F8000
003F0000
001F0000
001F0000
001F0000
001F0000
001F0000
001F0000
001F0000
001F0000
001F0000
001F0000
001F0000
001F0000
001F0000
001F0000
001F0000
ENDCHAR
STARTCHAR 03AC
ENCODING 940
SWIDTH 558 0
DWIDTH 31 0
BBX 27 42 3 0
BITMAP
00078000
0007C000
00078000
00078000
000F8000
000F0000
000F0000
000F0000
001E0000
001E0000
001E0000
00040000
00000000
00000000
00000000
00FC0780
03FF0780
07FF8780
1FFFCF80
1F81EF80
3E00EF00
7E007F00
7C007F00
F8003F00
F8003F00
F8001E00
F0001E00
F0003E00
F0003E00
F0003E00
F0003E00
F8003C00
F8003C00
F8007C00
F8007C00
7C00FC00
7E01FC00
3F03DE00
3FFF9FE0
1FFF1FE0
07FE0FE0
01F807E0
ENDCHAR
STARTCHAR 03AD
ENCODING 941
SWIDTH 450 0
DWIDTH 25 0
BBX 21 42 3 0
BITMAP
001E00
001F00
001E00
003E00
003E00
003C00
003C00
003C00
007800
007800
007000
001000
000000
000000
000000
01FE00
0FFFC0
1FFFE0
3FFFF0
3E00E0
7C0040
7C0000
780000
7C0000
7C0000
3E0000
1FC000
0FFE00
0FFE00
3FFE00
7E0000
F80000
F00000
F00000
F00000
F00000
F80020
FE00F0
7FFFF8
3FFFF0
0FFFC0
01FE00
ENDCHAR
STARTCHAR 03AE
ENCODING 942
SWIDTH 540 0
DWIDTH 30 0
BBX 22 52 4 -10
BITMAP
000700
000F80
000F80
000F00
000F00
000F00
001E00
001E00
001E00
001C00
003C00
000400
000000
000000
000000
F01FC0
F07FE0
F0FFF0
F9FFF8
7BC1F8
7F80F8
7F007C
7E007C
7C007C
78003C
78003C
78003C
78003C
78003C
78003C
78003C
78003C
78003C
78003C
78003C
78003C
78003C
78003C
78007C
78007C
78007C
78007C
00007C
00007C
00007C
00007C
00007C
00007C
00007C
00007C
00007C
00007C
ENDCHAR
STARTCHAR 03AF
ENCODING 943
SWIDTH 270 0
DWIDTH 15 0
BBX 8 43 5 0
BITMAP
30
3E
3E
3C
3C
7C
78
78
70
F0
F0
60
00
00
00
00
F0
F0
F0
F0
F0
F0
F0
F0
F0
F0
F0
F0
F0
F0
F0
F0
F0
F0
F0
F0
F0
F0
F0
FE
FF
7F
3F
ENDCHAR
STARTCHAR 03B0
ENCODING 944
SWIDTH 504 0
DWIDTH 28 0
BBX 22 42 3 0
BITMAP
001E00
003C00
003C00
003800
003800
1C39C0
3C71E0
3E71E0
3C71E0
1860C0
00E000
000000
000000
000000
000000
F80030
7800F0
7800F8
7800F8
780078
780078
78007C
78007C
78007C
78007C
78003C
78003C
78003C
78003C
78003C
78003C
78007C
78007C
78007C
780078
7C00F8
7C01F0
3F03F0
1FFFE0
1FFFC0
07FF80
01FC00
ENDCHAR
STARTCHAR 03B1
ENCODING 945
SWIDTH 558 0
DWIDTH 31 0
BBX 27 27 3 0
BITMAP
00FC0780
03FF0780
07FF8780
1FFFCF80
1F81EF80
3E00EF00
7E007F00
7C007F00
F8003F00
F8003F00
F8001E00
F0001E00
F0003E00
F0003E00
F0003E00
F0003E00
F8003C00
F8003C00
F8007C00
F8007C00
7C00FC00
7E01FC00
3F03DE00
3FFF9FE0
1FFF1FE0
07FE0FE0
01F807E0
ENDCHAR
STARTCHAR 03B2
ENCODING 946
SWIDTH 558 0
DWIDTH 31 0
BBX 25 49 4 -9
BITMAP
00FE0000
03FF8000
0FFFE000
1FFFF000
1F81F000
3E00F800
7C00F800
7C007C00
7C007C00
78007C00
78007C00
F8007800
F8007800
F800F800
F800F000
F801F000
F803E000
F80FC000
F87F0000
F83FE000
F83FF800
F801FC00
F8003E00
F8001F00
F8001F00
F8000F80
F8000F80
F8000F80
F8000F80
F8000F80
F8000F80
F8000F80
F8000F00
FC001F00
FE003F00
FF80FE00
FFFFFC00
FBFFF800
F8FFF000
F83FC000
F8000000
F8000000
F8000000
F8000000
F8000000
F8000000
F8000000
F8000000
F8000000
ENDCHAR
STARTCHAR 03B3
ENCODING 947
SWIDTH 486 0
DWIDTH 27 0
BBX 25 38 1 -11
BITMAP
30000F80
F8000F80
FC000F00
7C000F00
3E000F00
3E001F00
1F001E00
1F001E00
0F801E00
0F803E00
07803C00
07C03C00
03C07C00
03E07800
03E0F800
01E0F000
01F0F000
00F1E000
00F1E000
00F3C000
00FBC000
007F8000
007F8000
007F0000
007F0000
003E0000
003E0000
003C0000
003C0000
003C0000
003C0000
003E0000
003E0000
003E0000
003E0000
003E0000
003E0000
003E0000
ENDCHAR
STARTCHAR 03B4
ENCODING 948
SWIDTH 540 0
DWIDTH 30 0
BBX 24 40 3 0
BITMAP
00FF80
07FFF8
0FFFFE
0FFFFE
1F003E
1E0004
1E0000
1E0000
1F0000
0F8000
0FC000
07E000
03F800
01FC00
007E00
003F80
00FFC0
03FFE0
07E3F0
1F81F8
1F00FC
3E007C
7C003E
78001E
F8001F
F8001F
F0001F
F0001F
F0001F
F8001F
F8001F
F8001E
7C003E
7C003E
3E007C
3F81FC
1FFFF8
0FFFF0
03FFC0
00FF00
ENDCHAR
STARTCHAR 03B5
ENCODING 949
SWIDTH 450 0
DWIDTH 25 0
BBX 21 27 3 0
BITMAP
01FE00
0FFFC0
1FFFE0
3FFFF0
3E00E0
7C0040
7C0000
780000
7C0000
7C0000
3E0000
1FC000
0FFE00
0FFE00
3FFE00
7E0000
F80000
F00000
F00000
F00000
F00000
F80020
FE00F0
7FFFF8
3FFFF0
0FFFC0
01FE00
ENDCHAR
STARTCHAR 03B6
ENCODING 950
SWIDTH 432 0
DWIDTH 24 0
BBX 20 50 3 -10
BITMAP
7FFFF0
7FFFF0
7FFFF0
7FF3F0
0007C0
000F80
001F00
003E00
007C00
00F800
01F000
01E000
03E000
07C000
0F8000
0F8000
1F0000
1E0000
3E0000
3C0000
7C0000
7C0000
F80000
F80000
F80000
F00000
F00000
F00000
F00000
F80000
F80000
F80000
FC0000
7C0000
7F0000
3F8000
1FF800
0FFF80
07FFE0
00FFE0
000FF0
0001F0
0000F0
0000F0
0000F0
0001E0
0001E0
0003C0
0003C0
000080
ENDCHAR
STARTCHAR 03B7
ENCODING 951
SWIDTH 540 0
DWIDTH 30 0
BBX 22 37 4 -10
BITMAP
F01FC0
F07FE0
F0FFF0
F9FFF8
7BC1F8
7F80F8
7F007C
7E007C
7C007C
78003C
78003C
78003C
78003C
78003C
78003C
78003C
78003C
78003C
78003C
78003C
78003C
78003C
78003C
78007C
78007C
78007C
78007C
00007C
00007C
00007C
00007C
00007C
00007C
00007C
00007C
00007C
00007C
ENDCHAR
STARTCHAR 03B8
ENCODING 952
SWIDTH 522 0
DWIDTH 29 0
BBX 23 40 3 0
BITMAP
007E00
01FF80
07FFC0
0FFFE0
0F83E0
1F01F0
1E00F8
3E00F8
3C0078
7C007C
7C007C
78003C
78003C
78003C
78003C
F8003E
F8003E
F8003E
FFFFFE
FFFFFE
FFFFFE
F8003E
F8003E
F8003E
F8003E
78003C
78003C
78003C
78003C
7C007C
7C007C
3C0078
3E00F8
3E00F8
1F01F0
0F83E0
0FFFE0
07FFC0
03FF80
00FE00
ENDCHAR
STARTCHAR 03B9
ENCODING 953
SWIDTH 270 0
DWIDTH 15 0
BBX 8 27 5 0
BITMAP
F0
F0
F0
F0
F0
F0
F0
F0
F0
F0
F0
F0
F0
F0
F0
F0
F0
F0
F0
F0
F0
F0
F0
FE
FF
7F
3F
ENDCHAR
STARTCHAR 03BA
ENCODING 954
SWIDTH 486 0
DWIDTH 27 0
BBX 23 27 4 0
BITMAP
F80008
F80038
F800FC
F801FC
7803F8
7807E0
780F80
781F00
783E00
787C00
78F800
78F800
79F800
7BFC00
7BBC00
7F3E00
7E1F00
7E0F00
7C0F80
7C07C0
7803C0
7803E0
7801F0
7800F8
7800F8
78007C
78003E
ENDCHAR
STARTCHAR 03BB
ENCODING 955
SWIDTH 486 0
DWIDTH 27 0
BBX 26 40 1 0
BITMAP
3F000000
FFC00000
7FE00000
7FF00000
41F80000
00F80000
007C0000
003C0000
003E0000
001E0000
001F0000
001F0000
000F0000
001F8000
001F8000
003F8000
003FC000
007FC000
007BC000
007BE000
00F1E000
00F1E000
01F1F000
01E0F000
03E0F000
03C0F800
03C07800
07C07C00
07807C00
0F803C00
0F003E00
0F003E00
1F001E00
1E001F00
3E001F00
3C000F00
7C000F80
7C000F80
780007C0
F80007C0
ENDCHAR
STARTCHAR 03BC
ENCODING 956
SWIDTH 558 0
DWIDTH 31 0
BBX 25 36 5 -9
BITMAP
F000F800
F000F800
F000F800
F000F800
F000F800
F000F800
F000F800
F000F800
F000F800
F000F800
F000F800
F000F800
F000F800
F000F800
F000F800
F000F800
F000F800
F000F800
F000F800
F801F800
F801F800
F803F800
FC0F7800
FFFE7F00
FFFE7F00
F7F83F80
F3F01F00
F0000000
F0000000
F0000000
F0000000
F0000000
F0000000
F0000000
F0000000
F0000000
ENDCHAR
STARTCHAR 03BD
ENCODING 957
SWIDTH 468 0
DWIDTH 26 0
BBX 24 27 1 0
BITMAP
30000F
F8001F
FC001F
7C001F
7E001E
3E001E
1F001E
1F003E
0F003C
0F803C
0F807C
07C078
07C078
03C078
03E0F0
01E0F0
01E1F0
01E1E0
01F1E0
00F3C0
00F3C0
00FF80
007F80
007F00
007F00
007E00
003E00
ENDCHAR
STARTCHAR 03BE
ENCODING 958
SWIDTH 432 0
DWIDTH 24 0
BBX 22 49 2 -10
BITMAP
FFFFF8
FFFFF8
FFFFF8
FDFFF8
03E000
07C000
0F8000
0F8000
0F0000
1F0000
1F0000
1F0000
0F0000
0F8000
07C000
07E000
03F800
00FFE0
007FE0
03FFE0
07F020
0FC000
1F0000
3E0000
3E0000
7C0000
7C0000
7C0000
780000
7C0000
7C0000
7C0000
7E0000
3E0000
3F8000
1FE000
0FFF00
07FFE0
01FFF0
003FF8
0003F8
0000FC
00007C
000078
000078
000078
0000F0
0001F0
0000E0
ENDCHAR
STARTCHAR 03BF
ENCODING 959
SWIDTH 540 0
DWIDTH 30 0
BBX 24 27 3 0
BITMAP
00FF00
03FFC0
0FFFE0
1FFFF0
3F81F8
3E00FC
7C007E
7C003E
F8001E
F8001F
F8001F
F0001F
F0001F
F0001F
F0001F
F0001F
F8001F
F8001F
F8001E
7C003E
7C003E
3E007C
3F81F8
1FFFF0
0FFFE0
03FFC0
00FE00
ENDCHAR
STARTCHAR 03C0
ENCODING 960
SWIDTH 594 0
DWIDTH 33 0
BBX 30 27 1 0
BITMAP
FFFFFFFC
FFFFFFFC
FFFFFFFC
FFFFFFFC
03E00F80
03E00F80
03E00F80
03E00F80
03E00F80
03E00F80
03E00F80
03E00F80
03C00F00
03C00F00
03C00F00
03C00F00
03C00F00
03C00F00
03C00F00
03C00F00
07C00F00
07C00F00
07C00F80
07C00FF8
078007F8
078003FC
078001F8
ENDCHAR
STARTCHAR 03C1
ENCODING 961
SWIDTH 558 0
DWIDTH 31 0
BBX 24 36 4 -9
BITMAP
007F00
03FFC0
07FFF0
0FFFF8
1F81FC
3F007C
3E003E
7C003E
7C001E
78001F
78001F
F8001F
F8001F
F8001F
F8001F
F8001F
F8001F
F8001E
F8003E
F8003E
F8007C
FE00FC
FF01F8
FFFFF0
FBFFE0
F9FFC0
F87F00
F80000
F80000
F80000
F80000
F80000
F80000
F80000
F80000
F80000
ENDCHAR
STARTCHAR 03C2
ENCODING 962
SWIDTH 432 0
DWIDTH 24 0
BBX 19 38 3 -11
BITMAP
00FE00
03FF80
0FFFE0
1FFFE0
3F81C0
3E00C0
7C0000
7C0000
F80000
F80000
F80000
F00000
F00000
F00000
F00000
F00000
F80000
F80000
F80000
7C0000
7E0000
3F0000
3FC000
1FF800
07FE00
03FF80
007F80
001FC0
0007C0
0003C0
0003C0
0003C0
000780
000780
000F80
001F00
000E00
000200
ENDCHAR
STARTCHAR 03C3
ENCODING 963
SWIDTH 540 0
DWIDTH 30 0
BBX 27 27 3 0
BITMAP
00FFFFE0
03FFFFE0
0FFFFFE0
1FFFDFE0
3F81E000
3E00F800
7C007800
7C003C00
F8003C00
F8003E00
F8001E00
F0001E00
F0001E00
F0001E00
F0001E00
F0001E00
F8001E00
F8001E00
F8003E00
7C003E00
7C007C00
3E00FC00
3F81F800
1FFFF000
0FFFE000
03FF8000
00FE0000
ENDCHAR
STARTCHAR 03C4
ENCODING 964
SWIDTH 468 0
DWIDTH 26 0
BBX 23 27 1 0
BITMAP
FFFFFE
FFFFFE
FFFFFE
FFFFFE
007C00
007C00
007C00
007C00
007C00
007C00
007C00
007C00
007C00
007C00
007C00
007C00
007C00
007C00
007C00
007C00
007C00
003C00
003C00
003FE0
003FE0
001FE0
000FC0
ENDCHAR
STARTCHAR 03C5
ENCODING 965
SWIDTH 504 0
DWIDTH 28 0
BBX 22 27 3 0
BITMAP
F80030
7800F0
7800F8
7800F8
780078
780078
78007C
78007C
78007C
78007C
78003C
78003C
78003C
78003C
78003C
78003C
78007C
78007C
78007C
780078
7C00F8
7C01F0
3F03F0
1FFFE0
1FFFC0
07FF80
01FC00
ENDCHAR
STARTCHAR 03C6
ENCODING 966
SWIDTH 684 0
DWIDTH 38 0
BBX 32 43 3 -9
BITMAP
0003C000
0003C000
0003C000
0003C000
0003C000
0003C000
0003C000
003FFC00
01FFFF80
03FFFFC0
0FFFFFF0
1FC3C3F8
3F03C0FC
3E03C07C
7C03C03E
7803C03E
F803C01F
F803C01F
F003C01F
F003C01F
F003C01F
F003C01F
F003C01F
F803C01F
F803C01F
FC03C03E
7C03C03E
3E03C07C
3F03C0FC
1FC3C3F8
0FFFFFF0
07FFFFC0
01FFFF00
003FF800
0003C000
0003C000
0003C000
0003C000
0003C000
0003C000
0003C000
0003C000
0003C000
ENDCHAR
STARTCHAR 03C7
ENCODING 967
SWIDTH 486 0
DWIDTH 27 0
BBX 26 38 1 -11
BITMAP
38001F00
F8001F00
FC003E00
7C003E00
3E007C00
3E007C00
1F00F800
1F80F000
0F81F000
07C1E000
07C3E000
03E3C000
01F7C000
01F78000
00FF8000
00FF0000
007F0000
003E0000
003E0000
003E0000
007F0000
007F8000
00F78000
01F7C000
01E3C000
03E3E000
03C1F000
07C0F000
0780F800
0F807800
0F007C00
1F003E00
3E003E00
3E001F00
7C001F80
7C000F80
F80007C0
F8000780
ENDCHAR
STARTCHAR 03C8
ENCODING 968
SWIDTH 684 0
DWIDTH 38 0
BBX 32 43 3 -9
BITMAP
0003C000
0003C000
0003C000
0003C000
0003C000
0003C000
0003C000
F803C01C
7803C07C
7803C03E
7803C03E
7803C03E
7803C01E
7803C01F
7803C01F
7803C01F
7803C01F
7803C01F
7803C01F
7803C01F
7803C01F
7803C01F
7803C01F
7803C01F
7803C01F
7C03C03E
3C03C03E
3E03C07C
1F03C0FC
1FC3C3F8
0FFFFFF0
07FFFFE0
01FFFF80
003FFC00
0003C000
0003C000
0003C000
0003C000
0003C000
0003C000
0003C000
0003C000
0003C000
ENDCHAR
STARTCHAR 03C9
ENCODING 969
SWIDTH 702 0
DWIDTH 39 0
BBX 33 27 3 0
BITMAP
0400001800
0F0000F800
1F80007C00
1F00007E00
3E00003E00
3E00001F00
7C00001F00
7C00001F00
7800000F80
F800000F80
F803E00F80
F803E00F80
F003E00F80
F003E00F80
F003E00F80
F003C00F80
F003C00F80
F003C00F80
F803E00F80
F803E00F80
7803E01F00
7C07F01F00
3E0F783E00
3FFF7FFE00
1FFE3FFC00
0FFC1FF800
03F007E000
ENDCHAR
STARTCHAR 03CA
ENCODING 970
SWIDTH 270 0
DWIDTH 15 0
BBX 16 38 -1 0
BITMAP
700E
F81F
F81F
F81F
F81E
2004
0000
0000
0000
0000
0000
03C0
03C0
03C0
03C0
03C0
03C0
03C0
03C0
03C0
03C0
03C0
03C0
03C0
03C0
03C0
03C0
03C0
03C0
03C0
03C0
03C0
03C0
03C0
03F8
03FC
01FC
00FC
ENDCHAR
ENDFONT
